<svg width="313" height="188" viewBox="0 0 313 188" fill="none" xmlns="http://www.w3.org/2000/svg">
<path d="M133.217 120.275L132.088 117.923L130.959 116.833V114.194H129.95L129.772 114.366V114.194L128.108 115.055C128.168 115.055 128.227 115.112 128.346 115.227C128.643 115.456 128.584 115.628 128.287 115.743C128.227 115.743 128.227 115.8 128.227 115.858C128.108 116.317 127.871 116.661 127.514 116.948C127.217 117.234 126.861 117.464 126.564 117.693C126.327 117.865 126.148 118.037 125.911 118.21C125.851 118.267 125.733 118.324 125.673 118.382C125.317 118.382 125.079 118.496 124.782 118.783V119.873L122.822 119.988L121.1 120.963L121.812 122.741L120.803 123.143C120.624 123.372 120.446 123.601 120.268 123.831C119.912 124.29 119.496 124.577 119.08 124.749C118.843 124.863 118.605 124.921 118.367 124.978C118.13 124.978 117.892 125.035 117.655 125.093C117.536 125.15 117.417 125.15 117.298 125.093C117.298 125.093 117.239 125.035 117.239 124.978L117.12 124.003L116.407 121.766V121.651H116.526L115.695 121.25L114.388 120.389L113.675 118.783L111.24 119.988V121.078V121.135C111.24 121.135 111.18 121.135 111.121 121.078L109.577 121.651C109.458 121.651 109.399 121.651 109.28 121.594C108.983 121.479 108.686 121.364 108.448 121.192C108.27 121.135 108.151 121.02 108.032 120.963C107.795 120.733 107.676 120.504 107.617 120.217C107.557 120.102 107.617 119.988 107.676 119.873L107.26 118.898L107.438 117.923L106.844 117.407L106.251 119.586V118.496L105.419 118.324L105.003 119.185L102.865 118.21L102.271 117.636V116.546L98.7072 118.783L97.6974 118.898L96.5689 119.299L96.0343 119.185L95.5591 119.873L95.8561 120.389C95.6779 120.619 95.4998 120.791 95.3216 120.963C95.2622 121.02 95.2028 121.078 95.1434 121.078L93.1833 122.053L94.3118 123.315L93.5991 125.38L92.8863 125.781L92.4705 126.642L92.7081 127.215L91.8766 127.731L91.7578 128.42L91.045 128.936C91.045 129.108 91.045 129.223 91.045 129.338C91.045 129.395 91.045 129.452 91.045 129.51C91.1044 129.567 91.1638 129.682 91.2232 129.796C91.342 129.911 91.342 130.083 91.4014 130.198C91.4608 130.542 91.5202 130.944 91.5202 131.288C91.5202 131.345 91.4608 131.345 91.4014 131.402C91.342 131.46 91.2232 131.517 91.2232 131.575C91.1638 131.804 91.045 132.033 91.045 132.263C91.045 132.263 91.045 132.378 90.9856 132.378C90.9262 132.492 90.9262 132.607 90.8668 132.664C90.748 133.009 90.5105 133.181 90.1541 133.238L89.3225 132.779V134.098L89.0255 134.443L88.8473 136.794L89.3225 137.253L90.4511 141.899L88.3128 143.104L87.303 143.276L87.897 144.481L88.7286 144.366L89.7383 143.792L90.3323 145.743C90.5104 145.915 90.6292 146.029 90.8668 146.144L91.1638 148.094L90.5698 148.783L90.4511 149.586L89.6195 150.159C89.6195 150.217 89.6789 150.331 89.7383 150.331C89.8571 150.331 89.9165 150.331 90.0353 150.331C90.2135 150.331 90.3323 150.331 90.5104 150.217C90.5698 150.217 90.6292 150.159 90.748 150.045C90.8074 149.987 90.8074 149.987 90.8668 149.987L92.1736 150.274L92.4705 150.962C92.7081 150.848 92.9457 150.733 93.1833 150.618L93.0051 150.676C92.9457 150.676 92.8269 150.676 92.7081 150.676L92.2923 148.897L93.3021 148.611C93.4209 148.611 93.4803 148.611 93.5991 148.611C93.8366 148.725 94.0148 148.725 94.193 148.668C94.2524 148.611 94.3118 148.553 94.3118 148.381C94.3118 148.496 94.4306 148.611 94.49 148.668C94.6088 148.725 94.7276 148.783 94.8464 148.783L96.4501 148.094V146.431L96.0343 146.029L95.8561 143.678L98.5884 143.104L99.7169 143.563L102.152 142.703L102.984 143.104L103.399 143.964L103.162 145.341L103.578 146.316L104.409 146.431L105.419 147.693L104.587 148.783V150.159L105.3 150.962L106.429 150.848L106.844 151.823L106.251 152.339L106.132 153.314L105.3 154.576L104.112 154.806V155.666L105.538 155.092L106.429 154.576L107.557 154.003C107.676 154.003 107.676 154.003 107.735 154.003C107.795 153.83 107.854 153.658 107.854 153.429L108.864 153.314C108.745 153.199 108.686 153.027 108.626 152.913C108.626 152.798 108.626 152.741 108.745 152.683C108.864 152.569 108.983 152.511 109.102 152.511C109.161 152.511 109.22 152.511 109.28 152.511C109.28 152.511 109.339 152.511 109.399 152.511L109.577 150.561L110.527 150.848L111.418 151.364L111.121 152.052C111.18 152.167 111.24 152.224 111.299 152.282C111.418 152.396 111.537 152.454 111.715 152.511C111.834 152.511 111.893 152.396 111.953 152.224C111.953 152.11 111.953 152.052 111.953 151.938L112.25 154.117L111.715 154.691L112.844 155.666C112.844 155.666 112.903 155.666 112.962 155.609C113.141 155.666 113.319 155.666 113.497 155.666C113.556 155.723 113.616 155.781 113.675 155.953V157.043L114.804 158.132L115.695 157.731L118.961 161.689C118.961 161.804 119.021 161.861 119.021 161.861C119.08 161.918 119.08 161.861 119.14 161.804C119.14 161.689 119.14 161.574 119.14 161.459H119.258L121.812 163.065C121.872 163.065 121.931 163.008 121.931 162.951C121.991 162.951 122.05 162.951 122.109 162.951C122.169 163.008 122.288 163.065 122.406 163.065L122.941 162.664L123.357 163.065H124.366H125.079L126.208 160.771L126.386 158.247C126.505 158.075 126.683 157.903 126.802 157.731C127.099 157.559 127.396 157.444 127.633 157.329L127.811 155.781L125.495 156.756L125.97 155.781L126.505 155.494L126.92 154.806H127.93C127.99 154.748 127.99 154.633 127.99 154.576C127.871 154.232 127.811 153.888 127.633 153.601C127.574 153.372 127.514 153.142 127.574 152.97C127.752 152.511 127.99 152.454 128.227 152.913L128.643 153.314H129.653L130.247 149.873L129.059 148.209C129.059 147.922 129.059 147.636 129.059 147.406C128.999 146.947 128.999 146.546 128.881 146.144C128.762 145.571 128.702 144.997 128.702 144.366C128.643 144.079 128.702 143.735 128.881 143.448C128.999 143.104 129.178 142.76 129.356 142.416C129.593 142.072 129.831 141.727 130.069 141.326C130.128 141.211 130.187 141.096 130.187 140.924C130.306 140.638 130.365 140.293 130.365 139.949C130.365 139.376 130.306 138.802 130.128 138.228C130.128 138.056 130.069 137.884 129.95 137.712C129.712 137.311 129.534 136.794 129.475 136.335C129.296 135.532 129.178 134.672 129.059 133.812C129.059 133.41 128.881 133.009 128.702 132.664C128.524 132.378 128.346 132.148 128.227 131.861C128.108 131.804 128.049 131.632 127.99 131.517C127.811 131.23 127.693 130.944 127.514 130.657L127.93 129.796L128.94 128.534L130.365 128.649L132.088 127.961C132.266 127.846 132.444 127.674 132.563 127.502C132.86 127.215 133.098 126.928 133.335 126.584C133.454 126.355 133.632 126.068 133.81 125.781C134.048 125.494 134.167 125.15 134.286 124.806C134.345 124.347 134.345 123.946 134.226 123.487C134.048 123.085 133.87 122.684 133.692 122.34C133.573 122.167 133.514 122.053 133.514 121.938C133.454 121.651 133.395 121.364 133.335 121.135C133.276 121.078 133.276 121.02 133.276 120.963C133.217 120.733 133.217 120.504 133.217 120.275Z" fill="#B4FF00" stroke="white" stroke-miterlimit="10"/>
</svg>
