<svg width="313" height="188" viewBox="0 0 313 188" fill="none" xmlns="http://www.w3.org/2000/svg">
<path d="M271.492 13.068L270.66 13.8711L269.888 13.9858L269.769 13.8711H268.581L267.037 14.9609L266.027 14.6741L265.314 15.133C265.671 15.133 265.671 15.2477 265.374 15.3624C265.374 15.3051 265.374 15.2477 265.314 15.133L264.305 15.2477L263.236 15.133L262.642 17.198L262.404 16.9112L261.81 16.6244L259.969 16.7391L258.127 16.0508L256.405 13.5843L255.692 13.4695V12.8959L255.514 12.0929L253.97 9.74111V9.05278L253.554 8.47918L252.544 5.89795C252.425 5.43907 252.188 5.38171 251.831 5.78323C251.772 5.84059 251.713 5.95531 251.653 6.01267C251.653 6.07003 251.594 6.1274 251.534 6.18476L249.812 5.89795L248.565 3.14465L247.852 2.57104L247.436 2.74313L245.417 1.19439C245.298 1.19439 245.179 1.13703 245.06 1.07967C244.941 1.02231 244.823 1.02231 244.763 1.13703C244.644 1.19439 244.585 1.25175 244.526 1.30911C244.526 1.36647 244.466 1.36647 244.407 1.36647L244.288 2.57104L242.981 2.45632L242.566 2.74313L241.853 2.57104H239.833L239.299 4.92282L236.151 4.11978L235.141 4.63602L233.894 5.03755C233.894 5.55379 233.656 5.66851 233.24 5.43907C233.062 5.38171 232.884 5.32435 232.706 5.32435L231.874 6.18476L230.864 7.38933L229.974 7.10252L229.558 5.72587L228.37 5.03755L227.835 5.32435L226.41 4.8081L224.806 5.49643L224.747 5.61115C224.568 5.49643 224.509 5.38171 224.39 5.20963H223.44L222.905 4.11978L222.014 3.14465L219.639 3.43145L219.045 2.57104C218.866 2.51368 218.807 2.45632 218.807 2.39896C218.688 2.11216 218.688 1.88272 218.748 1.59592C218.569 1.768 218.332 1.82536 218.154 1.88272C218.094 1.94008 218.094 1.94008 218.035 1.88272L213.639 2.57104L212.749 2.45632L211.204 2.97257L209.898 3.14465L208.591 3.66089L208.175 4.2345L206.868 4.63602L205.146 4.11978C204.908 4.5213 204.671 4.8081 204.433 5.03755C204.374 5.09491 204.314 5.09491 204.195 4.98019C204.136 4.92283 204.017 4.8081 203.958 4.8081C203.78 4.75074 203.601 4.75074 203.423 4.8081L203.305 4.92282L203.423 6.29948L203.305 7.79085L201.463 9.4543L201.76 10.1426L200.869 10.4294L200.156 11.6914L199.147 12.7812L198.731 14.6741L199.147 15.6492L198.612 16.5097L197.899 16.7391L197.187 18.1157C197.424 18.2878 197.484 18.5173 197.305 18.8041C197.187 18.9188 197.068 19.0335 196.89 19.0909L196.593 19.6645L195.761 20.869C195.702 20.9264 195.642 20.9264 195.583 20.9264V20.869H195.524C195.405 21.2706 195.286 21.5574 195.108 21.7868C195.048 21.9015 194.93 21.9015 194.692 21.8442L194.514 22.5325L193.801 22.7046L191.247 21.4427L190.95 22.4178L189.228 23.6224L187.089 23.1061L186.673 23.5076L186.97 23.9092L186.555 25.2858L184.535 27.064C184.476 27.064 184.476 27.064 184.476 27.064C184.416 27.0066 184.416 27.0066 184.357 27.0066C184.179 26.8919 184.06 26.9493 183.882 27.1787C183.882 27.2361 183.822 27.2934 183.763 27.4081C183.763 27.4655 183.763 27.5229 183.882 27.5802C183.941 27.6376 184.001 27.695 184.119 27.7523L182.991 28.8995L184.832 30.5056L186.377 30.3909L187.683 31.0792L188.396 32.3412L189.822 33.2589L191.663 33.9472L192.376 33.5457C192.554 33.6031 192.732 33.6031 192.91 33.4884C193.029 33.5457 193.148 33.5457 193.267 33.431C193.326 33.431 193.326 33.3163 193.385 33.1442L193.682 32.1691C193.682 32.1117 193.682 32.0543 193.682 32.0543C193.682 31.7102 193.86 31.7102 194.217 32.0543L195.227 31.8823L196.83 33.8325L196.949 32.8574L197.246 32.1691L198.256 31.1939V30.1041L199.087 29.7026L201.523 30.5056L202.235 31.366L202.532 32.1691V33.5457L203.067 34.4061L203.364 35.3239L202.354 36.1843L202.948 38.0772L202.354 39.3391L202.532 40.1422L201.226 41.6909L203.78 43.5838L203.958 44.5589L203.067 45.2473C203.126 45.4194 203.186 45.5341 203.245 45.7062C203.305 45.9356 203.245 45.993 203.008 45.993C202.948 45.8782 202.889 45.8782 202.77 45.993C202.592 46.1077 202.414 46.1077 202.295 45.8209C202.295 45.7635 202.235 45.7062 202.235 45.7062L201.226 46.2224L201.107 47.0255L201.82 48.0006L203.245 48.4021L203.958 51.0407L203.483 51.6143L204.789 54.3676L205.918 55.1706L206.215 55.7442L207.759 56.8341L206.809 58.4976L209.779 60.2757H211.323C211.442 60.161 211.561 60.1036 211.62 60.1036C211.798 60.1036 211.917 60.161 212.036 60.2757L213.046 59.9889L214.649 61.4803L215.897 62.3407C215.897 61.8818 215.956 61.4803 216.194 61.0214C216.372 60.6199 216.669 60.3331 217.025 60.2184C217.322 60.161 217.678 60.2757 217.975 60.6199C218.213 60.9067 218.391 61.3082 218.451 61.9392L219.639 62.0539L219.876 62.9143C220.173 63.029 220.411 63.029 220.589 62.8569C220.708 62.7422 220.767 62.6275 220.767 62.4554L219.46 61.3656L221.599 61.0788L220.886 59.8742C220.945 59.53 221.005 59.4727 221.183 59.5874C221.42 59.7595 221.599 59.8742 221.777 60.1036L222.49 59.5874H223.321L223.202 58.8991L224.45 58.0387L226.172 57.8092L226.291 56.4326V55.5722L227.598 55.859L229.736 51.1554L229.617 50.3524L228.607 49.1478L229.855 48.4021V46.796L231.28 45.7062L231.755 44.8457L230.33 44.4442L231.161 43.7559L231.577 41.9777L231.043 41.5188C230.864 41.4615 230.746 41.4041 230.686 41.2894C230.686 41.232 230.686 41.1173 230.686 41.0026C230.746 40.8879 230.746 40.8305 230.746 40.7158L229.617 39.2244L230.33 38.0772L231.755 36.5858H233.003C233.3 36.5285 233.478 36.6432 233.597 36.8726C233.597 36.9874 233.656 37.1021 233.656 37.2742C233.656 37.3889 233.656 37.4462 233.716 37.561H234.844L236.032 37.9625C236.032 37.733 236.091 37.561 236.091 37.3889C236.091 37.2168 236.032 37.0447 236.032 36.8726L237.576 35.496L238.289 36.9874C238.467 37.0447 238.705 37.1021 238.883 37.1594C239.002 37.1021 239.121 37.0447 239.239 37.1021C239.239 37.1021 239.299 37.1021 239.299 37.2742C239.299 37.3889 239.299 37.4462 239.299 37.561L240.309 37.2742L241.556 37.8478C241.675 37.561 241.793 37.4462 241.972 37.3889C242.15 37.2742 242.387 37.2742 242.625 37.3889C242.803 37.4462 242.922 37.5036 243.041 37.6757C243.1 37.6757 243.16 37.6757 243.278 37.6757C243.219 37.5036 243.219 37.3315 243.219 37.1594C243.219 37.1021 243.278 37.0447 243.397 36.9874L244.704 36.8726C244.585 36.5858 244.526 36.299 244.526 36.0122C244.526 35.9549 244.585 35.9549 244.644 36.0122C244.763 36.0696 244.882 36.1843 244.941 36.3564C245.001 36.3564 245.001 36.4137 245.001 36.4711C245.12 36.5858 245.238 36.5858 245.357 36.5285C245.476 36.4137 245.595 36.299 245.714 36.1843L245.832 34.9224C246.129 34.6929 246.426 34.5782 246.664 34.5782L246.605 34.5209C246.486 34.3488 246.426 34.2341 246.426 34.1193C246.308 34.062 246.189 34.062 246.129 34.062C246.011 34.1193 245.892 34.062 245.773 34.0046C245.654 34.0046 245.535 33.8899 245.417 33.6604C245.417 33.6604 245.417 33.6031 245.417 33.5457C245.595 33.6031 245.773 33.6031 245.951 33.5457C246.07 33.4884 246.189 33.431 246.248 33.2589L244.585 31.4807L245.12 30.7924L245.001 28.8995L245.714 27.7523L246.426 27.6376L247.139 28.3259L247.436 27.5229L248.683 27.9244C248.862 27.8097 249.04 27.6949 249.218 27.5802C249.277 27.5229 249.337 27.4655 249.277 27.4081C249.277 27.2934 249.218 27.2361 249.099 27.2361L249.812 26.5477L250.525 26.2609C250.881 26.2609 251.119 26.2036 251.356 26.0315C251.594 25.9168 251.713 25.7447 251.713 25.5726L258.246 26.6625C258.306 26.7198 258.365 26.7198 258.365 26.7198C258.543 26.7198 258.662 26.7198 258.781 26.6051C258.781 26.5477 258.781 26.4904 258.781 26.433C258.721 26.433 258.721 26.433 258.662 26.433C258.543 26.2609 258.484 26.1462 258.365 25.9741L259.256 25.8594L260.266 26.2609L261.81 25.1711V24.4828L262.523 24.196V23.2208C262.582 23.2782 262.642 23.3355 262.642 23.3929L262.82 23.565C262.879 23.5076 262.998 23.3355 262.998 23.1061C262.998 23.0487 263.057 22.9914 263.117 22.9914C263.117 22.934 263.176 22.934 263.236 22.934C263.176 23.2208 263.295 23.5076 263.473 23.7944C263.533 23.7944 263.473 23.8518 263.354 23.9092C263.533 24.0239 263.651 24.0812 263.711 24.1386L263.651 24.0812L264.542 23.3929H265.255L266.384 22.8193C266.562 22.8767 266.74 22.934 266.918 23.1061C266.978 23.1061 267.037 23.1635 267.096 23.2208C267.156 23.2208 267.156 23.2208 267.215 23.1635C267.275 23.1635 267.275 23.1061 267.334 23.0487C267.393 22.934 267.453 22.8193 267.512 22.7046C267.512 22.6472 267.512 22.5899 267.512 22.5325C267.69 22.3604 267.928 22.1883 268.165 22.0736L268.106 21.9589C268.106 21.9015 268.106 21.7868 268.106 21.7295L271.195 18.5746L271.789 18.2878L272.086 18.6893L273.214 19.263C273.571 19.3777 273.749 19.263 273.749 18.9188C273.808 18.7467 273.749 18.5746 273.63 18.4025H274.343L275.234 17.198C275.174 17.3127 275.174 17.4274 275.234 17.4848L275.293 17.4274C275.352 17.3127 275.352 17.198 275.293 17.0833C275.293 16.9685 275.234 16.9685 275.234 16.9112C275.115 16.9112 274.996 16.9112 274.937 16.9112C275.174 16.6817 275.412 16.567 275.649 16.3949L275.709 16.3376C275.709 16.2802 275.649 16.2802 275.649 16.2802C275.531 16.2802 275.471 16.2802 275.352 16.3376L276.184 15.5345C276.125 15.3624 276.006 15.3051 275.887 15.1904C275.768 15.0756 275.709 15.0183 275.709 14.9609H275.946C276.006 15.0183 276.065 15.0756 276.184 15.133C276.184 15.1904 276.184 15.1904 276.243 15.1904C276.243 15.2477 276.303 15.2477 276.362 15.2477L276.065 13.8711C275.709 13.5843 275.471 13.5843 275.293 13.8137C275.293 13.8711 275.234 13.9284 275.234 13.9858C275.055 13.9284 274.996 13.9284 274.937 13.9858C274.699 14.3299 274.521 14.3299 274.402 13.9858C274.283 13.8137 274.224 13.6416 274.224 13.4695L273.214 13.8711L271.492 13.068Z" fill="#C4DFE9" stroke="white" stroke-miterlimit="10"/>
</svg>
