<svg width="313" height="188" viewBox="0 0 313 188" fill="none" xmlns="http://www.w3.org/2000/svg">
<path d="M70.5534 165.245C70.494 165.302 70.4346 165.417 70.4346 165.589L69.306 165.991L69.7218 168.056L70.4346 168.572L70.1376 169.719L68.8903 169.834L69.7218 172.874C69.9594 172.989 70.197 173.046 70.4346 173.161L70.1376 172.3L71.7413 173.161C71.5631 173.275 71.4443 173.275 71.3849 173.39C71.3255 173.562 71.3255 173.849 71.4443 174.136L73.4044 174.652L73.1668 175.34L73.8796 175.914C73.7608 175.914 73.642 175.971 73.5826 176.029C73.5232 176.029 73.4638 176.086 73.4044 176.143V176.832L73.8796 177.118L73.5826 177.807L72.8698 177.979C72.6322 177.864 72.454 177.864 72.3353 177.864C72.2165 177.864 72.0977 177.922 72.0383 178.094C71.9789 178.094 71.9789 178.151 71.9789 178.208L71.2661 177.52L69.8406 178.897L70.5534 179.757L71.5631 179.585L72.454 180.159H73.7014L75.0081 181.535L76.0178 181.134L77.2652 182.109L78.0967 181.937L78.5719 183.199L79.5816 184.575L80.2944 183.715L81.3635 182.912L82.4327 183.313H83.1454L84.0958 182.912L85.9964 182.797L90.273 184.977L91.9361 183.313L93.2428 183.485L94.3713 184.002C94.6683 183.83 94.9059 183.715 95.0841 183.6C95.3217 183.715 95.5593 183.887 95.7969 184.002L96.9254 184.174L97.5194 185.264L102.093 186.354L102.806 185.264C102.865 185.149 103.043 185.092 103.34 185.034C103.459 184.977 103.518 184.977 103.637 184.977C103.756 185.034 103.934 185.092 104.053 185.264L104.766 186.354L105.36 186.927L107.201 187.042L107.498 185.264H108.923L109.517 183.485L110.052 184.002L112.072 183.485L112.606 182.912L113.319 183.027L113.2 182.224L114.626 180.847L115.635 180.56L115.22 179.585L116.051 178.208L116.883 178.38L116.467 177.405L117.477 176.717L117.595 175.455L119.615 175.627L120.209 176.315L121.753 176.832L122.169 177.405L123.179 177.979H124.485V176.717L125.02 175.742L124.307 174.939L125.436 174.25L125.911 173.849L126.624 174.136L126.03 173.275L125.317 172.874L126.03 171.899L125.911 171.497L127.336 168.859L126.327 167.883L124.604 168.744L123.594 168.342L123.06 168.572L122.169 168.17H121.456L121.04 167.195L122.882 164.04L124.307 163.065H123.297L122.882 162.664L122.347 163.065C122.228 163.065 122.11 163.008 122.05 162.95C121.991 162.95 121.931 162.95 121.872 162.95C121.872 163.008 121.813 163.065 121.753 163.065L119.199 161.459H119.08C119.08 161.574 119.08 161.688 119.08 161.803C119.021 161.861 119.021 161.918 118.961 161.861C118.961 161.861 118.902 161.803 118.902 161.688L115.635 157.731L114.744 158.132L113.616 157.042V155.952C113.556 155.78 113.497 155.723 113.438 155.666C113.259 155.666 113.081 155.666 112.903 155.608C112.844 155.666 112.784 155.666 112.784 155.666L111.656 154.69L112.19 154.117L111.893 151.937C111.893 152.052 111.893 152.109 111.893 152.224C111.834 152.396 111.775 152.511 111.656 152.511C111.478 152.453 111.359 152.396 111.24 152.281C111.181 152.224 111.121 152.167 111.062 152.052L111.359 151.364L110.468 150.847L109.517 150.561L109.339 152.511C109.28 152.511 109.22 152.511 109.22 152.511C109.161 152.511 109.102 152.511 109.042 152.511C108.923 152.511 108.805 152.568 108.686 152.683C108.567 152.74 108.567 152.798 108.567 152.912C108.627 153.027 108.686 153.199 108.805 153.314L107.795 153.429C107.795 153.658 107.736 153.83 107.676 154.002C107.617 154.002 107.617 154.002 107.498 154.002L106.369 154.576L105.478 155.092L104.053 155.666V154.805L105.241 154.576L106.072 153.314L106.191 152.339L106.785 151.822L106.369 150.847L105.241 150.962L104.528 150.159V148.782L105.36 147.693L104.35 146.431L103.518 146.316L103.103 145.341L103.34 143.964L102.924 143.104L102.093 142.702L99.6576 143.563L98.5291 143.104L95.7969 143.677L95.9751 146.029L96.3908 146.431V148.094L94.7871 148.782C94.6683 148.782 94.5495 148.725 94.4307 148.668C94.3714 148.61 94.2526 148.496 94.2526 148.381C94.2526 148.553 94.1932 148.61 94.1338 148.668C93.9556 148.725 93.7774 148.725 93.5398 148.61C93.421 148.61 93.3616 148.61 93.2428 148.61L92.2331 148.897L92.6489 150.675C92.7676 150.675 92.8864 150.675 92.9458 150.675L93.124 150.618C92.8864 150.733 92.6488 150.847 92.4113 150.962L92.1143 150.274L90.8076 149.987C90.7482 149.987 90.7482 149.987 90.6888 150.044C90.57 150.159 90.5106 150.216 90.4512 150.216C90.273 150.331 90.1542 150.331 89.976 150.331C89.8572 150.331 89.7978 150.331 89.679 150.331C89.6196 150.331 89.5602 150.216 89.5602 150.159L88.1347 149.872C87.7189 150.044 87.422 149.987 87.2438 149.643C87.125 149.585 87.125 149.471 87.125 149.299L84.6897 149.585L83.8582 150.847L84.0958 151.364L83.5612 152.511L83.68 153.887C83.5612 154.174 83.383 154.404 83.0266 154.576C83.0266 154.576 82.9672 154.576 82.8484 154.518C82.789 154.461 82.7296 154.461 82.6702 154.404L81.1259 154.69L79.8192 155.264L79.2846 155.78L78.0967 155.264L77.2652 154.404L76.2554 155.952L75.0081 155.494L74.1172 154.002L73.9984 155.78C73.939 155.838 73.8796 155.895 73.8796 155.952C73.7608 156.067 73.642 156.125 73.4044 156.067C73.345 156.067 73.2856 156.125 73.2262 156.239C73.1074 156.354 73.048 156.469 72.9886 156.583C72.9292 156.641 72.9292 156.755 73.048 156.87C73.048 156.928 73.1074 156.985 73.1668 157.042L72.6916 157.444L71.9789 158.82L71.7413 161.287L71.9789 161.861C71.6819 162.033 71.3849 162.262 71.2067 162.492C71.1473 162.549 71.2067 162.664 71.2661 162.836L71.5631 164.04L71.1473 164.327V165.015C70.9097 165.073 70.7316 165.13 70.5534 165.245Z" fill="#B4FF00" stroke="white" stroke-miterlimit="10"/>
</svg>
