<svg width="313" height="188" viewBox="0 0 313 188" fill="none" xmlns="http://www.w3.org/2000/svg">
<path d="M48.6955 102.265L47.9827 101.806L45.6663 99.626V101.289L44.8347 100.716C44.7159 100.831 44.5971 100.888 44.5377 101.003C44.3001 101.117 44.1814 101.117 44.122 100.888C44.122 100.831 44.122 100.773 44.122 100.773C44.2407 100.601 44.122 100.429 43.9438 100.2H43.825C43.6468 100.2 43.4686 100.257 43.231 100.314C43.231 100.257 43.231 100.2 43.231 100.2L43.1122 100.028C42.8746 100.257 42.6964 100.544 42.5776 100.888V101.978L42.934 102.953H42.8746C42.637 103.068 42.4589 103.182 42.2807 103.354C42.1025 103.469 41.9837 103.584 41.7461 103.641C41.2709 103.928 41.2115 104.33 41.6867 104.846H38.4199L36.4004 104.444L35.8658 104.157C35.2125 104.502 34.8561 104.387 34.8561 103.756L33.8464 104.043L33.4306 105.706H32.1239L31.7081 107.083L28.0255 106.624L27.4315 106.222L26.6 106.509C26.5406 106.567 26.4812 106.624 26.4218 106.624C26.3624 106.739 26.2436 106.853 26.1842 106.911C26.1248 107.025 26.0654 107.083 26.006 107.083C25.709 107.083 25.4121 107.025 25.1745 106.911L21.7295 110.524L21.4325 111.328L21.3137 112.303H19.5912L18.7597 112.819V114.081L18.0469 115.056L15.6116 116.146L13.1764 115.343L12.6418 115.859C12.4636 115.802 12.3448 115.802 12.2854 115.859C11.9291 116.088 11.9291 116.318 12.3448 116.547L14.0673 116.433L13.1764 117.121L13.3546 117.809L12.1666 119.702L12.3448 120.964L14.8989 121.538L14.4831 122.628L14.3049 123.832L13.1764 123.431L13.0576 125.496H13.4734L14.4831 126.93L15.3147 127.044L15.6116 127.733L16.0274 127.962L16.3244 128.65L17.0372 129.339C16.9778 129.568 17.0372 129.798 17.0966 129.97C17.1559 130.084 17.2747 130.142 17.4529 130.199C17.5123 130.199 17.5717 130.199 17.5717 130.199C17.7499 130.429 17.8687 130.371 17.8687 130.199L18.5221 131.002L18.4033 131.691L18.9972 132.551V133.928L20.6603 135.304L21.2543 135.993L22.3828 136.222L23.3926 136.796L25.1151 137.369L24.8181 138.287C24.8775 138.23 24.9963 138.172 25.1151 138.23C25.2339 138.115 25.3527 138.172 25.4715 138.23C25.5902 138.402 25.709 138.516 25.7684 138.746C26.006 139.549 26.4218 140.295 26.8376 141.04C27.0752 141.327 27.2534 141.614 27.3721 141.901L28.2631 141.327L28.3819 142.302L31.1141 142.417L32.2427 143.564C32.3021 143.564 32.4208 143.621 32.4208 143.564C32.5396 143.507 32.6584 143.449 32.7178 143.392L32.7772 143.335C32.6584 143.564 32.7178 143.794 32.9554 143.966L34.2027 144.654L34.4997 145.859V146.834L35.3907 147.407H37.232L37.3508 148.899L38.2417 148.612L39.3108 147.924L39.786 147.407L40.7958 147.924L42.2213 147.407L42.0431 146.547L42.5182 146.031L43.0528 145.859L42.0431 142.589L42.5776 140.926L43.9438 141.901L44.8941 140.811L46.3196 141.729C46.4978 141.729 46.6166 141.729 46.7948 141.729C46.7948 141.729 46.8542 141.671 46.9136 141.614H46.973C47.0324 141.212 47.1512 140.811 47.2106 140.352L49.3488 140.237L49.4676 137.369L49.8834 136.509L50.7744 136.107L51.4871 124.52L53.3284 123.316L53.9224 120.563L55.1697 120.39L58.6147 120.677L60.8718 119.587L58.3177 116.834L56.8922 114.482L57.011 112.819L56.4764 111.614L56.5952 110.066L55.7637 109.148L53.4472 108.287H52.4969L52.9126 106.911C52.9126 106.853 52.972 106.796 52.972 106.739C53.0314 106.681 53.0908 106.624 53.0908 106.567C53.2096 106.337 53.3284 106.165 53.4472 105.936L53.2096 104.731L52.6157 104.33V103.641L51.5465 102.838C51.4871 102.896 51.4277 103.01 51.3089 103.068C50.7744 103.068 50.4774 103.068 50.2992 103.125C50.2398 103.125 50.121 103.125 50.0616 103.125C49.5864 103.125 49.2301 102.953 48.9331 102.723C48.7549 102.666 48.6955 102.494 48.6955 102.265Z" fill="#B4FF00" stroke="white" stroke-miterlimit="10"/>
</svg>
