<svg width="313" height="188" viewBox="0 0 313 188" fill="none" xmlns="http://www.w3.org/2000/svg">
<path d="M19.7099 75.247L19.1159 74.9602L18.2844 74.7307L18.4032 76.6236L18.1062 77.8855L17.0964 78.5739L18.1062 79.3769L19.2347 83.5069L18.9971 84.482L18.2844 85.1703H17.0964L16.9777 87.35C16.9183 87.35 16.8589 87.35 16.8589 87.4074C16.7995 87.4074 16.7401 87.4647 16.7401 87.5221C16.7401 87.5795 16.7995 87.6942 16.8589 87.8089H15.9679L16.3837 89.5871L17.2746 89.3003L17.6904 91.2505C17.5716 91.3079 17.3934 91.3653 17.2746 91.48C17.0964 91.5947 17.0964 91.8242 17.2746 92.0536C17.334 92.2257 17.3934 92.283 17.5716 92.3404V92.1683L17.6904 92.3404L20.2445 92.0536L20.8384 92.7419C20.8384 92.9714 20.779 93.2008 20.6602 93.3729C20.6602 93.4302 20.5414 93.4302 20.3633 93.4302C20.0663 93.4876 19.7693 93.6023 19.6505 93.7744C19.4723 93.9465 19.4129 94.2333 19.4129 94.5201L18.2844 95.0937L17.6904 95.6099L18.522 97.1587L18.9971 96.9866L20.0663 98.1338L18.2844 98.5353L16.2649 99.6252C16.3837 99.7973 16.5025 99.912 16.6807 99.912C16.9183 99.8546 17.1558 99.7399 17.4528 99.5678C17.4528 99.5105 17.5122 99.5105 17.5716 99.5105L18.522 100.715L19.5317 101.403L18.1062 101.977V102.092L17.9874 101.977H15.5521L15.1364 101.289L13.2951 101.575L12.9981 101.002L11.8696 101.117C11.929 101.289 11.8696 101.461 11.7508 101.575C11.6914 101.633 11.6914 101.575 11.5726 101.518C11.4538 101.461 11.2756 101.346 11.1568 101.289L9.73128 101.002L9.4343 100.428L8.72154 101.977L8.42456 103.64C8.24637 103.583 8.06818 103.64 7.7118 103.812C7.47422 103.927 7.23663 104.157 7.11784 104.443C7.05844 104.558 6.99904 104.616 6.99904 104.73L6.16749 105.017H4.97957L3.31646 107.197L2.42552 107.885L2.30672 108.459L1.71276 109.147C1.47517 109.147 1.29698 109.262 1.17819 109.319C1.0594 109.376 1 109.434 1 109.549C1 109.606 1.0594 109.721 1.17819 109.835L1.29698 109.95H1.17819L3.73224 110.352L5.69232 109.663L6.16749 109.262L7.8306 109.663L9.01853 109.549L9.25611 110.352L10.2659 110.925L11.5726 112.015L11.1568 112.99L10.9786 114.195L9.85008 114.482L9.73128 115.743C9.96887 115.743 10.1471 115.858 10.2065 116.03C10.3252 116.145 10.3252 116.317 10.2659 116.547L9.96887 117.522L11.1568 118.612V119.472C11.2756 119.415 11.335 119.644 11.3944 119.988L12.1071 119.701L13.2951 117.808L13.1169 117.12L14.0078 116.432L12.2853 116.547C11.8696 116.317 11.8696 116.088 12.2259 115.858C12.2853 115.801 12.4041 115.801 12.5823 115.858L13.1169 115.342L15.5521 116.145L17.9874 115.055L18.7002 114.08V112.818L19.5317 112.302H21.2542L21.373 111.327L21.67 110.524L25.115 106.91C25.3526 107.025 25.6495 107.082 25.9465 107.082C26.0059 107.082 26.0653 107.025 26.1247 106.91C26.1841 106.853 26.3029 106.738 26.3623 106.623C26.4217 106.623 26.4811 106.566 26.5405 106.508L27.372 106.222L27.966 106.623L31.6486 107.082L32.0644 105.705H33.3711L33.7869 104.042L34.7966 103.755C34.7966 104.386 35.153 104.501 35.8063 104.157L36.3409 104.443L38.3604 104.845H41.6272C41.152 104.329 41.2114 103.927 41.6866 103.64C41.9242 103.583 42.043 103.468 42.2212 103.354C42.3994 103.182 42.5775 103.067 42.8151 102.952H42.8745L42.5181 101.977V100.887C42.6369 100.543 42.8151 100.256 43.0527 100.027L43.1715 100.199C43.1715 100.199 43.1715 100.256 43.1715 100.314C43.4091 100.256 43.5873 100.199 43.7655 100.199H43.8843C44.0625 100.428 44.1812 100.6 44.0625 100.772C44.0625 100.772 44.0625 100.83 44.0625 100.887C44.1218 101.117 44.2406 101.117 44.4782 101.002C44.5376 100.887 44.6564 100.83 44.7752 100.715L45.6068 101.289V99.6252L45.785 98.6501L49.4675 98.1338L49.8833 97.9617L50.7743 98.6501L51.9028 97.847L52.0216 95.8967L52.6155 95.6099L52.0216 95.2084L51.487 93.3155L51.6058 92.8566L51.487 92.1683L52.1998 91.3653L52.4968 89.415L52.1998 84.8835L52.9125 84.5967L52.6155 83.5069L53.6253 82.5317L55.4666 82.417L56.4763 81.614L51.784 78.0003L52.6155 77.3119L52.0216 77.0251L51.0712 74.7307L49.7645 74.4439L49.4675 74.8454L48.933 74.9602L47.745 76.1074L45.3692 76.6236H45.0722L45.191 76.5089V76.3368L45.3692 76.5089L45.488 76.1074L45.6068 75.9353V75.8206V75.6485H45.785L45.6068 75.5338H45.785L45.9037 75.1322V74.9602L46.4977 73.7556L45.6068 72.8952L43.3497 74.7307L42.5181 74.9602L42.2212 75.419L41.0926 76.1074L40.4987 76.6236L40.0829 75.6485L39.1919 75.419C39.1325 75.419 39.0138 75.4764 39.0138 75.4764V75.419C38.9544 75.0175 38.895 74.9028 38.7762 74.9602C38.3604 74.9602 38.1228 75.0749 38.2416 75.419L37.0537 74.8454L36.1033 73.0673L34.7966 73.8703L34.2026 73.3541L33.6681 73.7556L30.5201 74.5586L30.1043 75.419L29.8073 74.8454L28.3818 74.5586L27.372 73.7556L27.0751 72.7805L26.1247 73.182L23.9864 74.4439L23.8083 75.1322L21.1354 74.9602L20.3633 76.1074L19.7099 75.247Z" fill="#B4FF00" stroke="white" stroke-miterlimit="10"/>

</svg>
