<svg width="313" height="188" viewBox="0 0 313 188" fill="none" xmlns="http://www.w3.org/2000/svg">
<path d="M179.189 60.9639L176.457 62.4552L174.913 61.6522L174.675 63.5451L172.359 66.4705L168.676 64.6923L167.013 65.6101L167.132 66.9867L166.3 66.5852L165.469 66.6999L164.875 69.2238L167.013 71.4035L167.726 70.7152L168.736 70.0268C168.795 70.1416 168.973 70.1989 169.092 70.3136C169.092 70.371 169.211 70.3136 169.27 70.3136C169.389 70.2563 169.508 70.1989 169.567 70.1415L169.983 70.6004L170.458 70.0268L170.993 70.4284L169.092 73.1817C169.27 73.3537 169.448 73.5258 169.627 73.6979C170.28 74.1568 170.993 74.673 171.646 75.1893C171.765 75.304 171.884 75.4187 172.003 75.5334C172.24 75.9923 172.418 76.4512 172.596 76.9675C172.656 77.0248 172.596 77.0822 172.596 77.1969C173.725 77.8852 174.854 78.6309 175.982 79.3766C176.041 79.434 176.101 79.434 176.16 79.4913C176.517 79.6634 176.932 79.9502 177.289 80.3517C177.348 80.3517 177.348 80.3517 177.408 80.3517C177.586 80.4091 177.705 80.4664 177.823 80.4664C178.417 80.6959 178.893 81.0401 179.249 81.4416C179.486 81.671 179.665 81.9005 179.783 82.0725C179.902 82.2446 180.08 82.4167 180.199 82.5888C180.259 82.6461 180.259 82.7609 180.259 82.8182L181.387 85.2847L180.08 88.7264L184.238 90.7913L185.248 93.4299L182.813 96.9863L183.11 98.2482L184.951 102.378L185.664 102.665L184.951 104.73L186.852 106.393V107.311L185.545 108.172L185.664 109.261L187.386 109.147L187.98 110.638L186.673 111.326L186.139 112.302L184.713 113.391L184.951 114.367L185.961 115.571H183.525L182.694 116.259L180.674 117.235L182.397 118.496L182.278 116.833C182.397 116.776 182.456 116.776 182.575 116.833C182.753 116.948 182.872 117.062 182.991 117.235C183.169 117.349 183.288 117.464 183.466 117.636C183.525 117.693 183.525 117.808 183.525 117.923L183.822 119.013L184.832 120.389C185.01 120.504 185.189 120.561 185.426 120.561C185.426 120.561 185.486 120.504 185.545 120.389V119.3L189.109 120.963L190.118 119.3C190.178 119.357 190.297 119.414 190.415 119.472C190.415 119.472 190.475 119.529 190.534 119.529C190.653 119.529 190.772 119.472 190.772 119.357C190.831 119.3 190.891 119.185 190.891 119.07C190.95 118.955 191.009 118.841 191.069 118.726C191.069 118.669 191.128 118.554 191.128 118.496L192.969 118.783L194.098 120.389L196.533 120.676L196.949 119.3L200.394 118.095L199.681 114.194L201.82 111.613C201.82 111.613 201.879 111.613 201.938 111.613C202.176 111.671 202.414 111.785 202.592 111.957C202.651 111.957 202.711 112.015 202.829 112.072C203.067 112.187 203.304 112.129 203.601 112.072C204.374 111.9 205.146 111.613 205.799 111.154C205.977 111.04 206.096 110.868 206.215 110.638L207.759 110.925L208.65 110.638L210.373 111.613L212.333 110.925L214.352 108.975V108.172L213.224 107.77L214.174 107.885L213.936 106.623V105.131L213.461 104.328C213.342 104.214 213.283 104.099 213.283 104.042C213.283 103.64 213.402 103.353 213.639 103.066C213.639 103.009 213.758 103.009 213.936 103.066L214.174 102.263L215.6 101.575L215.778 102.78L218.035 102.665C217.975 102.436 217.916 102.263 217.916 102.149C217.975 102.034 218.035 101.977 218.213 101.977L219.46 101.116L219.639 100.428L220.351 100.887L219.639 99.6249C219.698 99.5101 219.757 99.3381 219.757 99.2233C219.757 99.1086 219.757 99.0513 219.698 98.9365C219.698 98.8218 219.698 98.6497 219.698 98.535C219.698 98.3056 219.698 98.1335 219.698 97.9614C219.757 97.732 219.817 97.5599 219.995 97.4452C220.173 97.2731 220.351 97.1584 220.589 97.1584L220.351 96.298L219.757 95.3802L221.777 93.5446H222.608L224.034 92.8563L225.578 89.8736L226.053 90.2751L226.291 89.7015L227.301 88.6116C227.36 88.6116 227.36 88.6116 227.36 88.6116C227.598 86.2599 227.598 83.9654 227.36 81.6137C227.122 79.0898 226.766 76.5659 226.172 73.9847C226.172 73.9274 226.172 73.8126 226.172 73.7553C226.232 73.6405 226.232 73.5832 226.291 73.4685L226.766 72.8949L226.053 72.4933L225.756 71.002L226.172 67.8471L225.162 66.6999L224.034 66.1837L220.173 66.6999L219.163 66.069L218.451 61.939C218.391 61.308 218.213 60.9065 217.975 60.6197C217.678 60.2755 217.322 60.1608 217.025 60.2182C216.669 60.3329 216.372 60.6197 216.194 61.0212C215.956 61.4801 215.897 61.8816 215.897 62.3405L215.362 63.0288L213.758 63.3157L213.342 65.4954C213.105 65.4954 212.986 65.6101 212.867 65.7248C212.689 65.8969 212.57 66.069 212.57 66.3558C212.57 66.3558 212.57 66.4131 212.63 66.4705C212.749 66.4705 212.808 66.5278 212.808 66.5852C212.749 66.9867 212.57 67.3882 212.273 67.7898C212.214 67.7898 212.155 67.8471 212.036 67.8471H210.907L211.085 68.937L204.492 72.3786L204.195 73.87L203.364 74.8451L201.938 74.9598L201.226 76.5086L200.513 77.1969L198.078 77.4837V76.6233L196.117 76.2218L193.979 73.5832L194.514 71.9771L193.801 69.74L192.673 69.4532L191.247 68.5355L190.95 67.6751C190.772 67.503 190.594 67.3309 190.415 67.1588L190.237 65.4954L185.426 66.6999L186.852 68.2487L185.842 69.0517L182.694 67.9619L181.565 67.2735L181.15 66.5852L181.565 64.9217L180.674 61.6522L179.189 60.9639Z" fill="#C4DFE9" stroke="white" stroke-miterlimit="10"/>
<path d="M184.892 104.732L183.941 104.043L183.347 104.445L179.902 106.108L179.724 107.6L177.526 107.084L174.913 105.42L173.19 108.862L171.527 108.173L170.399 108.575C169.686 107.944 168.914 107.37 168.082 106.854C167.607 106.51 167.191 106.166 166.776 105.879C166.36 105.535 166.003 105.191 165.706 104.847C165.409 104.56 165.172 104.273 164.994 103.986C164.519 103.126 163.984 102.265 163.509 101.405C163.449 101.29 163.39 101.175 163.39 101.003C163.271 100.602 163.152 100.2 163.034 99.7988C162.796 99.2826 162.618 98.8237 162.321 98.4222C162.083 98.0206 161.786 97.6765 161.549 97.2749L160.836 98.1353L157.807 97.447L156.381 101.577L154.243 101.003L151.986 102.954L149.848 103.355L149.135 104.33L148.244 103.068L148.957 100.717L150.56 99.0531L146.997 96.2998L145.393 96.4719L144.146 99.2252L143.849 98.6516L142.007 98.8237L140.701 100.315L139.275 100.717L138.859 101.692L137.553 102.782L132.444 100.717L133.276 102.38L132.86 103.068V104.043L132.147 105.133C132.088 105.305 132.088 105.42 132.029 105.535C131.969 106.281 132.029 106.969 132.266 107.657C132.504 108.231 132.623 108.804 132.623 109.435C132.623 109.493 132.623 109.607 132.623 109.665C132.563 109.894 132.563 110.124 132.563 110.353C132.504 110.583 132.504 110.812 132.444 111.041C132.326 111.271 132.266 111.5 132.088 111.73C131.791 112.131 131.553 112.59 131.316 113.049C131.078 113.393 130.959 113.795 130.9 114.196V116.835L132.029 117.925L133.157 120.276C133.157 120.506 133.217 120.735 133.217 120.965C133.217 121.022 133.217 121.08 133.276 121.137C133.335 121.366 133.395 121.653 133.454 121.94C133.454 122.055 133.514 122.169 133.632 122.341C133.811 122.686 133.989 123.087 134.167 123.489C134.286 123.948 134.286 124.349 134.226 124.808C134.108 125.152 133.989 125.496 133.751 125.783C133.573 126.07 133.395 126.357 133.276 126.586C133.038 126.93 132.801 127.217 132.504 127.504C132.385 127.676 132.207 127.848 132.029 127.963L130.306 128.651L128.881 128.536L127.871 129.798L127.455 130.659C127.633 130.946 127.752 131.232 127.93 131.519C127.99 131.634 128.049 131.806 128.168 131.863C128.287 132.15 128.465 132.38 128.643 132.666C128.821 133.011 128.999 133.412 128.999 133.814C129.118 134.674 129.237 135.534 129.415 136.337C129.475 136.796 129.653 137.313 129.89 137.714C130.009 137.886 130.069 138.058 130.069 138.23C130.247 138.804 130.306 139.378 130.306 139.951C130.306 140.295 130.247 140.639 130.128 140.926C130.128 141.098 130.069 141.213 130.009 141.328C129.772 141.729 129.534 142.073 129.296 142.418C129.118 142.762 128.94 143.106 128.821 143.45C128.643 143.737 128.584 144.081 128.643 144.368C128.643 144.999 128.702 145.572 128.821 146.146C128.94 146.548 128.94 146.949 128.999 147.408C128.999 147.637 128.999 147.924 128.999 148.211L130.187 149.875L129.593 153.316H128.584L128.168 152.915C127.93 152.456 127.693 152.513 127.514 152.972C127.455 153.144 127.515 153.374 127.574 153.603C127.752 153.89 127.811 154.234 127.93 154.578C127.93 154.635 127.93 154.75 127.871 154.808H126.861L126.445 155.496L125.911 155.783L125.436 156.758L127.752 155.783L127.574 157.331C127.336 157.446 127.039 157.561 126.742 157.733C126.624 157.905 126.445 158.077 126.327 158.249L126.148 160.773L125.02 163.067H124.307L122.882 164.043L121.04 167.197L121.456 168.173H122.169L123.06 168.574L123.594 168.345L124.604 168.746L126.327 167.886L127.336 168.861L125.911 171.499L126.03 171.901L125.317 172.876L126.03 173.278L126.624 174.138L125.911 173.851L125.436 174.253L124.307 174.941L125.02 175.744C125.198 175.974 125.317 176.088 125.376 175.974C125.97 176.146 126.564 176.146 127.158 176.031C127.336 175.974 127.336 175.916 127.158 175.916C127.039 175.629 127.039 175.457 127.158 175.343C127.218 175.4 127.277 175.515 127.396 175.572C127.455 175.629 127.574 175.687 127.752 175.744L128.999 174.54L132.86 174.769C132.979 174.998 133.098 175.171 133.335 175.285C133.514 175.285 133.573 175.343 133.573 175.285C133.632 174.826 133.573 174.31 133.454 173.851L133.989 172.991L136.84 172.876L136.602 170.41L138.265 168.058H139.869L140.404 170.41C140.701 170.467 140.998 170.582 141.235 170.696C141.294 170.696 141.294 170.754 141.294 170.811C141.888 170.811 142.245 170.811 142.245 170.696C142.423 170.18 143.195 170.123 144.621 170.41C145.274 170.524 145.987 170.582 146.7 170.696C146.818 170.696 146.878 170.696 146.997 170.696L147.531 171.327L146.818 169.549L150.679 167.083L151.392 168.173L153.114 167.484L155.55 165.132V164.329L156.262 163.756L158.222 162.838L157.51 161.576C157.629 161.347 157.688 161.117 157.747 160.888C157.807 160.83 157.807 160.773 157.807 160.773L159.945 159.224L163.093 159.511L164.815 158.249L165.944 158.823L166.538 158.249L163.687 153.316L166.063 150.563L164.519 147.924L167.667 147.007L168.676 147.695L172.24 145.171L173.963 146.318L174.794 145.745L175.21 144.368L175.923 143.278L175.388 141.901L175.923 140.525C175.923 140.353 175.923 140.238 175.863 140.123C175.863 139.836 175.804 139.55 175.685 139.32C175.566 139.091 175.507 138.919 175.329 138.747C175.15 138.575 174.913 138.402 174.675 138.23C174.26 137.944 173.903 137.599 173.487 137.255L172.062 137.542L170.399 135.821L175.626 132.781L177.942 134.731L179.902 132.265C180.021 132.15 180.14 132.093 180.14 131.978C180.199 131.691 180.14 131.404 180.021 131.175L180.199 129.339L179.724 128.938L181.09 124.808L179.189 123.145L183.466 117.925C183.466 117.81 183.466 117.695 183.407 117.638C183.228 117.466 183.11 117.351 182.931 117.236C182.813 117.064 182.694 116.95 182.516 116.835C182.397 116.778 182.337 116.778 182.219 116.835L182.337 118.498L180.674 117.236L182.694 116.261L183.525 115.573H185.961L184.951 114.368L184.713 113.393L186.139 112.303L186.673 111.328L187.98 110.64L187.386 109.149L185.664 109.263L185.545 108.173L186.852 107.313V106.395L184.892 104.732Z" fill="#C4DFE9" stroke="white" stroke-miterlimit="10"/>
<path d="M271.492 13.068L270.66 13.8711L269.888 13.9858L269.769 13.8711H268.581L267.037 14.9609L266.027 14.6741L265.314 15.133C265.671 15.133 265.671 15.2477 265.374 15.3624C265.374 15.3051 265.374 15.2477 265.314 15.133L264.305 15.2477L263.236 15.133L262.642 17.198L262.404 16.9112L261.81 16.6244L259.969 16.7391L258.127 16.0508L256.405 13.5843L255.692 13.4695V12.8959L255.514 12.0929L253.97 9.74111V9.05278L253.554 8.47918L252.544 5.89795C252.425 5.43907 252.188 5.38171 251.831 5.78323C251.772 5.84059 251.713 5.95531 251.653 6.01267C251.653 6.07003 251.594 6.1274 251.534 6.18476L249.812 5.89795L248.565 3.14465L247.852 2.57104L247.436 2.74313L245.417 1.19439C245.298 1.19439 245.179 1.13703 245.06 1.07967C244.941 1.02231 244.823 1.02231 244.763 1.13703C244.644 1.19439 244.585 1.25175 244.526 1.30911C244.526 1.36647 244.466 1.36647 244.407 1.36647L244.288 2.57104L242.981 2.45632L242.566 2.74313L241.853 2.57104H239.833L239.299 4.92282L236.151 4.11978L235.141 4.63602L233.894 5.03755C233.894 5.55379 233.656 5.66851 233.24 5.43907C233.062 5.38171 232.884 5.32435 232.706 5.32435L231.874 6.18476L230.864 7.38933L229.974 7.10252L229.558 5.72587L228.37 5.03755L227.835 5.32435L226.41 4.8081L224.806 5.49643L224.747 5.61115C224.568 5.49643 224.509 5.38171 224.39 5.20963H223.44L222.905 4.11978L222.014 3.14465L219.639 3.43145L219.045 2.57104C218.866 2.51368 218.807 2.45632 218.807 2.39896C218.688 2.11216 218.688 1.88272 218.748 1.59592C218.569 1.768 218.332 1.82536 218.154 1.88272C218.094 1.94008 218.094 1.94008 218.035 1.88272L213.639 2.57104L212.749 2.45632L211.204 2.97257L209.898 3.14465L208.591 3.66089L208.175 4.2345L206.868 4.63602L205.146 4.11978C204.908 4.5213 204.671 4.8081 204.433 5.03755C204.374 5.09491 204.314 5.09491 204.195 4.98019C204.136 4.92283 204.017 4.8081 203.958 4.8081C203.78 4.75074 203.601 4.75074 203.423 4.8081L203.305 4.92282L203.423 6.29948L203.305 7.79085L201.463 9.4543L201.76 10.1426L200.869 10.4294L200.156 11.6914L199.147 12.7812L198.731 14.6741L199.147 15.6492L198.612 16.5097L197.899 16.7391L197.187 18.1157C197.424 18.2878 197.484 18.5173 197.305 18.8041C197.187 18.9188 197.068 19.0335 196.89 19.0909L196.593 19.6645L195.761 20.869C195.702 20.9264 195.642 20.9264 195.583 20.9264V20.869H195.524C195.405 21.2706 195.286 21.5574 195.108 21.7868C195.048 21.9015 194.93 21.9015 194.692 21.8442L194.514 22.5325L193.801 22.7046L191.247 21.4427L190.95 22.4178L189.228 23.6224L187.089 23.1061L186.673 23.5076L186.97 23.9092L186.555 25.2858L184.535 27.064C184.476 27.064 184.476 27.064 184.476 27.064C184.416 27.0066 184.416 27.0066 184.357 27.0066C184.179 26.8919 184.06 26.9493 183.882 27.1787C183.882 27.2361 183.822 27.2934 183.763 27.4081C183.763 27.4655 183.763 27.5229 183.882 27.5802C183.941 27.6376 184.001 27.695 184.119 27.7523L182.991 28.8995L184.832 30.5056L186.377 30.3909L187.683 31.0792L188.396 32.3412L189.822 33.2589L191.663 33.9472L192.376 33.5457C192.554 33.6031 192.732 33.6031 192.91 33.4884C193.029 33.5457 193.148 33.5457 193.267 33.431C193.326 33.431 193.326 33.3163 193.385 33.1442L193.682 32.1691C193.682 32.1117 193.682 32.0543 193.682 32.0543C193.682 31.7102 193.86 31.7102 194.217 32.0543L195.227 31.8823L196.83 33.8325L196.949 32.8574L197.246 32.1691L198.256 31.1939V30.1041L199.087 29.7026L201.523 30.5056L202.235 31.366L202.532 32.1691V33.5457L203.067 34.4061L203.364 35.3239L202.354 36.1843L202.948 38.0772L202.354 39.3391L202.532 40.1422L201.226 41.6909L203.78 43.5838L203.958 44.5589L203.067 45.2473C203.126 45.4194 203.186 45.5341 203.245 45.7062C203.305 45.9356 203.245 45.993 203.008 45.993C202.948 45.8782 202.889 45.8782 202.77 45.993C202.592 46.1077 202.414 46.1077 202.295 45.8209C202.295 45.7635 202.235 45.7062 202.235 45.7062L201.226 46.2224L201.107 47.0255L201.82 48.0006L203.245 48.4021L203.958 51.0407L203.483 51.6143L204.789 54.3676L205.918 55.1706L206.215 55.7442L207.759 56.8341L206.809 58.4976L209.779 60.2757H211.323C211.442 60.161 211.561 60.1036 211.62 60.1036C211.798 60.1036 211.917 60.161 212.036 60.2757L213.046 59.9889L214.649 61.4803L215.897 62.3407C215.897 61.8818 215.956 61.4803 216.194 61.0214C216.372 60.6199 216.669 60.3331 217.025 60.2184C217.322 60.161 217.678 60.2757 217.975 60.6199C218.213 60.9067 218.391 61.3082 218.451 61.9392L219.639 62.0539L219.876 62.9143C220.173 63.029 220.411 63.029 220.589 62.8569C220.708 62.7422 220.767 62.6275 220.767 62.4554L219.46 61.3656L221.599 61.0788L220.886 59.8742C220.945 59.53 221.005 59.4727 221.183 59.5874C221.42 59.7595 221.599 59.8742 221.777 60.1036L222.49 59.5874H223.321L223.202 58.8991L224.45 58.0387L226.172 57.8092L226.291 56.4326V55.5722L227.598 55.859L229.736 51.1554L229.617 50.3524L228.607 49.1478L229.855 48.4021V46.796L231.28 45.7062L231.755 44.8457L230.33 44.4442L231.161 43.7559L231.577 41.9777L231.043 41.5188C230.864 41.4615 230.746 41.4041 230.686 41.2894C230.686 41.232 230.686 41.1173 230.686 41.0026C230.746 40.8879 230.746 40.8305 230.746 40.7158L229.617 39.2244L230.33 38.0772L231.755 36.5858H233.003C233.3 36.5285 233.478 36.6432 233.597 36.8726C233.597 36.9874 233.656 37.1021 233.656 37.2742C233.656 37.3889 233.656 37.4462 233.716 37.561H234.844L236.032 37.9625C236.032 37.733 236.091 37.561 236.091 37.3889C236.091 37.2168 236.032 37.0447 236.032 36.8726L237.576 35.496L238.289 36.9874C238.467 37.0447 238.705 37.1021 238.883 37.1594C239.002 37.1021 239.121 37.0447 239.239 37.1021C239.239 37.1021 239.299 37.1021 239.299 37.2742C239.299 37.3889 239.299 37.4462 239.299 37.561L240.309 37.2742L241.556 37.8478C241.675 37.561 241.793 37.4462 241.972 37.3889C242.15 37.2742 242.387 37.2742 242.625 37.3889C242.803 37.4462 242.922 37.5036 243.041 37.6757C243.1 37.6757 243.16 37.6757 243.278 37.6757C243.219 37.5036 243.219 37.3315 243.219 37.1594C243.219 37.1021 243.278 37.0447 243.397 36.9874L244.704 36.8726C244.585 36.5858 244.526 36.299 244.526 36.0122C244.526 35.9549 244.585 35.9549 244.644 36.0122C244.763 36.0696 244.882 36.1843 244.941 36.3564C245.001 36.3564 245.001 36.4137 245.001 36.4711C245.12 36.5858 245.238 36.5858 245.357 36.5285C245.476 36.4137 245.595 36.299 245.714 36.1843L245.832 34.9224C246.129 34.6929 246.426 34.5782 246.664 34.5782L246.605 34.5209C246.486 34.3488 246.426 34.2341 246.426 34.1193C246.308 34.062 246.189 34.062 246.129 34.062C246.011 34.1193 245.892 34.062 245.773 34.0046C245.654 34.0046 245.535 33.8899 245.417 33.6604C245.417 33.6604 245.417 33.6031 245.417 33.5457C245.595 33.6031 245.773 33.6031 245.951 33.5457C246.07 33.4884 246.189 33.431 246.248 33.2589L244.585 31.4807L245.12 30.7924L245.001 28.8995L245.714 27.7523L246.426 27.6376L247.139 28.3259L247.436 27.5229L248.683 27.9244C248.862 27.8097 249.04 27.6949 249.218 27.5802C249.277 27.5229 249.337 27.4655 249.277 27.4081C249.277 27.2934 249.218 27.2361 249.099 27.2361L249.812 26.5477L250.525 26.2609C250.881 26.2609 251.119 26.2036 251.356 26.0315C251.594 25.9168 251.713 25.7447 251.713 25.5726L258.246 26.6625C258.306 26.7198 258.365 26.7198 258.365 26.7198C258.543 26.7198 258.662 26.7198 258.781 26.6051C258.781 26.5477 258.781 26.4904 258.781 26.433C258.721 26.433 258.721 26.433 258.662 26.433C258.543 26.2609 258.484 26.1462 258.365 25.9741L259.256 25.8594L260.266 26.2609L261.81 25.1711V24.4828L262.523 24.196V23.2208C262.582 23.2782 262.642 23.3355 262.642 23.3929L262.82 23.565C262.879 23.5076 262.998 23.3355 262.998 23.1061C262.998 23.0487 263.057 22.9914 263.117 22.9914C263.117 22.934 263.176 22.934 263.236 22.934C263.176 23.2208 263.295 23.5076 263.473 23.7944C263.533 23.7944 263.473 23.8518 263.354 23.9092C263.533 24.0239 263.651 24.0812 263.711 24.1386L263.651 24.0812L264.542 23.3929H265.255L266.384 22.8193C266.562 22.8767 266.74 22.934 266.918 23.1061C266.978 23.1061 267.037 23.1635 267.096 23.2208C267.156 23.2208 267.156 23.2208 267.215 23.1635C267.275 23.1635 267.275 23.1061 267.334 23.0487C267.393 22.934 267.453 22.8193 267.512 22.7046C267.512 22.6472 267.512 22.5899 267.512 22.5325C267.69 22.3604 267.928 22.1883 268.165 22.0736L268.106 21.9589C268.106 21.9015 268.106 21.7868 268.106 21.7295L271.195 18.5746L271.789 18.2878L272.086 18.6893L273.214 19.263C273.571 19.3777 273.749 19.263 273.749 18.9188C273.808 18.7467 273.749 18.5746 273.63 18.4025H274.343L275.234 17.198C275.174 17.3127 275.174 17.4274 275.234 17.4848L275.293 17.4274C275.352 17.3127 275.352 17.198 275.293 17.0833C275.293 16.9685 275.234 16.9685 275.234 16.9112C275.115 16.9112 274.996 16.9112 274.937 16.9112C275.174 16.6817 275.412 16.567 275.649 16.3949L275.709 16.3376C275.709 16.2802 275.649 16.2802 275.649 16.2802C275.531 16.2802 275.471 16.2802 275.352 16.3376L276.184 15.5345C276.125 15.3624 276.006 15.3051 275.887 15.1904C275.768 15.0756 275.709 15.0183 275.709 14.9609H275.946C276.006 15.0183 276.065 15.0756 276.184 15.133C276.184 15.1904 276.184 15.1904 276.243 15.1904C276.243 15.2477 276.303 15.2477 276.362 15.2477L276.065 13.8711C275.709 13.5843 275.471 13.5843 275.293 13.8137C275.293 13.8711 275.234 13.9284 275.234 13.9858C275.055 13.9284 274.996 13.9284 274.937 13.9858C274.699 14.3299 274.521 14.3299 274.402 13.9858C274.283 13.8137 274.224 13.6416 274.224 13.4695L273.214 13.8711L271.492 13.068Z" fill="#C4DFE9" stroke="white" stroke-miterlimit="10"/>
<path d="M275.234 17.0848C275.293 17.1995 275.293 17.3142 275.234 17.429L275.174 17.4863C275.115 17.429 275.115 17.3142 275.174 17.1995L274.283 18.4041H273.57C273.689 18.5762 273.749 18.7482 273.689 18.9203C273.689 19.2645 273.511 19.3792 273.155 19.2645L272.026 18.6909L271.729 18.2894L271.135 18.5762L268.047 21.731C268.047 21.7884 268.047 21.9031 268.047 21.9604L268.106 22.0752C267.868 22.1899 267.631 22.362 267.453 22.534C267.453 22.5914 267.453 22.6488 267.453 22.7061C267.393 22.8208 267.334 22.9356 267.274 23.0503C267.215 23.1076 267.215 23.165 267.156 23.165C267.096 23.2224 267.096 23.2224 267.037 23.2224C266.977 23.165 266.918 23.1076 266.859 23.1076C266.68 22.9356 266.502 22.8782 266.324 22.8208L265.196 23.3944H264.483L263.592 24.0828L263.651 24.1401C263.592 24.0828 263.473 24.0254 263.295 23.9107C263.414 23.8533 263.473 23.796 263.414 23.796C263.235 23.5092 263.117 23.2224 263.176 22.9356C263.117 22.9356 263.057 22.9356 263.057 22.9929C262.998 22.9929 262.938 23.0503 262.938 23.1076C262.938 23.3371 262.82 23.5092 262.76 23.5665L262.582 23.3944C262.582 23.3371 262.523 23.2797 262.463 23.2224V24.1975L261.751 24.4843V25.1726L260.206 26.2625L259.197 25.8609L258.306 25.9757C258.424 26.1477 258.484 26.2625 258.603 26.4346C258.662 26.4346 258.662 26.4346 258.721 26.4346C258.721 26.4919 258.721 26.5493 258.721 26.6066C258.603 26.7214 258.484 26.7214 258.306 26.7214C258.306 26.7214 258.246 26.7214 258.187 26.664L251.653 25.5741C251.653 25.7462 251.534 25.9183 251.297 26.033C251.059 26.2051 250.822 26.2625 250.465 26.2625C250.525 26.2625 250.525 26.3198 250.525 26.3772C250.525 26.3198 250.525 26.2625 250.465 26.2625L249.752 26.5493L249.04 27.2376C249.159 27.2376 249.218 27.295 249.218 27.4097C249.277 27.467 249.218 27.5244 249.159 27.5818C248.98 27.6965 248.802 27.8112 248.624 27.9259L247.377 27.5244L247.08 28.3274L246.367 27.6391L245.654 27.7538L244.941 28.9011L245.06 30.794L244.526 31.4823L246.189 33.2605C246.129 33.4325 246.01 33.4899 245.892 33.5473C245.714 33.6046 245.535 33.6046 245.357 33.5473C245.357 33.6046 245.357 33.662 245.357 33.662C245.476 33.8914 245.595 34.0061 245.714 34.0061C245.832 34.0635 245.951 34.1209 246.07 34.0635C246.129 34.0635 246.248 34.0635 246.367 34.1209C246.367 34.2356 246.426 34.3503 246.545 34.5224L246.604 34.5797C246.367 34.5797 246.07 34.6945 245.773 34.9239L245.654 36.1858C245.535 36.3006 245.417 36.4153 245.298 36.53C245.179 36.5874 245.06 36.5874 244.941 36.4726C244.941 36.4153 244.941 36.3579 244.882 36.3579C244.823 36.1858 244.704 36.0711 244.585 36.0138C244.526 35.9564 244.466 35.9564 244.466 36.0138C244.466 36.3006 244.526 36.5874 244.644 36.8742L243.338 36.9889C243.219 37.0462 243.159 37.1036 243.159 37.161C243.159 37.333 243.159 37.5051 243.219 37.6772C243.1 37.6772 243.041 37.6772 242.981 37.6772C242.862 37.5051 242.744 37.4478 242.566 37.3904C242.328 37.2757 242.09 37.2757 241.912 37.3904C241.734 37.4478 241.615 37.5625 241.496 37.8493L240.249 37.2757L239.239 37.5625C239.239 37.4478 239.239 37.3904 239.239 37.2757C239.239 37.1036 239.18 37.1036 239.18 37.1036C239.061 37.0462 238.942 37.1036 238.824 37.161C238.645 37.1036 238.408 37.0462 238.23 36.9889L237.517 35.4975L235.972 36.8742C235.972 37.0462 236.032 37.2183 236.032 37.3904C236.032 37.5625 235.972 37.7346 235.972 37.964L234.785 37.5625H233.656C233.597 37.4478 233.597 37.3904 233.597 37.2757C233.597 37.1036 233.537 36.9889 233.537 36.8742C233.418 36.6447 233.24 36.53 232.943 36.5874H231.755L230.33 38.0787L229.617 39.2259L230.746 40.7173C230.746 40.832 230.746 40.8894 230.686 41.0041C230.686 41.1188 230.686 41.2336 230.686 41.2909C230.746 41.4056 230.864 41.463 231.043 41.5204L231.577 41.9793L232.171 42.094L232.706 42.3808C232.765 42.1513 232.824 42.1513 232.884 42.2661C233.359 42.094 233.834 42.094 234.309 42.2661C234.547 42.3234 234.844 42.4381 235.141 42.5529C235.973 42.8397 236.566 43.2985 236.982 44.0442L237.873 44.5605L238.408 45.7077L241.853 44.4458C242.15 44.3884 242.328 44.4458 242.269 44.7326L245.12 44.4458L245.535 44.0442L248.683 43.8722L249.396 43.0691L251.713 43.7574L251.119 45.4209L251.534 46.5107L251 52.9925L254.088 54.8854L254.979 56.5488L257.118 56.9503L258.246 56.5488L259.078 58.0402L260.384 58.327L261.394 58.2123L261.097 59.3021L262.523 59.5889L262.82 60.2773L265.077 60.1052L265.374 59.4742L265.968 59.3021L266.502 58.6138L266.68 56.8356L268.344 56.5488L270.066 57.9255L271.195 58.0402L270.957 59.9904L272.204 60.6788V62.457L273.095 63.3174L275.055 60.1052L275.649 60.5641L276.659 60.9656L276.778 62.1702L276.659 62.7438L277.906 64.9235L279.926 65.0955L281.173 61.0803L281.886 60.6788L282.361 58.4991L283.49 58.2123L283.787 56.0326L284.737 56.1473L286.341 54.5986L286.044 53.6808H286.756L287.885 54.7706H291.152L292.043 51.0422L292.874 50.9275L293.468 50.4686L296.616 52.9925L300.299 52.5909C300.358 52.3041 300.477 52.1894 300.715 52.3041C300.833 52.3041 300.952 52.3615 301.012 52.4189L302.556 51.6158L303.447 49.6656C303.447 49.5508 303.506 49.4935 303.625 49.4361C303.684 49.4361 303.803 49.4361 303.863 49.4361V48.6904L305.823 48.5757L306.833 48.0021L306.714 46.9123L306.12 46.6255L305.823 44.7326L307.426 44.8473L309.565 43.7574L312 40.6026L311.822 39.7422L310.871 39.2259L309.268 38.8244C309.565 38.7671 309.624 38.595 309.387 38.4229C309.327 38.3082 309.208 38.2508 309.09 38.2508L309.565 37.3904L310.159 36.9889L310.396 36.1858L310.871 35.7843L310.574 33.9488L310.159 33.8341V32.8589L309.09 32.4574L308.852 31.8838L308.555 31.6544L308.436 30.1056L307.308 30.6792C307.486 30.2777 307.486 29.9909 307.248 29.7615C307.189 29.7615 307.189 29.7615 307.13 29.8188C307.011 29.9335 306.951 30.0483 306.833 30.1056C306.536 29.9909 306.239 29.9909 306.001 30.1056L306.12 30.3924C306.12 30.3924 306.12 30.4498 306.12 30.5072L305.288 29.9909H304.457L303.566 30.2777L301.724 31.8838L299.883 31.7691L299.17 31.1955H298.279C297.864 31.0234 297.745 30.8513 297.923 30.6792C297.982 30.5645 298.101 30.4498 298.161 30.3924L297.864 29.1305C297.507 28.9584 297.507 28.7863 297.745 28.6716C297.864 28.6143 297.923 28.6143 298.042 28.6143C297.923 28.1554 297.804 27.9833 297.567 28.2127L296.319 26.2625L296.735 25.2873L295.428 24.4843L294.716 24.3122L294.003 23.3944V22.8208L293.29 22.4193C293.587 22.2472 293.587 22.0752 293.409 21.9031C293.171 21.7884 292.993 21.6736 292.756 21.5589L291.449 22.4193L290.32 21.731C290.32 21.9031 290.261 21.9604 290.201 21.9604C290.023 21.9604 289.904 21.9604 289.726 21.8457L288.895 22.0178L288.301 22.8208L286.163 20.3543L285.925 19.3792L285.747 18.1173L284.737 17.1995L285.034 15.364H284.202L282.599 14.8477L281.47 13.299L282.183 12.7828L282.48 12.0944L281.173 11.6929L279.748 10.7178L278.797 11.5208L277.906 11.6929L276.659 12.7828C276.422 13.0696 276.422 13.299 276.6 13.5284L276.362 13.6432C276.243 13.7005 276.184 13.7579 276.065 13.8726L276.362 15.2493C276.303 15.2493 276.243 15.2493 276.243 15.1919C276.184 15.1919 276.184 15.1919 276.184 15.1345C276.065 15.0772 276.006 15.0198 275.946 14.9624H275.709C275.709 15.0198 275.768 15.0772 275.887 15.1919C276.006 15.3066 276.125 15.364 276.184 15.5361L275.352 16.3391C275.471 16.2817 275.531 16.2817 275.649 16.2817C275.649 16.2817 275.709 16.2817 275.709 16.3391L275.649 16.3965C275.412 16.5685 275.174 16.6833 274.937 16.9127C274.996 16.9127 275.115 16.9127 275.234 16.9127C275.174 16.9701 275.234 16.9701 275.234 17.0848Z" fill="#C4DFE9" stroke="white" stroke-miterlimit="10"/>
<path d="M276.6 60.9639L275.59 60.5623L274.996 60.1035L273.036 63.3157L272.145 62.4552V60.6771L270.898 59.9887L271.135 58.0385L270.007 57.9238L268.284 56.5471L266.621 56.8339L266.443 58.6121L265.908 59.3004L265.314 59.4725L265.017 60.1035L262.76 60.2755L262.463 59.5872L261.038 59.3004L261.335 58.2106L260.325 58.3253L259.018 58.0385L258.187 56.5471L257.058 56.9486L254.92 56.5471L254.029 54.8837L250.94 52.9908L251.475 46.509L251.059 45.4192L251.653 43.7557L249.337 43.0674L248.624 43.8704L245.476 44.0425L245.06 44.444L242.209 44.7308C242.269 44.444 242.09 44.3867 241.793 44.444L238.348 45.706L237.814 44.5588L236.923 44.0425C236.507 43.2968 235.913 42.8379 235.082 42.5511C234.785 42.4364 234.488 42.3217 234.25 42.2643C233.775 42.0923 233.3 42.0923 232.825 42.2643C232.765 42.1496 232.706 42.1496 232.646 42.3791L232.112 42.0923L231.518 41.9775L231.102 43.7557L230.27 44.444L231.696 44.8456L231.221 45.706L229.795 46.7958V48.4019L228.548 49.1476L229.558 50.3522L229.676 51.1552L227.598 55.8588L226.291 55.572V56.4324L226.172 57.809L224.45 58.0385L223.202 58.8989L223.321 59.5872H222.49L221.777 60.1035C221.599 59.874 221.42 59.7593 221.183 59.5872C221.005 59.4725 220.945 59.5299 220.886 59.874L221.599 61.0786L219.46 61.3654L220.767 62.4552C220.767 62.6273 220.708 62.742 220.589 62.8568C220.411 63.0288 220.173 63.0289 219.876 62.9141L219.638 62.0537L218.451 61.939L219.163 66.069L220.173 66.6999L224.034 66.1837L225.162 66.6999L226.172 67.8471L225.756 71.002L226.053 72.4933L226.766 72.8949L226.291 73.4685C226.231 73.5832 226.232 73.6405 226.172 73.7553C226.172 73.8126 226.172 73.9274 226.172 73.9847C226.766 76.5659 227.122 79.0898 227.36 81.6137C227.598 83.9654 227.598 86.2599 227.36 88.6116C227.36 88.6116 227.36 88.6116 227.301 88.6116L226.291 89.7015L229.439 92.3401L229.736 91.3649C230.27 91.8238 230.864 92.2827 231.458 92.7416C231.577 92.9137 231.755 93.0284 231.874 93.0858C232.052 93.2578 232.29 93.3152 232.468 93.3152C233.894 93.7167 235.319 94.0609 236.745 94.4051L237.279 94.9213L238.408 95.2081L240.546 94.9213L240.843 97.5599L240.13 97.9614L240.427 99.0513L237.576 101.288L237.873 102.493L237.576 103.353L238.289 104.328L246.129 106.221L247.139 106.91L246.426 108.458L247.436 107.483L248.683 107.885C248.802 108.057 248.921 108.229 249.04 108.344C249.099 108.401 249.159 108.458 249.277 108.458C249.337 108.401 249.456 108.344 249.574 108.286L251 107.483L251.713 107.598L252.128 107.196C252.247 107.139 252.307 107.082 252.366 107.024C252.425 106.68 252.425 106.336 252.425 105.935L253.138 104.443L254.682 104.558L255.692 103.87L255.989 102.952L257.236 103.066L256.821 102.091L258.246 101.575L260.088 98.2482L263.236 97.4452V96.0685L263.651 95.6096L264.364 93.0284L265.077 92.7416L266.087 92.0533L265.611 89.7015L267.037 86.9482L266.859 85.4568L268.878 81.7284V81.0401L269.472 79.7781L270.422 79.2619L272.739 79.5487L273.867 77.0248V76.1071L273.452 75.2466L273.749 74.5583L272.442 73.0669L273.986 68.937L274.877 69.4532L275.293 68.937L274.58 68.2487L276.006 67.3883L277.847 65.4954V64.9217L276.6 62.742L276.719 62.1684L276.6 60.9639Z" fill="#C4DFE9" stroke="white" stroke-miterlimit="10"/>
<path d="M193.682 32.0539C193.682 32.0539 193.682 32.1113 193.682 32.1687L193.385 33.1438C193.326 33.3159 193.326 33.4306 193.266 33.4306C193.148 33.5453 193.029 33.5453 192.91 33.4879C192.732 33.6027 192.554 33.6027 192.375 33.5453L191.663 33.9468L189.821 33.2585L188.396 32.3407L187.683 31.0788L186.376 30.3905L184.832 30.5052L184.238 30.792L184.001 31.8818L182.813 31.7671L182.694 32.5702C182.634 32.6275 182.575 32.6275 182.516 32.6275C182.337 32.7423 182.1 32.7996 181.862 32.857L181.565 33.1438H180.971L179.962 33.7174L179.249 33.8321L180.08 35.3235L180.852 35.8971L181.268 36.4707L181.387 38.5357L181.981 39.1093L180.556 39.4534L180.259 39.9123L179.546 40.4286L179.962 41.289L179.011 41.6905L179.13 43.1819L177.823 43.5834L177.408 44.8453L176.695 45.4189C176.635 45.3042 176.576 45.2469 176.517 45.2469C176.338 45.1895 176.101 45.1895 175.863 45.2469L175.269 44.4438L172.002 44.8453L172.121 46.222L173.25 46.3367L173.844 47.025L173.547 47.8854L172.656 48.0002L170.577 46.1073L169.686 47.1971V48.6885L168.142 50.2372L167.845 51.4418L166.597 51.6139L165.528 52.8758L164.994 52.4169L164.281 52.3022L164.459 54.3672C164.34 54.5393 164.281 54.7113 164.281 54.8834C164.281 54.9408 164.34 54.9981 164.459 55.0555C164.34 55.1702 164.221 55.2276 164.162 55.2849C163.984 55.457 163.865 55.5717 163.687 55.5717C163.568 55.6291 163.449 55.5717 163.331 55.457L161.133 57.1205L162.737 58.6119L162.558 59.3002L162.143 60.5621L163.449 62.7418C163.509 62.7418 163.628 62.7418 163.746 62.7418C163.984 62.7992 164.103 62.9139 164.162 63.0286C164.281 63.2007 164.221 63.3154 164.162 63.5449L164.994 66.2982L165.469 66.6997L166.3 66.585L167.132 66.9865L167.013 65.6098L168.736 64.6921L172.418 66.4702L174.735 63.5449L174.972 61.652L176.517 62.455L179.249 60.9636L180.674 61.652L181.565 64.9215L181.149 66.585L181.565 67.2733L182.694 67.9616L185.842 69.0515L186.852 68.2484L185.426 66.6997L190.237 65.4951L190.415 67.1586C190.594 67.3307 190.772 67.5027 190.95 67.6748L191.247 68.5352L192.672 69.453L193.801 69.7398L194.514 71.9769L193.979 73.5829L196.117 76.2215L198.077 76.6231V77.4835L200.513 77.1967L201.226 76.5083L201.938 74.9596L203.364 74.8449L204.195 73.8697L204.492 72.3784L211.085 68.9367L210.907 67.8469H212.036C212.154 67.8469 212.214 67.7895 212.273 67.7895C212.57 67.388 212.748 66.9865 212.808 66.585C212.808 66.5276 212.748 66.4702 212.63 66.4702C212.57 66.4129 212.57 66.3555 212.57 66.3555C212.57 66.0687 212.689 65.8966 212.867 65.7246C212.986 65.6098 213.105 65.4951 213.342 65.4951L213.758 63.3154L215.362 63.0286L215.896 62.3403L214.649 61.4799L213.045 59.9885L212.036 60.2753C211.917 60.1606 211.798 60.1032 211.62 60.1032C211.56 60.1032 211.442 60.1606 211.323 60.2753H209.779L206.809 58.4971L207.759 56.8337L206.215 55.7438L205.918 55.1702L204.789 54.3672L203.483 51.6139L203.958 51.0403L203.245 48.4017L201.819 48.0002L201.107 47.025L201.226 46.222L202.235 45.7057C202.235 45.7057 202.295 45.7631 202.295 45.8205C202.413 46.1073 202.592 46.1073 202.77 45.9925C202.889 45.8778 202.948 45.8778 203.007 45.9925C203.245 45.9925 203.304 45.9352 203.245 45.7057C203.186 45.5337 203.126 45.4189 203.067 45.2469L203.958 44.5585L203.78 43.5834L201.226 41.6905L202.532 40.1418L202.354 39.3387L202.948 38.0768L202.354 36.1839L203.364 35.3235L203.067 34.4057L202.532 33.5453V32.1687L202.235 31.3656L201.522 30.5052L199.087 29.7021L198.256 30.1037V31.1935L197.246 32.1687L196.949 32.857L196.83 33.8321L195.226 31.8818L194.217 32.0539C193.801 31.7098 193.682 31.7098 193.682 32.0539Z" fill="#C4DFE9" stroke="white" stroke-miterlimit="10"/>
<path d="M184.238 30.7936L184.832 30.5068L182.991 28.9007L181.981 28.2124L179.783 29.0154L179.011 29.8184L178.417 29.9905L177.705 31.1951L175.982 31.654L176.814 30.2773L176.16 29.1301L175.151 28.6139C175.091 28.786 174.972 28.786 174.735 28.7286C174.675 28.6712 174.557 28.7286 174.438 28.786C174.141 28.7286 174.081 28.5565 174.26 28.3271L173.547 29.0154L172.834 29.1301C172.893 29.0728 172.953 28.958 172.893 28.9007C172.893 28.8433 172.775 28.786 172.656 28.786C172.537 28.8433 172.359 28.9007 172.121 29.0154C172.062 29.0154 172.003 29.0728 171.943 29.1875C171.943 29.3022 171.943 29.4169 171.943 29.589C171.943 29.589 171.884 29.6464 171.884 29.7037C171.409 29.8184 171.171 29.7037 170.993 29.3022L171.29 28.3271C171.468 28.155 171.587 28.0403 171.706 27.8682C171.765 27.6961 171.765 27.524 171.706 27.3519L169.686 25.8606L168.736 25.6885L167.845 26.5489L166.419 26.1474L165.706 24.1971L163.865 23.5088L163.034 24.0824L161.965 25.287L160.004 26.1474C159.648 26.2047 159.41 26.3194 159.232 26.4342C159.113 26.5489 159.113 26.6636 159.292 26.721C159.292 26.7783 159.351 26.8357 159.41 26.9504C159.41 27.0651 159.47 27.2372 159.47 27.3519L158.579 27.9255V28.9007L158.401 29.9905V30.1052H158.282L157.866 31.654L157.747 32.5717L156.322 34.4073L156.025 33.4322L155.312 33.2601L154.837 33.719L153.887 33.9484C153.708 34.1205 153.59 34.1778 153.471 34.1778C153.352 34.1778 153.293 34.1205 153.174 33.9484L153.055 34.1205V33.9484V33.8337H152.877L151.867 33.9484H151.748V33.8337L148.303 34.2352L148.066 34.8088L147.056 34.9235L146.343 36.1855L145.333 35.6119L144.027 35.7839L141.77 34.8088L140.047 35.2103L139.216 34.8088L138.206 35.7839L137.077 35.3251H136.899V35.2103L136.186 34.522L136.068 34.6367V34.522L135.949 34.6367V34.8088H135.771L134.939 35.7839H132.088L133.098 36.9885L133.514 37.6768L134.226 37.9636L135.058 37.8489L135.652 38.5372C135.355 38.7093 135.355 38.8814 135.652 39.1108L135.474 40.1433L134.761 40.3154L135.058 40.8317L132.623 43.1834L133.811 44.7322L134.642 45.1337L136.483 46.7972L137.196 48.1738L138.206 48.9769L138.978 50.0093L139.334 50.0667L140.641 49.5505H142.067L144.205 49.7799L145.215 50.4682L145.63 51.1566L149.907 50.6403L151.333 51.6154L154.481 51.7302L155.312 52.7053L154.599 53.2215L154.005 54.7703L155.431 55.4586L154.837 56.1469L155.728 58.4987L156.856 60.2769L158.282 59.4738L157.45 58.6134L158.698 57.9251L159.47 56.6632L161.133 57.1221L163.331 55.4586C163.449 55.5733 163.568 55.6307 163.687 55.5733C163.865 55.5733 163.984 55.4586 164.162 55.2865C164.222 55.2292 164.34 55.1718 164.459 55.0571C164.34 54.9997 164.281 54.9424 164.281 54.885C164.281 54.7129 164.34 54.5408 164.459 54.3687L164.281 52.3038L164.994 52.4185L165.528 52.8774L166.597 51.6154L167.845 51.4434L168.142 50.2388L169.686 48.6901V47.1987L170.577 46.1088L172.656 48.0017L173.547 47.887L173.844 47.0266L173.25 46.3383L172.121 46.2236L172.003 44.8469L175.269 44.4454L175.863 45.2484C176.101 45.1911 176.338 45.1911 176.517 45.2484C176.576 45.2484 176.635 45.3058 176.695 45.4205L177.408 44.8469L177.823 43.585L179.13 43.1834L179.011 41.6921L179.962 41.2906L179.546 40.4301L180.259 39.9139L180.556 39.455L181.981 39.1108L181.387 38.5372L181.268 36.4723L180.853 35.8987L180.08 35.3251L179.249 33.8337L179.962 33.719L180.971 33.1454H181.565L181.862 32.8585C182.1 32.8012 182.338 32.7438 182.516 32.6291C182.575 32.6291 182.634 32.6291 182.694 32.5717L182.813 31.7687L184.001 31.8834L184.238 30.7936Z" fill="#C4DFE9" stroke="white" stroke-miterlimit="10"/>
<path d="M142.067 66.6989L141.354 65.7811L139.631 65.0928L138.087 66.5841L138.503 65.3796H136.365L136.483 66.5841L135.058 66.8709C134.939 66.6989 134.761 66.6415 134.642 66.6989C134.523 66.6415 134.345 66.5841 134.286 66.5841C134.226 66.6415 134.226 66.6989 134.226 66.8709C134.226 66.8709 134.226 66.9283 134.226 66.9857C134.107 67.3872 133.87 67.5019 133.514 67.2725H132.207L131.672 69.3374C131.553 69.5095 131.672 69.5669 131.969 69.4522L131.91 69.6243V70.7141L132.385 71.976L132.207 73.0659L134.048 74.8441L133.811 75.8192V76.7943L132.92 77.5974L133.098 78.8593L132.801 80.3507L133.929 79.7771L135.652 79.5476L136.186 79.7771L137.79 79.2608L138.206 78.5725L139.037 79.3755L139.631 79.6623L139.334 80.2359L140.938 81.7273C141.176 81.7273 141.413 81.7273 141.651 81.7273L143.076 81.4405L145.215 78.4004L144.739 77.9989L145.749 77.3106C145.809 77.5974 145.927 77.6547 146.165 77.54C146.343 77.4253 146.581 77.3106 146.759 77.1958L147.056 76.5075L147.769 76.6222L148.184 75.6471L150.204 74.8441L150.026 73.8689L149.313 72.8938L149.61 71.6892L146.878 71.804L146.462 70.4273L145.036 70.1405L144.502 69.739L143.908 69.9111L142.364 68.5344L142.898 68.0755L141.888 67.5593C141.948 67.2725 142.007 66.9857 142.067 66.6989Z" fill="#C4DFE9" stroke="#002340" stroke-miterlimit="10"/>
<path d="M240.071 97.9621L240.784 97.5605L240.487 94.922L238.348 95.2088L237.22 94.922L236.685 94.4057C235.26 94.0615 233.834 93.7174 232.409 93.3159C232.231 93.3159 231.993 93.2585 231.815 93.0864C231.696 93.0291 231.518 92.9143 231.399 92.7423C230.805 92.2834 230.211 91.8245 229.677 91.3656L229.38 92.3407L226.232 89.7021L225.994 90.2758L225.519 89.8742L223.974 92.857L222.549 93.5453H221.717L219.698 95.3808L220.292 96.2986L220.529 97.159C220.292 97.159 220.114 97.2737 219.935 97.4458C219.757 97.5605 219.698 97.7326 219.639 97.9621C219.639 98.1341 219.639 98.3062 219.639 98.5357C219.639 98.6504 219.639 98.8225 219.639 98.9372C219.698 99.0519 219.698 99.1093 219.698 99.224C219.698 99.3387 219.639 99.5108 219.579 99.6255L220.292 100.887L219.579 100.429L219.401 101.117L218.154 101.977C217.975 101.977 217.916 102.035 217.857 102.149C217.857 102.264 217.916 102.436 217.975 102.666L215.718 102.78L215.54 101.576L214.115 102.264L213.877 103.067C213.699 103.01 213.58 103.01 213.58 103.067C213.342 103.354 213.224 103.641 213.224 104.042C213.224 104.1 213.283 104.214 213.402 104.329L213.877 105.132V106.624L214.115 107.885L213.164 107.771L214.293 108.172V108.975L212.273 110.926L210.313 111.614L208.591 110.639L207.7 110.926L206.156 110.639C206.037 110.868 205.918 111.04 205.74 111.155C205.086 111.614 204.314 111.901 203.542 112.073C203.245 112.13 203.007 112.187 202.77 112.073C202.651 112.015 202.592 111.958 202.532 111.958C202.354 111.786 202.117 111.671 201.879 111.614C201.82 111.614 201.76 111.614 201.76 111.614L199.622 114.195L200.335 118.096L201.463 117.522L203.72 119.702L206.749 119.874L208.294 120.849L207.997 125.897L207.284 126.183L207.581 133.64L209.125 135.418L209.304 135.992L208.71 137.369L208.294 139.434C208.353 139.606 208.472 139.721 208.65 139.893L208.71 139.835L208.888 140.638L207.7 140.925L207.878 143.793L206.452 144.367L207.581 146.317L207.284 146.718L212.57 147.522L212.986 145.629L215.124 145.342C215.184 145.801 215.243 146.202 215.481 146.489C215.778 146.948 215.897 147.464 215.956 147.923C215.956 149.128 215.897 150.332 215.718 151.537L216.847 152.34L217.263 152.627L221.717 151.824L223.856 153.315L223.974 152.34L224.984 152.053L225.281 153.028L228.132 153.2C228.37 153.372 228.667 153.544 228.904 153.774C228.964 153.889 229.023 154.003 229.083 154.118L230.27 154.29C230.449 154.061 230.627 153.889 230.805 153.716C230.983 153.659 231.102 153.602 231.221 153.602C231.34 153.602 231.458 153.602 231.518 153.602L231.934 153.2L232.825 150.562L234.25 150.275L234.547 150.848L235.379 150.676L235.794 150.275L235.676 148.611L236.685 147.407L236.923 143.793C237.101 143.793 237.16 143.793 237.279 143.678C237.398 143.564 237.457 143.449 237.517 143.277L241.081 143.564L241.912 140.638L241.081 138.975H240.071L239.536 137.598L240.249 134.443L241.378 133.526V133.067L241.793 131.977C241.615 131.919 241.556 131.862 241.496 131.805C241.437 131.518 241.378 131.289 241.378 131.002C241.378 130.944 241.378 130.83 241.378 130.772C241.496 130.485 241.556 130.199 241.734 129.969C241.972 129.568 242.209 129.224 242.506 128.822L243.516 128.937L244.05 128.42L246.189 129.338L246.486 127.962L247.614 127.445L248.089 126.47L247.08 125.782L246.901 124.979C247.02 124.807 247.139 124.749 247.198 124.749C247.436 124.749 247.674 124.807 247.911 124.979L249.218 124.52L250.05 125.094L250.762 123.43L251.475 122.914V121.939L249.515 120.275L249.634 119.3L250.643 118.784L251.178 116.834L250.94 116.26V115.342L251.772 114.482L254.623 113.507L255.336 111.901L254.623 110.639L254.504 109.836L254.92 108.861H256.346L257.177 107.312C257.415 107.369 257.652 107.369 257.83 107.254C257.949 107.254 258.009 107.197 258.068 107.082C258.127 107.082 258.127 107.082 258.187 107.025C258.246 106.968 258.246 106.853 258.246 106.796C258.246 106.681 258.246 106.623 258.187 106.509C257.89 106.509 257.712 106.394 257.712 106.222C257.652 106.107 257.712 106.05 257.712 105.935C257.771 105.82 257.771 105.763 257.771 105.706C257.83 105.648 257.83 105.591 257.89 105.534C257.949 105.476 257.949 105.419 258.009 105.362C258.009 105.247 258.068 105.132 258.127 105.017C258.127 104.845 258.187 104.731 258.306 104.559C258.306 104.559 258.306 104.501 258.365 104.501C258.424 104.386 258.543 104.329 258.603 104.329L258.068 103.182L257.177 103.067L255.93 102.952L255.633 103.87L254.623 104.559L253.079 104.444L252.366 105.935C252.366 106.337 252.366 106.681 252.307 107.025C252.247 107.082 252.188 107.14 252.069 107.197L251.653 107.599L250.94 107.484L249.515 108.287C249.396 108.344 249.277 108.402 249.218 108.459C249.099 108.459 249.04 108.402 248.98 108.344C248.862 108.23 248.743 108.058 248.624 107.885L247.377 107.484L246.367 108.459L247.08 106.91L246.07 106.222L238.23 104.329L237.517 103.354L237.814 102.494L237.517 101.289L240.368 99.0519L240.071 97.9621Z" fill="#C4DFE9" stroke="white" stroke-miterlimit="10"/>
<path d="M183.763 119.012L183.466 117.922L179.189 123.142L181.09 124.805L179.724 128.935L180.199 129.337L180.021 131.172C180.14 131.402 180.199 131.689 180.14 131.975C180.14 132.09 180.021 132.147 179.902 132.262L177.942 134.729L175.626 132.778L170.399 135.819L172.062 137.539L173.487 137.253C173.903 137.597 174.26 137.941 174.675 138.228C174.913 138.4 175.151 138.572 175.329 138.744C175.507 138.916 175.566 139.088 175.685 139.318C175.804 139.547 175.863 139.834 175.863 140.121C175.923 140.235 175.923 140.35 175.923 140.522L175.388 141.899L175.923 143.275L175.21 144.365L174.794 145.742L173.963 146.315L172.24 145.168L168.676 147.692L167.667 147.004L164.519 147.922L166.063 150.56L163.687 153.313L166.538 158.246L168.082 159.508L169.627 161.172H170.399L172.062 162.262L173.784 160.885L177.526 159.107L181.625 159.394L182.338 161.172L183.763 160.885L185.486 159.394L187.03 161.172L189.049 160.197L191.603 162.549C191.841 162.376 192.079 162.262 192.316 162.204L192.376 162.262C192.376 162.319 192.376 162.376 192.376 162.376C192.376 162.549 192.376 162.663 192.316 162.835L197.305 159.508L198.018 160.484L199.325 160.311L201.463 161.287L202.176 161.172L203.72 159.222L203.898 158.246L206.452 158.935L206.749 159.394L207.284 159.623L208.175 160.311L208.413 160.77L209.422 161.172L210.729 162.262L211.264 160.77L212.689 161L213.58 159.91L214.59 158.246C214.649 158.246 214.768 158.189 214.827 158.132C214.887 158.074 214.946 158.017 214.946 158.017C215.006 157.96 215.006 157.902 214.946 157.845C214.946 157.788 214.887 157.73 214.827 157.73C214.768 157.673 214.649 157.616 214.59 157.558C214.59 157.386 214.649 157.214 214.709 157.042V156.927C215.184 156.927 215.718 156.985 216.253 157.042L215.718 154.117L216.847 152.338L215.718 151.535C215.897 150.331 215.956 149.126 215.956 147.922C215.897 147.463 215.778 146.946 215.481 146.488C215.243 146.201 215.184 145.799 215.124 145.34L212.986 145.627L212.57 147.52L207.284 146.717L207.581 146.315L206.452 144.365L207.878 143.792L207.7 140.924L208.888 140.637L208.71 139.834L208.65 139.891C208.472 139.719 208.353 139.604 208.294 139.432L208.71 137.367L209.304 135.991L209.125 135.417L207.581 133.639L207.284 126.182L207.997 125.895L208.294 120.847L206.749 119.872L203.72 119.7L201.463 117.521L200.335 118.094L196.89 119.299L196.474 120.675L194.039 120.389L192.91 118.782L191.069 118.496C191.069 118.553 191.009 118.668 191.009 118.725C190.95 118.84 190.891 118.955 190.831 119.069C190.831 119.184 190.772 119.299 190.712 119.356C190.712 119.471 190.594 119.528 190.475 119.528C190.415 119.528 190.356 119.471 190.356 119.471C190.237 119.413 190.118 119.356 190.059 119.299L189.049 120.962L185.486 119.299V120.389C185.426 120.503 185.367 120.561 185.367 120.561C185.129 120.561 184.951 120.503 184.773 120.389L183.763 119.012Z" fill="#C4DFE9" stroke="white" stroke-miterlimit="10"/>
<path d="M90.8669 54.5983L89.6195 55.2867L88.4316 54.4836L87.3031 55.2867L84.749 55.5735L84.452 59.3019L84.8678 59.8755L84.6302 63.0303L86.0557 63.5466L85.2836 65.7836L85.1648 67.6765L86.2933 68.0781L84.9866 68.6517L84.0363 67.9633V69.2253L84.8678 71.5197L83.9175 72.208C83.8581 72.208 83.7987 72.208 83.7987 72.208C83.8581 72.3801 83.9175 72.4948 83.9175 72.6669H83.7393C83.6799 72.6669 83.5017 72.7243 83.4423 72.7816C83.4423 72.9537 83.4423 73.0684 83.4423 73.1258C83.5017 73.2979 83.6799 73.4699 83.9175 73.5847L83.2047 74.0436L83.7393 74.4451L84.0363 76.5101L83.6205 78.575L84.3333 78.9766L84.9866 78.575L86.4715 79.0913C86.4715 79.1486 86.4715 79.206 86.5309 79.2634C86.6497 79.4354 86.6497 79.5502 86.5309 79.6649C86.4121 79.837 86.1745 80.009 85.8776 80.0664L85.7588 80.2385C85.8776 80.2959 86.1151 80.4106 86.4715 80.4679L87.1843 81.3283L87.0061 82.3035L87.6001 82.0167L88.5504 82.3035L89.6195 81.8446L90.4511 82.3035L91.2826 81.1563L93.0051 80.7547L93.1833 78.6898L94.0149 78.0014L94.3119 75.1334L95.7374 74.9613L96.2719 75.5349C96.3313 75.4776 96.3907 75.3628 96.4501 75.3055C96.6877 75.1908 96.9253 75.1334 97.1035 75.1334C97.2223 75.1908 97.2817 75.2481 97.4599 75.2481L97.9944 73.7568C98.0538 73.5273 98.1132 73.3552 98.1726 73.1831L100.133 74.7319V75.5349L100.845 76.338L101.439 76.5101L103.281 78.2882L104.112 77.1984L106.132 77.0263L105.122 75.9365L106.013 74.5598L107.438 74.9613L109.102 72.6669L109.993 72.7816L110.824 73.5847L111.121 72.6669L112.25 72.0933L113.972 73.0684L113.378 71.8065L112.131 70.8314L111.834 69.34L111.418 68.537L113.378 68.3649L114.566 67.5618L116.11 67.1603L117.655 67.6765L120.684 66.9882L122.109 66.0704L122.228 64.9232L123.119 64.6938L123.238 64.1202L125.079 63.0303L124.545 62.1699L123.654 61.7684L125.079 61.2522L127.218 62.1699H128.524L128.821 60.9654L128.227 59.8755L128.821 58.04L129.95 57.8105H130.663L131.91 58.3268L132.207 57.5237L131.672 56.8354V55.1719C131.494 54.9425 131.375 54.7704 131.197 54.5983L130.663 52.4186L128.227 51.3288C128.108 51.5009 127.811 51.5582 127.336 51.4435C127.039 51.2714 126.683 51.1567 126.386 51.042C125.911 51.042 125.436 51.0993 124.96 51.2141C124.842 51.1567 124.663 51.2141 124.485 51.2141C124.248 51.3288 123.951 51.4435 123.713 51.5009C123.535 51.6156 123.357 51.673 123.238 51.7303L122.941 52.8775C122.703 53.2217 122.288 53.5085 121.872 53.7379C121.634 53.8527 121.397 54.0247 121.218 54.1968C120.921 54.3115 120.684 54.4836 120.387 54.5983C120.031 54.7131 119.734 54.8278 119.377 54.8851C118.783 55.0572 118.249 55.1146 117.655 55.1146C117.476 55.1146 117.298 55.0572 117.12 55.0572C117.001 54.9999 116.942 54.9425 116.823 54.8851C116.704 54.8851 116.526 54.7704 116.407 54.7704C116.17 54.7131 115.992 54.6557 115.813 54.5983C115.516 54.5983 115.219 54.5983 114.982 54.5983C114.625 54.5983 114.328 54.5983 113.972 54.5983L111.834 55.2867L110.408 54.4836L102.568 56.5486L97.4599 55.8603L90.8669 54.5983Z" fill="#C4DFE9" stroke="white" stroke-miterlimit="10"/>
<path d="M84.6896 55.5729L83.3829 55.1714L79.5815 55.4582C79.2845 55.1714 78.9875 54.9993 78.6905 54.8846C78.2748 54.7125 77.7996 54.5978 77.265 54.5978C77.0274 54.5405 76.7899 54.4257 76.5523 54.3684C76.4929 54.3684 76.4929 54.3684 76.4335 54.311C76.1959 54.1389 75.9583 53.8521 75.7207 53.508C75.4237 53.1064 75.0674 52.7049 74.711 52.4181C74.0576 51.9592 73.4043 51.443 72.8103 50.9267C72.4539 50.6399 72.0975 50.2958 71.8599 49.9516L70.1374 50.3531L69.0089 47.7146L68.4149 47.0262L66.8706 46.7968L65.0294 45.5349L63.0099 42.0932L62.8911 41.4049L59.7431 38.2501L56.0605 37.6765L55.5853 36.2998H53.9222C53.744 36.4145 53.5064 36.5292 53.3282 36.4719C53.0907 36.5292 52.8531 36.644 52.6155 36.7013C52.3185 36.8734 52.0809 37.0455 51.8433 37.2176C51.7839 37.2176 51.7245 37.2749 51.6057 37.2749C51.5463 37.2749 51.487 37.3323 51.4276 37.3897C51.0712 37.5044 50.7742 37.7338 50.5366 38.0206C50.3584 38.2501 50.2396 38.3648 50.002 38.5369C49.6457 38.8237 49.3487 39.1105 49.1111 39.4546C49.1111 39.4546 49.2299 39.512 49.3487 39.5694C49.4675 39.6841 49.5269 39.6841 49.6457 39.7414L49.0517 41.4049C49.2299 41.6917 49.4081 41.9785 49.6457 42.2653L48.3389 45.7069H46.6164L46.2007 46.1085H45.0721L46.6164 47.8866L46.4976 48.575L47.6262 49.9516L46.6164 50.6399L47.2104 55.1714L48.2201 56.5481L38.2415 57.3511L37.9446 55.1714L36.6378 56.3186L36.2221 57.3511L32.3613 57.81L31.3515 54.0816L27.669 53.1064C27.6096 52.7623 27.5502 52.5902 27.4314 52.4755C27.2532 52.4181 27.075 52.3608 26.8374 52.3608C26.5998 52.3608 26.3622 52.3608 26.1247 52.3608C26.0653 52.3608 26.0059 52.3608 25.9465 52.4181C25.8871 52.4181 25.8871 52.4755 25.8277 52.4755C25.7683 52.4181 25.7089 52.3608 25.6495 52.3034L23.5112 52.9917L23.0954 53.508L23.2736 54.8846L21.1353 55.745L19.9474 56.6628C20.0662 56.6628 20.0068 56.7775 19.7692 56.9496C19.7098 57.007 19.591 57.007 19.4128 56.9496L18.8189 56.1465L17.8091 57.9247L21.3729 59.9897C21.4917 59.8176 21.5511 59.7603 21.7293 59.7603C21.8481 59.7603 21.9669 59.7603 22.0857 59.875C22.3827 59.8176 22.5609 59.875 22.7391 60.0471C22.7391 60.1618 22.8578 60.2191 22.9766 60.2765C23.036 60.3339 23.1548 60.3339 23.2142 60.4486C23.2736 60.5059 23.333 60.5633 23.4518 60.6207C23.5706 60.7928 23.7488 60.9648 23.9864 61.0796C24.0458 61.1943 24.1646 61.2516 24.224 61.3664L25.4119 61.4811L27.2532 60.9648L27.9659 61.3664L28.6787 62.6283L28.7975 63.8329L28.3817 65.0948L29.5103 65.611L30.52 66.873L30.1042 67.9628L28.3817 69.0527C28.2035 69.11 28.0253 69.0527 27.9659 68.9379C27.9065 68.9379 27.7878 68.9953 27.669 69.11C27.669 69.11 27.669 69.1674 27.669 69.2247L28.2629 71.1176L27.7878 71.5192L27.075 72.7811L27.372 73.7562L28.3817 74.5593L29.8072 74.8461L30.1042 75.4197L30.52 74.5593L33.668 73.7562L34.2026 73.3547L34.7965 73.8709L36.1033 73.0679L37.0536 74.8461L38.2415 75.4197C38.1227 75.0755 38.3603 74.9608 38.7761 74.9608C38.8949 74.9034 38.9543 75.0182 39.0137 75.4197V75.477C39.0137 75.477 39.1325 75.4197 39.1919 75.4197L40.0828 75.6491L40.4986 76.6243L41.0926 76.108L42.2211 75.4197L42.5181 74.9608L43.3496 74.7313L45.6067 72.8958L46.4976 73.7562L45.9037 74.9608L46.0819 75.1329H45.9037L45.7849 75.5344V75.6491L45.6067 75.9359L45.4879 76.108L45.3691 76.5095V76.6243L47.745 76.108L48.9329 74.9608L49.4675 74.8461L49.7645 74.4445L51.0712 74.7313L52.0215 73.8709L52.4967 74.5593L53.3282 74.8461L54.041 74.7313L55.5853 74.8461L56.5951 75.1329L57.486 74.4445L58.9115 74.5593L59.8619 74.1577L60.8716 73.1826L61.2874 71.5192L62.4753 72.6664L63.6038 74.1577V75.1329L64.0196 75.5344L65.3263 75.8212L66.1579 74.9608C66.2173 74.9034 66.2767 74.7887 66.3361 74.674C66.3361 74.674 66.3361 74.6166 66.3361 74.5593C66.2767 74.5019 66.2767 74.4445 66.2767 74.4445L67.4646 72.8958L67.8804 73.8709L68.7119 74.7313L69.8405 74.1577L70.1374 72.8958L70.8502 73.8709L71.7412 73.1826C71.8599 73.4694 72.0975 73.6989 72.3945 73.8136C72.4539 73.8709 72.5133 73.8136 72.5727 73.7562C72.5727 73.8709 72.5727 74.043 72.5727 74.1577C73.1667 74.043 73.523 73.8136 73.5824 73.4694C73.6418 73.4121 73.6418 73.3547 73.6418 73.2973C73.7012 73.2973 73.7012 73.24 73.7012 73.1826C73.7012 73.1253 73.7012 73.0679 73.7012 73.0679H74.711C74.9486 73.1826 75.1268 73.1826 75.3049 73.0105C75.3049 73.0105 75.4237 73.0105 75.5425 73.1253C75.6613 73.1826 75.7801 73.24 75.8395 73.3547C75.8395 73.3547 75.8395 73.4121 75.8395 73.4694C75.7207 73.7562 75.6613 73.9857 75.6613 74.2151L75.8395 74.1577H76.0177C76.3147 74.3872 76.4335 74.4446 76.4335 74.2725C76.4929 74.043 76.4335 73.8136 76.2553 73.5841L76.7305 73.0679L79.1063 77.3126C78.7499 77.542 78.6905 77.7715 78.8687 78.0009C78.9281 78.0583 78.9281 78.1156 78.9875 78.173L78.0966 78.6892L77.4432 80.238L76.4335 80.4674L75.8395 81.4425L76.4335 82.7045L77.265 83.106C77.6214 83.1634 77.7402 83.3928 77.6808 83.7943C77.6808 84.4253 77.6808 84.8842 77.7996 85.343C77.859 85.5151 77.9778 85.7446 78.0372 85.974C78.0372 85.9167 78.0966 85.9167 78.0966 85.8593C78.2748 85.8019 78.3936 85.7446 78.5124 85.6298C78.5124 85.6298 78.5718 85.6299 78.5718 85.5725L78.6905 82.7045H80.5318L81.2446 81.041L80.8288 80.238L81.9574 79.3776L83.5611 78.5745L83.9768 76.5095L83.6798 74.4445L83.1453 74.043L83.858 73.5841C83.6205 73.4694 83.4423 73.2973 83.3829 73.1253C83.3829 73.0679 83.3829 72.9532 83.3829 72.7811C83.4423 72.7237 83.6204 72.6664 83.6798 72.6664H83.858C83.858 72.4943 83.7986 72.3796 83.7392 72.2075C83.7392 72.2075 83.7986 72.2075 83.858 72.2075L84.8084 71.5192L83.9768 69.2247V67.9628L84.9272 68.6511L86.2339 68.0775L85.1054 67.676L85.2242 65.7831L85.9963 63.5461L84.5708 63.0298L84.8084 59.875L84.3926 59.3014L84.6896 55.5729Z" fill="#C4DFE9" stroke="white" stroke-miterlimit="10"/>
<path d="M48.6955 102.265L47.9827 101.806L45.6663 99.626V101.289L44.8347 100.716C44.7159 100.831 44.5971 100.888 44.5377 101.003C44.3001 101.117 44.1814 101.117 44.122 100.888C44.122 100.831 44.122 100.773 44.122 100.773C44.2407 100.601 44.122 100.429 43.9438 100.2H43.825C43.6468 100.2 43.4686 100.257 43.231 100.314C43.231 100.257 43.231 100.2 43.231 100.2L43.1122 100.028C42.8746 100.257 42.6964 100.544 42.5776 100.888V101.978L42.934 102.953H42.8746C42.637 103.068 42.4589 103.182 42.2807 103.354C42.1025 103.469 41.9837 103.584 41.7461 103.641C41.2709 103.928 41.2115 104.33 41.6867 104.846H38.4199L36.4004 104.444L35.8658 104.157C35.2125 104.502 34.8561 104.387 34.8561 103.756L33.8464 104.043L33.4306 105.706H32.1239L31.7081 107.083L28.0255 106.624L27.4315 106.222L26.6 106.509C26.5406 106.567 26.4812 106.624 26.4218 106.624C26.3624 106.739 26.2436 106.853 26.1842 106.911C26.1248 107.025 26.0654 107.083 26.006 107.083C25.709 107.083 25.4121 107.025 25.1745 106.911L21.7295 110.524L21.4325 111.328L21.3137 112.303H19.5912L18.7597 112.819V114.081L18.0469 115.056L15.6116 116.146L13.1764 115.343L12.6418 115.859C12.4636 115.802 12.3448 115.802 12.2854 115.859C11.9291 116.088 11.9291 116.318 12.3448 116.547L14.0673 116.433L13.1764 117.121L13.3546 117.809L12.1666 119.702L12.3448 120.964L14.8989 121.538L14.4831 122.628L14.3049 123.832L13.1764 123.431L13.0576 125.496H13.4734L14.4831 126.93L15.3147 127.044L15.6116 127.733L16.0274 127.962L16.3244 128.65L17.0372 129.339C16.9778 129.568 17.0372 129.798 17.0966 129.97C17.1559 130.084 17.2747 130.142 17.4529 130.199C17.5123 130.199 17.5717 130.199 17.5717 130.199C17.7499 130.429 17.8687 130.371 17.8687 130.199L18.5221 131.002L18.4033 131.691L18.9972 132.551V133.928L20.6603 135.304L21.2543 135.993L22.3828 136.222L23.3926 136.796L25.1151 137.369L24.8181 138.287C24.8775 138.23 24.9963 138.172 25.1151 138.23C25.2339 138.115 25.3527 138.172 25.4715 138.23C25.5902 138.402 25.709 138.516 25.7684 138.746C26.006 139.549 26.4218 140.295 26.8376 141.04C27.0752 141.327 27.2534 141.614 27.3721 141.901L28.2631 141.327L28.3819 142.302L31.1141 142.417L32.2427 143.564C32.3021 143.564 32.4208 143.621 32.4208 143.564C32.5396 143.507 32.6584 143.449 32.7178 143.392L32.7772 143.335C32.6584 143.564 32.7178 143.794 32.9554 143.966L34.2027 144.654L34.4997 145.859V146.834L35.3907 147.407H37.232L37.3508 148.899L38.2417 148.612L39.3108 147.924L39.786 147.407L40.7958 147.924L42.2213 147.407L42.0431 146.547L42.5182 146.031L43.0528 145.859L42.0431 142.589L42.5776 140.926L43.9438 141.901L44.8941 140.811L46.3196 141.729C46.4978 141.729 46.6166 141.729 46.7948 141.729C46.7948 141.729 46.8542 141.671 46.9136 141.614H46.973C47.0324 141.212 47.1512 140.811 47.2106 140.352L49.3488 140.237L49.4676 137.369L49.8834 136.509L50.7744 136.107L51.4871 124.52L53.3284 123.316L53.9224 120.563L55.1697 120.39L58.6147 120.677L60.8718 119.587L58.3177 116.834L56.8922 114.482L57.011 112.819L56.4764 111.614L56.5952 110.066L55.7637 109.148L53.4472 108.287H52.4969L52.9126 106.911C52.9126 106.853 52.972 106.796 52.972 106.739C53.0314 106.681 53.0908 106.624 53.0908 106.567C53.2096 106.337 53.3284 106.165 53.4472 105.936L53.2096 104.731L52.6157 104.33V103.641L51.5465 102.838C51.4871 102.896 51.4277 103.01 51.3089 103.068C50.7744 103.068 50.4774 103.068 50.2992 103.125C50.2398 103.125 50.121 103.125 50.0616 103.125C49.5864 103.125 49.2301 102.953 48.9331 102.723C48.7549 102.666 48.6955 102.494 48.6955 102.265Z" fill="#C4DFE9" stroke="white" stroke-miterlimit="10"/>
<path d="M70.5534 165.245C70.494 165.302 70.4346 165.417 70.4346 165.589L69.306 165.991L69.7218 168.056L70.4346 168.572L70.1376 169.719L68.8903 169.834L69.7218 172.874C69.9594 172.989 70.197 173.046 70.4346 173.161L70.1376 172.3L71.7413 173.161C71.5631 173.275 71.4443 173.275 71.3849 173.39C71.3255 173.562 71.3255 173.849 71.4443 174.136L73.4044 174.652L73.1668 175.34L73.8796 175.914C73.7608 175.914 73.642 175.971 73.5826 176.029C73.5232 176.029 73.4638 176.086 73.4044 176.143V176.832L73.8796 177.118L73.5826 177.807L72.8698 177.979C72.6322 177.864 72.454 177.864 72.3353 177.864C72.2165 177.864 72.0977 177.922 72.0383 178.094C71.9789 178.094 71.9789 178.151 71.9789 178.208L71.2661 177.52L69.8406 178.897L70.5534 179.757L71.5631 179.585L72.454 180.159H73.7014L75.0081 181.535L76.0178 181.134L77.2652 182.109L78.0967 181.937L78.5719 183.199L79.5816 184.575L80.2944 183.715L81.3635 182.912L82.4327 183.313H83.1454L84.0958 182.912L85.9964 182.797L90.273 184.977L91.9361 183.313L93.2428 183.485L94.3713 184.002C94.6683 183.83 94.9059 183.715 95.0841 183.6C95.3217 183.715 95.5593 183.887 95.7969 184.002L96.9254 184.174L97.5194 185.264L102.093 186.354L102.806 185.264C102.865 185.149 103.043 185.092 103.34 185.034C103.459 184.977 103.518 184.977 103.637 184.977C103.756 185.034 103.934 185.092 104.053 185.264L104.766 186.354L105.36 186.927L107.201 187.042L107.498 185.264H108.923L109.517 183.485L110.052 184.002L112.072 183.485L112.606 182.912L113.319 183.027L113.2 182.224L114.626 180.847L115.635 180.56L115.22 179.585L116.051 178.208L116.883 178.38L116.467 177.405L117.477 176.717L117.595 175.455L119.615 175.627L120.209 176.315L121.753 176.832L122.169 177.405L123.179 177.979H124.485V176.717L125.02 175.742L124.307 174.939L125.436 174.25L125.911 173.849L126.624 174.136L126.03 173.275L125.317 172.874L126.03 171.899L125.911 171.497L127.336 168.859L126.327 167.883L124.604 168.744L123.594 168.342L123.06 168.572L122.169 168.17H121.456L121.04 167.195L122.882 164.04L124.307 163.065H123.297L122.882 162.664L122.347 163.065C122.228 163.065 122.11 163.008 122.05 162.95C121.991 162.95 121.931 162.95 121.872 162.95C121.872 163.008 121.813 163.065 121.753 163.065L119.199 161.459H119.08C119.08 161.574 119.08 161.688 119.08 161.803C119.021 161.861 119.021 161.918 118.961 161.861C118.961 161.861 118.902 161.803 118.902 161.688L115.635 157.731L114.744 158.132L113.616 157.042V155.952C113.556 155.78 113.497 155.723 113.438 155.666C113.259 155.666 113.081 155.666 112.903 155.608C112.844 155.666 112.784 155.666 112.784 155.666L111.656 154.69L112.19 154.117L111.893 151.937C111.893 152.052 111.893 152.109 111.893 152.224C111.834 152.396 111.775 152.511 111.656 152.511C111.478 152.453 111.359 152.396 111.24 152.281C111.181 152.224 111.121 152.167 111.062 152.052L111.359 151.364L110.468 150.847L109.517 150.561L109.339 152.511C109.28 152.511 109.22 152.511 109.22 152.511C109.161 152.511 109.102 152.511 109.042 152.511C108.923 152.511 108.805 152.568 108.686 152.683C108.567 152.74 108.567 152.798 108.567 152.912C108.627 153.027 108.686 153.199 108.805 153.314L107.795 153.429C107.795 153.658 107.736 153.83 107.676 154.002C107.617 154.002 107.617 154.002 107.498 154.002L106.369 154.576L105.478 155.092L104.053 155.666V154.805L105.241 154.576L106.072 153.314L106.191 152.339L106.785 151.822L106.369 150.847L105.241 150.962L104.528 150.159V148.782L105.36 147.693L104.35 146.431L103.518 146.316L103.103 145.341L103.34 143.964L102.924 143.104L102.093 142.702L99.6576 143.563L98.5291 143.104L95.7969 143.677L95.9751 146.029L96.3908 146.431V148.094L94.7871 148.782C94.6683 148.782 94.5495 148.725 94.4307 148.668C94.3714 148.61 94.2526 148.496 94.2526 148.381C94.2526 148.553 94.1932 148.61 94.1338 148.668C93.9556 148.725 93.7774 148.725 93.5398 148.61C93.421 148.61 93.3616 148.61 93.2428 148.61L92.2331 148.897L92.6489 150.675C92.7676 150.675 92.8864 150.675 92.9458 150.675L93.124 150.618C92.8864 150.733 92.6488 150.847 92.4113 150.962L92.1143 150.274L90.8076 149.987C90.7482 149.987 90.7482 149.987 90.6888 150.044C90.57 150.159 90.5106 150.216 90.4512 150.216C90.273 150.331 90.1542 150.331 89.976 150.331C89.8572 150.331 89.7978 150.331 89.679 150.331C89.6196 150.331 89.5602 150.216 89.5602 150.159L88.1347 149.872C87.7189 150.044 87.422 149.987 87.2438 149.643C87.125 149.585 87.125 149.471 87.125 149.299L84.6897 149.585L83.8582 150.847L84.0958 151.364L83.5612 152.511L83.68 153.887C83.5612 154.174 83.383 154.404 83.0266 154.576C83.0266 154.576 82.9672 154.576 82.8484 154.518C82.789 154.461 82.7296 154.461 82.6702 154.404L81.1259 154.69L79.8192 155.264L79.2846 155.78L78.0967 155.264L77.2652 154.404L76.2554 155.952L75.0081 155.494L74.1172 154.002L73.9984 155.78C73.939 155.838 73.8796 155.895 73.8796 155.952C73.7608 156.067 73.642 156.125 73.4044 156.067C73.345 156.067 73.2856 156.125 73.2262 156.239C73.1074 156.354 73.048 156.469 72.9886 156.583C72.9292 156.641 72.9292 156.755 73.048 156.87C73.048 156.928 73.1074 156.985 73.1668 157.042L72.6916 157.444L71.9789 158.82L71.7413 161.287L71.9789 161.861C71.6819 162.033 71.3849 162.262 71.2067 162.492C71.1473 162.549 71.2067 162.664 71.2661 162.836L71.5631 164.04L71.1473 164.327V165.015C70.9097 165.073 70.7316 165.13 70.5534 165.245Z" fill="#C4DFE9" stroke="white" stroke-miterlimit="10"/>
<path d="M133.217 120.275L132.088 117.923L130.959 116.833V114.194H129.95L129.772 114.366V114.194L128.108 115.055C128.168 115.055 128.227 115.112 128.346 115.227C128.643 115.456 128.584 115.628 128.287 115.743C128.227 115.743 128.227 115.8 128.227 115.858C128.108 116.317 127.871 116.661 127.514 116.948C127.217 117.234 126.861 117.464 126.564 117.693C126.327 117.865 126.148 118.037 125.911 118.21C125.851 118.267 125.733 118.324 125.673 118.382C125.317 118.382 125.079 118.496 124.782 118.783V119.873L122.822 119.988L121.1 120.963L121.812 122.741L120.803 123.143C120.624 123.372 120.446 123.601 120.268 123.831C119.912 124.29 119.496 124.577 119.08 124.749C118.843 124.863 118.605 124.921 118.367 124.978C118.13 124.978 117.892 125.035 117.655 125.093C117.536 125.15 117.417 125.15 117.298 125.093C117.298 125.093 117.239 125.035 117.239 124.978L117.12 124.003L116.407 121.766V121.651H116.526L115.695 121.25L114.388 120.389L113.675 118.783L111.24 119.988V121.078V121.135C111.24 121.135 111.18 121.135 111.121 121.078L109.577 121.651C109.458 121.651 109.399 121.651 109.28 121.594C108.983 121.479 108.686 121.364 108.448 121.192C108.27 121.135 108.151 121.02 108.032 120.963C107.795 120.733 107.676 120.504 107.617 120.217C107.557 120.102 107.617 119.988 107.676 119.873L107.26 118.898L107.438 117.923L106.844 117.407L106.251 119.586V118.496L105.419 118.324L105.003 119.185L102.865 118.21L102.271 117.636V116.546L98.7072 118.783L97.6974 118.898L96.5689 119.299L96.0343 119.185L95.5591 119.873L95.8561 120.389C95.6779 120.619 95.4998 120.791 95.3216 120.963C95.2622 121.02 95.2028 121.078 95.1434 121.078L93.1833 122.053L94.3118 123.315L93.5991 125.38L92.8863 125.781L92.4705 126.642L92.7081 127.215L91.8766 127.731L91.7578 128.42L91.045 128.936C91.045 129.108 91.045 129.223 91.045 129.338C91.045 129.395 91.045 129.452 91.045 129.51C91.1044 129.567 91.1638 129.682 91.2232 129.796C91.342 129.911 91.342 130.083 91.4014 130.198C91.4608 130.542 91.5202 130.944 91.5202 131.288C91.5202 131.345 91.4608 131.345 91.4014 131.402C91.342 131.46 91.2232 131.517 91.2232 131.575C91.1638 131.804 91.045 132.033 91.045 132.263C91.045 132.263 91.045 132.378 90.9856 132.378C90.9262 132.492 90.9262 132.607 90.8668 132.664C90.748 133.009 90.5105 133.181 90.1541 133.238L89.3225 132.779V134.098L89.0255 134.443L88.8473 136.794L89.3225 137.253L90.4511 141.899L88.3128 143.104L87.303 143.276L87.897 144.481L88.7286 144.366L89.7383 143.792L90.3323 145.743C90.5104 145.915 90.6292 146.029 90.8668 146.144L91.1638 148.094L90.5698 148.783L90.4511 149.586L89.6195 150.159C89.6195 150.217 89.6789 150.331 89.7383 150.331C89.8571 150.331 89.9165 150.331 90.0353 150.331C90.2135 150.331 90.3323 150.331 90.5104 150.217C90.5698 150.217 90.6292 150.159 90.748 150.045C90.8074 149.987 90.8074 149.987 90.8668 149.987L92.1736 150.274L92.4705 150.962C92.7081 150.848 92.9457 150.733 93.1833 150.618L93.0051 150.676C92.9457 150.676 92.8269 150.676 92.7081 150.676L92.2923 148.897L93.3021 148.611C93.4209 148.611 93.4803 148.611 93.5991 148.611C93.8366 148.725 94.0148 148.725 94.193 148.668C94.2524 148.611 94.3118 148.553 94.3118 148.381C94.3118 148.496 94.4306 148.611 94.49 148.668C94.6088 148.725 94.7276 148.783 94.8464 148.783L96.4501 148.094V146.431L96.0343 146.029L95.8561 143.678L98.5884 143.104L99.7169 143.563L102.152 142.703L102.984 143.104L103.399 143.964L103.162 145.341L103.578 146.316L104.409 146.431L105.419 147.693L104.587 148.783V150.159L105.3 150.962L106.429 150.848L106.844 151.823L106.251 152.339L106.132 153.314L105.3 154.576L104.112 154.806V155.666L105.538 155.092L106.429 154.576L107.557 154.003C107.676 154.003 107.676 154.003 107.735 154.003C107.795 153.83 107.854 153.658 107.854 153.429L108.864 153.314C108.745 153.199 108.686 153.027 108.626 152.913C108.626 152.798 108.626 152.741 108.745 152.683C108.864 152.569 108.983 152.511 109.102 152.511C109.161 152.511 109.22 152.511 109.28 152.511C109.28 152.511 109.339 152.511 109.399 152.511L109.577 150.561L110.527 150.848L111.418 151.364L111.121 152.052C111.18 152.167 111.24 152.224 111.299 152.282C111.418 152.396 111.537 152.454 111.715 152.511C111.834 152.511 111.893 152.396 111.953 152.224C111.953 152.11 111.953 152.052 111.953 151.938L112.25 154.117L111.715 154.691L112.844 155.666C112.844 155.666 112.903 155.666 112.962 155.609C113.141 155.666 113.319 155.666 113.497 155.666C113.556 155.723 113.616 155.781 113.675 155.953V157.043L114.804 158.132L115.695 157.731L118.961 161.689C118.961 161.804 119.021 161.861 119.021 161.861C119.08 161.918 119.08 161.861 119.14 161.804C119.14 161.689 119.14 161.574 119.14 161.459H119.258L121.812 163.065C121.872 163.065 121.931 163.008 121.931 162.951C121.991 162.951 122.05 162.951 122.109 162.951C122.169 163.008 122.288 163.065 122.406 163.065L122.941 162.664L123.357 163.065H124.366H125.079L126.208 160.771L126.386 158.247C126.505 158.075 126.683 157.903 126.802 157.731C127.099 157.559 127.396 157.444 127.633 157.329L127.811 155.781L125.495 156.756L125.97 155.781L126.505 155.494L126.92 154.806H127.93C127.99 154.748 127.99 154.633 127.99 154.576C127.871 154.232 127.811 153.888 127.633 153.601C127.574 153.372 127.514 153.142 127.574 152.97C127.752 152.511 127.99 152.454 128.227 152.913L128.643 153.314H129.653L130.247 149.873L129.059 148.209C129.059 147.922 129.059 147.636 129.059 147.406C128.999 146.947 128.999 146.546 128.881 146.144C128.762 145.571 128.702 144.997 128.702 144.366C128.643 144.079 128.702 143.735 128.881 143.448C128.999 143.104 129.178 142.76 129.356 142.416C129.593 142.072 129.831 141.727 130.069 141.326C130.128 141.211 130.187 141.096 130.187 140.924C130.306 140.638 130.365 140.293 130.365 139.949C130.365 139.376 130.306 138.802 130.128 138.228C130.128 138.056 130.069 137.884 129.95 137.712C129.712 137.311 129.534 136.794 129.475 136.335C129.296 135.532 129.178 134.672 129.059 133.812C129.059 133.41 128.881 133.009 128.702 132.664C128.524 132.378 128.346 132.148 128.227 131.861C128.108 131.804 128.049 131.632 127.99 131.517C127.811 131.23 127.693 130.944 127.514 130.657L127.93 129.796L128.94 128.534L130.365 128.649L132.088 127.961C132.266 127.846 132.444 127.674 132.563 127.502C132.86 127.215 133.098 126.928 133.335 126.584C133.454 126.355 133.632 126.068 133.81 125.781C134.048 125.494 134.167 125.15 134.286 124.806C134.345 124.347 134.345 123.946 134.226 123.487C134.048 123.085 133.87 122.684 133.692 122.34C133.573 122.167 133.514 122.053 133.514 121.938C133.454 121.651 133.395 121.364 133.335 121.135C133.276 121.078 133.276 121.02 133.276 120.963C133.217 120.733 133.217 120.504 133.217 120.275Z" fill="#C4DFE9" stroke="white" stroke-miterlimit="10"/>
<path d="M169.27 70.3152C169.211 70.3152 169.092 70.3726 169.092 70.3152C168.973 70.2005 168.795 70.1431 168.736 70.0284L167.726 70.7167L167.013 71.4051L164.875 69.2254L165.469 66.7015L164.994 66.3L164.162 63.5467C164.222 63.3172 164.281 63.2025 164.162 63.0304C164.103 62.9157 163.984 62.801 163.746 62.7436C163.628 62.7436 163.509 62.7436 163.449 62.7436L162.143 60.5639L162.558 59.302L162.737 58.6137L161.133 57.1223L159.47 56.6634L158.698 57.9253L157.45 58.6137L158.282 59.4741L156.856 60.2771L155.728 58.499L154.837 56.1472L155.431 55.4588L154.005 54.7705L154.599 53.2218L155.312 52.7055L154.48 51.7304L151.332 51.6157L149.907 50.6406L145.63 51.1568L145.215 50.4685L144.205 49.7801L142.067 49.5507H140.641L139.334 50.0669C139.275 50.1243 139.216 50.1243 139.156 50.1243C139.156 50.1243 139.097 50.1243 138.978 50.0096L138.206 48.9771L137.196 48.1741L136.483 46.7974L134.642 45.1339L133.811 44.7324L132.623 43.1837L135.058 40.8319L134.761 40.3157L135.474 40.1436L135.652 39.1111C135.355 38.8816 135.355 38.7096 135.652 38.5375L135.058 37.8492L134.226 37.9639L133.514 37.6771L133.098 36.9888L132.088 35.7842L130.247 36.1857L128.346 36.0136L126.921 38.2507L127.218 39.1111L127.099 39.6273L126.089 40.4304L124.248 40.8319L125.257 42.5527L124.96 43.872L124.248 44.5603L124.545 45.7076L124.248 46.2238L124.366 47.0268L124.782 47.8873L125.97 48.6903L127.099 49.2639L127.811 50.6406C127.99 50.6406 128.168 50.6406 128.346 50.7553C128.643 50.7553 128.643 50.9847 128.227 51.3289L130.663 52.4187L131.197 54.5984C131.375 54.7705 131.494 54.9426 131.672 55.172V56.8355L132.207 57.5238L131.91 58.3269L130.663 57.8106H129.95L128.821 58.0401L128.227 59.8756L128.821 60.9654L128.524 62.17H127.218L125.079 61.2522L123.654 61.7685L124.545 62.17L125.079 63.0304L123.238 64.1203L123.119 64.6939L122.228 64.9233L122.109 66.0705L120.684 66.9883L121.218 68.0782L120.803 68.9386L120.981 69.9137C121.278 70.5447 121.634 71.1756 121.991 71.8066C122.169 72.0934 122.347 72.3802 122.585 72.6096C122.644 72.667 122.703 72.7244 122.822 72.7244C123 72.7244 123.179 72.667 123.357 72.667L123.951 73.5848L124.96 74.5599L125.257 77.0264L123.654 78.403L125.97 81.6152L127.514 82.8198L128.227 84.8848L129.237 85.1716L129.059 86.4335L131.078 87.2366C131.019 87.4086 130.959 87.5807 130.9 87.8102C130.841 88.0396 130.781 88.3264 130.663 88.6132C130.603 88.9574 130.544 89.2442 130.484 89.5884C130.484 89.8178 130.366 90.1046 130.187 90.3914C129.89 90.9076 129.593 91.4239 129.237 91.9401C129.178 92.1122 129.118 92.2843 129.118 92.4564C129.059 92.7432 129.059 93.03 129.059 93.3168C128.999 93.4889 128.999 93.6609 128.94 93.833C128.881 94.1198 128.821 94.4066 128.762 94.6934C128.762 94.8082 128.702 94.9229 128.762 95.0376C128.821 95.4391 128.94 95.8406 128.999 96.2422C129.059 96.3569 129.059 96.4716 129.118 96.5863C129.296 97.5041 129.475 98.4219 129.772 99.3396C129.831 99.6264 129.95 99.9133 130.128 100.143C130.247 100.315 130.366 100.429 130.544 100.544C130.722 100.716 130.959 100.888 131.197 101.003C131.435 101.175 131.613 101.347 131.791 101.577C131.969 101.749 132.088 101.921 132.207 102.093C132.444 102.437 132.682 102.781 132.92 103.068L133.335 102.38L132.504 100.716L137.612 102.781L138.919 101.691L139.334 100.716L140.76 100.315L142.067 98.8234L143.908 98.6513L144.205 99.2249L145.452 96.4716L147.056 96.2995L150.62 99.0528L149.016 100.716L148.303 103.068L149.194 104.33L149.907 103.355L152.045 102.953L154.302 101.003L156.441 101.577L157.866 97.4467L160.895 98.1351L161.608 97.2747C161.846 97.6762 162.143 98.0204 162.38 98.4219C162.677 98.8234 162.855 99.2823 163.093 99.7985C163.212 100.2 163.331 100.602 163.449 101.003C163.449 101.175 163.509 101.29 163.568 101.405C164.043 102.265 164.578 103.125 165.053 103.986C165.231 104.273 165.469 104.559 165.766 104.846C166.063 105.19 166.419 105.535 166.835 105.879C167.251 106.166 167.667 106.51 168.142 106.854C168.973 107.37 169.745 107.944 170.458 108.575L171.587 108.173L173.25 108.861L174.972 105.42L177.586 107.083L179.783 107.6L179.962 106.108L183.407 104.445L184.001 104.043L184.951 104.732L185.664 102.667L184.951 102.38L183.11 98.2498L182.813 96.9879L185.248 93.4315L184.238 90.7929L180.08 88.7279L181.387 85.2863L180.259 82.8198C180.259 82.7624 180.259 82.6477 180.199 82.5904C180.08 82.4183 179.902 82.2462 179.783 82.0741C179.665 81.902 179.486 81.6726 179.249 81.4432C178.892 81.0416 178.417 80.6975 177.823 80.468C177.705 80.468 177.586 80.4107 177.408 80.3533C177.348 80.3533 177.348 80.3533 177.289 80.3533C176.932 79.9518 176.517 79.665 176.16 79.4929C176.101 79.4355 176.041 79.4355 175.982 79.3782C174.854 78.6325 173.725 77.8868 172.596 77.1985C172.596 77.0838 172.656 77.0264 172.596 76.969C172.418 76.4528 172.24 75.9939 172.002 75.535C171.884 75.4203 171.765 75.3056 171.646 75.1909C170.993 74.6746 170.28 74.1584 169.627 73.6995C169.448 73.5274 169.27 73.3553 169.092 73.1832L170.993 70.4299L170.458 70.0284L169.983 70.602L169.567 70.1431C169.448 70.2005 169.389 70.2579 169.27 70.3152ZM141.354 65.7837L142.067 66.7015C142.007 66.9883 141.948 67.2751 141.888 67.5619L142.898 68.0782L142.364 68.537L143.908 69.9137L144.502 69.7416L145.036 70.1431L146.462 70.4299L146.878 71.8066L149.61 71.6919L149.313 72.8964L150.026 73.8716L150.204 74.8467L148.184 75.6497L147.769 76.6249L147.056 76.5102L146.759 77.1985C146.581 77.3132 146.343 77.4279 146.165 77.5426C145.927 77.6574 145.809 77.6 145.749 77.3132L144.739 78.0015L145.215 78.403L143.076 81.4432L141.651 81.73C141.413 81.73 141.176 81.73 140.938 81.73L139.334 80.2386L139.631 79.665L139.037 79.3782L138.206 78.5751L137.79 79.2635L136.186 79.7797L135.652 79.5503L133.929 79.7797L132.801 80.3533L133.098 78.8619L132.92 77.6L133.811 76.797V75.8218L134.048 74.8467L132.207 73.0685L132.385 71.9787L131.91 70.7167C131.791 70.7167 131.732 70.7741 131.732 70.7741C131.732 70.5447 131.85 70.5447 131.91 70.7167V69.6269L131.969 69.4548C131.672 69.5695 131.553 69.5122 131.672 69.3401L132.207 67.2751H133.514C133.87 67.5045 134.108 67.3898 134.226 66.9883C134.226 66.9309 134.226 66.8736 134.226 66.8736C134.226 66.7015 134.226 66.6441 134.286 66.5868C134.345 66.5868 134.523 66.6441 134.642 66.7015C134.761 66.6441 134.939 66.7015 135.058 66.8736L136.483 66.5868L136.365 65.3822H138.503L138.087 66.5868L139.631 65.0954L141.354 65.7837Z" fill="#C4DFE9" stroke="white" stroke-miterlimit="10"/>
<path d="M75.305 73.0099C75.1268 73.182 74.9486 73.182 74.711 73.0673H73.7013C73.7013 73.0673 73.7013 73.1246 73.7013 73.182C73.7013 73.2394 73.7013 73.2967 73.6419 73.2967C73.6419 73.3541 73.6419 73.4114 73.5825 73.4688C73.5231 73.813 73.1667 74.0424 72.5728 74.1571C72.5728 74.0424 72.5728 73.8703 72.5728 73.7556C72.5134 73.813 72.454 73.8703 72.3946 73.813C72.0976 73.6983 71.86 73.4688 71.7412 73.182L70.8503 73.8703L70.1375 72.8952L69.8405 74.1571L68.712 74.7307L67.8804 73.8703L67.4647 72.8952L66.2767 74.4439C66.2767 74.4439 66.2767 74.5013 66.3361 74.5587C66.3361 74.616 66.3361 74.6734 66.3361 74.6734C66.2767 74.7881 66.2173 74.9028 66.1579 74.9602L65.3264 75.8206L64.0197 75.5338L63.6039 75.1323V74.1571L62.4754 72.6658L61.2874 71.5186L60.8717 73.182L59.8619 74.1571L58.9116 74.5587L57.486 74.4439L56.5951 75.1323L55.5854 74.8455L54.0411 74.7307L53.3283 74.8455L52.4967 74.5587L52.0216 73.8703L51.0712 74.7307L52.0216 77.0252L52.6155 77.312L51.784 78.0003L56.4763 81.614L55.4666 82.4171L53.6253 82.5318L52.6155 83.5069L52.9125 84.5968L52.1998 84.8836L52.4967 89.415L52.1998 91.3653L51.487 92.1683L51.6058 92.8567L51.487 93.3156L52.0216 95.2085L52.6155 95.61L52.0216 95.8968L51.9028 97.847L50.7742 98.6501L49.8833 97.9617L49.4675 98.1338L45.7849 98.6501L45.6068 99.6252L47.9232 101.805L48.636 102.264C48.636 102.493 48.7548 102.665 48.933 102.723C49.2299 102.952 49.5863 103.124 50.0615 103.124C50.1209 103.124 50.2397 103.124 50.2991 103.124C50.4773 103.067 50.7742 103.067 51.3088 103.067C51.4276 103.009 51.487 102.895 51.5464 102.837L51.487 102.78C51.487 102.78 51.487 102.78 51.5464 102.78C51.5464 102.78 51.5464 102.78 51.5464 102.837L52.6155 103.64V104.329L53.2095 104.73L53.4471 105.935C53.3283 106.164 53.2095 106.336 53.0907 106.566C53.0907 106.623 53.0313 106.681 52.9719 106.738C52.9719 106.795 52.9125 106.853 52.9125 106.91L52.4967 108.287H53.4471L55.7635 109.147L56.5951 110.065L56.4763 111.614L57.0109 112.818L56.8921 114.482L58.3176 116.833L60.8717 119.587L62.4754 119.873L63.0099 119.587H64.3166L81.2446 111.441L81.9574 111.9H82.8484L83.9769 110.925L83.8581 109.549L91.2233 106.107L94.9652 107.254L95.0246 107.312C95.1434 107.139 95.2028 107.139 95.3216 107.139C95.6186 107.254 95.975 107.484 96.2126 107.77L97.6381 106.394L97.9351 104.443L98.9448 104.042L100.252 102.78H99.2418L98.1132 101.117L97.8163 99.2237L99.2418 98.1338L98.6478 97.4455L98.232 93.545L98.9448 93.0287L98.6478 92.4551L98.826 89.9886L97.6381 89.7018L96.5095 88.3252V87.8089L95.381 86.9485L93.6585 87.9237L92.1142 85.8587H91.1045L91.5202 83.7937C91.5796 83.7363 91.5796 83.679 91.639 83.679C91.6984 83.5069 91.6984 83.4495 91.6984 83.3922C91.4608 83.2201 91.1639 83.048 90.8075 82.9907L90.3917 82.3023L89.5602 81.8434L88.491 82.3023L87.5407 82.0155L86.9467 82.3023L87.1249 81.3272L86.4121 80.4668C86.0558 80.4094 85.8182 80.2947 85.6994 80.2374L85.8182 80.0653C86.1152 80.0079 86.3527 79.8358 86.4715 79.6637C86.5903 79.549 86.5903 79.4343 86.4715 79.2622C86.4121 79.2049 86.4121 79.1475 86.4121 79.0901L84.9272 78.5739L84.2739 78.9754L83.5611 78.5739L81.9574 79.3769L80.8289 80.2374L81.2446 81.0404L80.5319 82.7039H78.6906L78.5718 85.5719C78.5718 85.6292 78.5124 85.6292 78.5124 85.6292C78.3936 85.744 78.2748 85.8013 78.0966 85.8587C78.0966 85.916 78.0372 85.916 78.0372 85.9734C77.9778 85.744 77.859 85.5145 77.7996 85.3424C77.6809 84.8835 77.6809 84.4247 77.6809 83.7937C77.7403 83.3922 77.6215 83.1627 77.2651 83.1054L76.4335 82.7039L75.8396 81.4419L76.4335 80.4668L77.4433 80.2374L78.0966 78.6886L78.9876 78.1724C78.9282 78.115 78.9282 78.0577 78.8688 78.0003C78.6906 77.7709 78.75 77.5414 79.1064 77.312L76.7305 73.0673L76.2553 73.5835C76.4335 73.813 76.4929 74.0424 76.4335 74.2719C76.4335 74.4439 76.3147 74.3866 76.0178 74.1571L75.8396 74.2719V74.1571L75.6614 74.2145C75.6614 73.9851 75.7208 73.7556 75.8396 73.4688C75.8396 73.4114 75.8396 73.3541 75.8396 73.3541C75.7802 73.2394 75.6614 73.182 75.5426 73.1247C75.4832 73.0099 75.305 73.0099 75.305 73.0099Z" fill="#C4DFE9" stroke="white" stroke-miterlimit="10"/>
<path d="M97.4599 75.2453C97.2817 75.2453 97.2223 75.1879 97.1035 75.1306C96.9253 75.1306 96.6877 75.1879 96.4502 75.3026C96.3908 75.36 96.3314 75.4747 96.272 75.5321L95.7374 74.9585L94.3119 75.1306L94.0149 77.9986L93.1833 78.6869L93.0052 80.7519L91.2827 81.1534L90.4511 82.3006L90.8669 82.9889C91.2233 83.0463 91.5202 83.2184 91.7578 83.3905C91.7578 83.4478 91.7578 83.5052 91.6984 83.6773C91.639 83.6773 91.639 83.7346 91.5796 83.792L91.1639 85.857H92.1736L93.7179 87.9219L95.4404 86.9468L96.5689 87.8072V88.3235L97.6975 89.7001L98.8854 89.9869L98.7072 92.4534L99.0042 93.027L98.2914 93.5433L98.7072 97.4438L99.3012 98.1321L97.8757 99.222L98.1727 101.115L99.3012 102.778H100.311L99.0042 104.04L97.9945 104.442L97.6975 106.392L96.272 107.769L97.1629 108.973L97.9945 111.727L96.8659 112.587L97.5787 112.988L97.1629 116.029L97.6975 118.897L98.7072 118.782L102.271 116.545V117.635L102.865 118.208L105.003 119.183L105.419 118.323L106.251 118.495V119.585L106.845 117.405L107.439 117.921L107.26 118.897L107.676 119.872C107.617 119.986 107.557 120.101 107.617 120.216C107.676 120.503 107.795 120.732 108.032 120.962C108.151 121.019 108.27 121.134 108.448 121.191C108.686 121.363 108.983 121.478 109.28 121.593C109.399 121.65 109.458 121.65 109.577 121.65L111.121 121.076H111.24V119.986L113.675 118.782L114.388 120.388L115.695 121.248L116.526 121.65V121.765H116.407L117.12 124.002L117.239 124.977C117.239 125.034 117.298 125.092 117.298 125.092C117.417 125.149 117.536 125.149 117.655 125.092C117.892 125.034 118.13 124.977 118.367 124.977C118.605 124.919 118.843 124.862 119.08 124.747C119.496 124.575 119.912 124.289 120.268 123.83C120.446 123.6 120.625 123.371 120.803 123.141L121.812 122.74L121.1 120.962L122.822 119.986L124.782 119.872V118.782C125.079 118.495 125.317 118.38 125.673 118.38C125.733 118.323 125.851 118.266 125.911 118.208C126.148 118.036 126.327 117.864 126.564 117.692C126.861 117.463 127.218 117.233 127.515 116.946C127.871 116.66 128.108 116.315 128.227 115.857C128.227 115.799 128.227 115.742 128.287 115.742C128.584 115.627 128.643 115.455 128.346 115.226C128.227 115.111 128.168 115.053 128.108 115.053L129.772 114.193H129.95H130.96C131.019 113.792 131.138 113.39 131.375 113.046C131.613 112.587 131.85 112.128 132.147 111.727C132.326 111.497 132.385 111.268 132.504 111.038C132.563 110.809 132.563 110.579 132.623 110.35C132.623 110.12 132.623 109.891 132.682 109.662C132.682 109.604 132.682 109.489 132.682 109.432C132.682 108.801 132.563 108.228 132.326 107.654C132.088 106.966 132.029 106.277 132.088 105.532C132.147 105.417 132.147 105.302 132.207 105.13L132.92 104.04V103.065C132.682 102.778 132.444 102.434 132.207 102.09C132.088 101.918 131.969 101.746 131.791 101.574C131.613 101.344 131.435 101.172 131.197 101C130.96 100.885 130.722 100.713 130.544 100.541C130.366 100.427 130.247 100.312 130.128 100.14C129.95 99.9103 129.831 99.6235 129.772 99.3367C129.475 98.4189 129.296 97.5011 129.118 96.5834C129.059 96.4687 129.059 96.3539 128.999 96.2392C128.94 95.8377 128.821 95.4362 128.762 95.0346C128.702 94.9199 128.762 94.8052 128.762 94.6905C128.821 94.4037 128.881 94.1169 128.94 93.8301C128.999 93.658 128.999 93.4859 129.059 93.3138C129.059 93.027 129.059 92.7402 129.118 92.4534C129.118 92.2813 129.178 92.1093 129.237 91.9372C129.593 91.4209 129.89 90.9047 130.187 90.3884C130.366 90.1016 130.484 89.8148 130.484 89.5854C130.544 89.2412 130.603 88.9544 130.663 88.6103C130.781 88.3235 130.841 88.0367 130.9 87.8072C130.96 87.5778 131.019 87.4057 131.078 87.2336L129.059 86.4306L129.237 85.1686L128.227 84.8818L127.515 82.8169L125.97 81.6123L123.654 78.4001L125.257 77.0234L124.96 74.5569L123.951 73.5818L123.357 72.664C123.179 72.664 123 72.7214 122.822 72.7214C122.703 72.7214 122.644 72.664 122.585 72.6067C122.347 72.3772 122.169 72.0904 121.991 71.8036C121.634 71.1727 121.278 70.5417 120.981 69.9107L120.803 68.9356L121.218 68.0752L120.684 66.9854L117.655 67.6737L116.11 67.1574L114.566 67.559L113.378 68.362L111.418 68.5341L111.834 69.3371L112.131 70.8285L113.378 71.8036L113.972 73.0656L112.25 72.0904L111.121 72.664L110.824 73.5818L109.993 72.7788L109.102 72.664L107.439 74.9585L106.013 74.5569L105.122 75.9336L106.132 77.0234L104.112 77.1955L103.281 78.2854L101.439 76.5072L100.845 76.3351L100.133 75.5321V74.729L98.1727 73.1803C98.1133 73.3524 98.0539 73.5245 97.9945 73.7539L97.4599 75.2453Z" fill="#C4DFE9" stroke="white" stroke-miterlimit="10"/>
<path d="M19.7099 75.247L19.1159 74.9602L18.2844 74.7307L18.4032 76.6236L18.1062 77.8855L17.0964 78.5739L18.1062 79.3769L19.2347 83.5069L18.9971 84.482L18.2844 85.1703H17.0964L16.9777 87.35C16.9183 87.35 16.8589 87.35 16.8589 87.4074C16.7995 87.4074 16.7401 87.4647 16.7401 87.5221C16.7401 87.5795 16.7995 87.6942 16.8589 87.8089H15.9679L16.3837 89.5871L17.2746 89.3003L17.6904 91.2505C17.5716 91.3079 17.3934 91.3653 17.2746 91.48C17.0964 91.5947 17.0964 91.8242 17.2746 92.0536C17.334 92.2257 17.3934 92.283 17.5716 92.3404V92.1683L17.6904 92.3404L20.2445 92.0536L20.8384 92.7419C20.8384 92.9714 20.779 93.2008 20.6602 93.3729C20.6602 93.4302 20.5414 93.4302 20.3633 93.4302C20.0663 93.4876 19.7693 93.6023 19.6505 93.7744C19.4723 93.9465 19.4129 94.2333 19.4129 94.5201L18.2844 95.0937L17.6904 95.6099L18.522 97.1587L18.9971 96.9866L20.0663 98.1338L18.2844 98.5353L16.2649 99.6252C16.3837 99.7973 16.5025 99.912 16.6807 99.912C16.9183 99.8546 17.1558 99.7399 17.4528 99.5678C17.4528 99.5105 17.5122 99.5105 17.5716 99.5105L18.522 100.715L19.5317 101.403L18.1062 101.977V102.092L17.9874 101.977H15.5521L15.1364 101.289L13.2951 101.575L12.9981 101.002L11.8696 101.117C11.929 101.289 11.8696 101.461 11.7508 101.575C11.6914 101.633 11.6914 101.575 11.5726 101.518C11.4538 101.461 11.2756 101.346 11.1568 101.289L9.73128 101.002L9.4343 100.428L8.72154 101.977L8.42456 103.64C8.24637 103.583 8.06818 103.64 7.7118 103.812C7.47422 103.927 7.23663 104.157 7.11784 104.443C7.05844 104.558 6.99904 104.616 6.99904 104.73L6.16749 105.017H4.97957L3.31646 107.197L2.42552 107.885L2.30672 108.459L1.71276 109.147C1.47517 109.147 1.29698 109.262 1.17819 109.319C1.0594 109.376 1 109.434 1 109.549C1 109.606 1.0594 109.721 1.17819 109.835L1.29698 109.95H1.17819L3.73224 110.352L5.69232 109.663L6.16749 109.262L7.8306 109.663L9.01853 109.549L9.25611 110.352L10.2659 110.925L11.5726 112.015L11.1568 112.99L10.9786 114.195L9.85008 114.482L9.73128 115.743C9.96887 115.743 10.1471 115.858 10.2065 116.03C10.3252 116.145 10.3252 116.317 10.2659 116.547L9.96887 117.522L11.1568 118.612V119.472C11.2756 119.415 11.335 119.644 11.3944 119.988L12.1071 119.701L13.2951 117.808L13.1169 117.12L14.0078 116.432L12.2853 116.547C11.8696 116.317 11.8696 116.088 12.2259 115.858C12.2853 115.801 12.4041 115.801 12.5823 115.858L13.1169 115.342L15.5521 116.145L17.9874 115.055L18.7002 114.08V112.818L19.5317 112.302H21.2542L21.373 111.327L21.67 110.524L25.115 106.91C25.3526 107.025 25.6495 107.082 25.9465 107.082C26.0059 107.082 26.0653 107.025 26.1247 106.91C26.1841 106.853 26.3029 106.738 26.3623 106.623C26.4217 106.623 26.4811 106.566 26.5405 106.508L27.372 106.222L27.966 106.623L31.6486 107.082L32.0644 105.705H33.3711L33.7869 104.042L34.7966 103.755C34.7966 104.386 35.153 104.501 35.8063 104.157L36.3409 104.443L38.3604 104.845H41.6272C41.152 104.329 41.2114 103.927 41.6866 103.64C41.9242 103.583 42.043 103.468 42.2212 103.354C42.3994 103.182 42.5775 103.067 42.8151 102.952H42.8745L42.5181 101.977V100.887C42.6369 100.543 42.8151 100.256 43.0527 100.027L43.1715 100.199C43.1715 100.199 43.1715 100.256 43.1715 100.314C43.4091 100.256 43.5873 100.199 43.7655 100.199H43.8843C44.0625 100.428 44.1812 100.6 44.0625 100.772C44.0625 100.772 44.0625 100.83 44.0625 100.887C44.1218 101.117 44.2406 101.117 44.4782 101.002C44.5376 100.887 44.6564 100.83 44.7752 100.715L45.6068 101.289V99.6252L45.785 98.6501L49.4675 98.1338L49.8833 97.9617L50.7743 98.6501L51.9028 97.847L52.0216 95.8967L52.6155 95.6099L52.0216 95.2084L51.487 93.3155L51.6058 92.8566L51.487 92.1683L52.1998 91.3653L52.4968 89.415L52.1998 84.8835L52.9125 84.5967L52.6155 83.5069L53.6253 82.5317L55.4666 82.417L56.4763 81.614L51.784 78.0003L52.6155 77.3119L52.0216 77.0251L51.0712 74.7307L49.7645 74.4439L49.4675 74.8454L48.933 74.9602L47.745 76.1074L45.3692 76.6236H45.0722L45.191 76.5089V76.3368L45.3692 76.5089L45.488 76.1074L45.6068 75.9353V75.8206V75.6485H45.785L45.6068 75.5338H45.785L45.9037 75.1322V74.9602L46.4977 73.7556L45.6068 72.8952L43.3497 74.7307L42.5181 74.9602L42.2212 75.419L41.0926 76.1074L40.4987 76.6236L40.0829 75.6485L39.1919 75.419C39.1325 75.419 39.0138 75.4764 39.0138 75.4764V75.419C38.9544 75.0175 38.895 74.9028 38.7762 74.9602C38.3604 74.9602 38.1228 75.0749 38.2416 75.419L37.0537 74.8454L36.1033 73.0673L34.7966 73.8703L34.2026 73.3541L33.6681 73.7556L30.5201 74.5586L30.1043 75.419L29.8073 74.8454L28.3818 74.5586L27.372 73.7556L27.0751 72.7805L26.1247 73.182L23.9864 74.4439L23.8083 75.1322L21.1354 74.9602L20.3633 76.1074L19.7099 75.247Z" fill="#C4DFE9" stroke="white" stroke-miterlimit="10"/>
<path d="M64.3167 119.586H63.0099L62.4754 119.873L60.8717 119.586L58.6146 120.676L55.1696 120.389L53.9223 120.561L53.3283 123.315L51.487 124.519L50.7743 136.106L49.8833 136.508L49.4675 137.368L49.3488 140.236L47.2105 140.351C47.1511 140.81 47.0323 141.211 46.9729 141.613H46.9135C46.8541 141.67 46.7947 141.727 46.7947 141.727C46.6165 141.727 46.4977 141.727 46.3195 141.727L44.894 140.81L43.9437 141.899L42.5776 140.924L42.043 142.588L43.0527 145.857L42.5182 146.029L42.043 146.546L42.2212 147.406L40.7957 147.922L39.7859 147.406L39.3107 147.922L38.2416 148.611L37.3507 148.897L37.2319 147.406H35.3906L34.4996 146.832V147.808L34.9154 148.209V149.471L35.6282 149.873L36.1033 150.676L36.9349 151.134L38.0634 152.224C38.2416 152.167 38.4198 152.11 38.598 152.167C38.7168 152.224 38.8356 152.339 38.9544 152.511L39.192 153.429H40.3799L43.0527 155.092L43.7655 155.953H44.3594L45.0722 156.641L46.2007 157.157C46.2007 157.1 46.2601 157.043 46.3195 157.043C46.4977 157.043 46.6165 157.043 46.7947 157.043C47.3293 156.985 47.5075 157.157 47.2699 157.559C47.2699 157.616 47.2105 157.674 47.2105 157.731L48.339 158.419L48.4578 159.624L48.042 160.886C48.1608 161.058 48.2796 161.173 48.3984 161.173C48.5766 161.287 48.6954 161.23 48.8736 161.115C48.933 161.115 48.9924 161.058 49.0518 161C49.23 161.115 49.4082 161.173 49.5863 161.115C49.6457 161.115 49.7051 161.058 49.7645 160.886C49.8239 160.886 49.8239 160.886 49.8833 160.886L49.7645 161.976L50.4773 162.148L49.1706 163.238L50.5961 163.065L51.0713 164.327C51.0119 164.327 50.9525 164.327 50.9525 164.327C50.8337 164.213 50.7743 164.155 50.7149 164.098C50.5367 164.041 50.4773 164.155 50.4773 164.442L52.0216 164.729C52.1404 164.729 52.1998 164.729 52.1998 164.729C52.1404 164.958 52.0216 165.188 51.9028 165.417L51.6058 166.392L53.4471 166.794L51.6058 167.654L53.4471 168.343L53.3283 169.26C53.3283 169.375 53.3877 169.432 53.5065 169.547C53.6253 169.662 53.8035 169.662 53.9223 169.605C54.0411 169.547 54.1599 169.432 54.2193 169.318C54.3381 169.26 54.4569 169.146 54.635 169.146L54.4569 169.949C54.3975 170.006 54.3381 170.063 54.3381 170.121C54.0411 170.121 53.9223 170.235 53.9817 170.465C54.0411 170.522 54.1005 170.58 54.1599 170.694L55.1696 169.547C55.1102 169.547 55.0508 169.432 55.0508 169.432C54.8726 169.26 54.8726 169.146 55.1102 168.974C55.1696 168.974 55.2884 168.974 55.4666 169.031L55.8824 170.235L56.8921 169.26L56.4763 170.694C56.4169 170.809 56.4169 170.924 56.4169 171.039C56.4763 171.096 56.5357 171.153 56.5951 171.211C56.9515 171.153 57.1891 171.096 57.4861 170.981C57.5455 170.981 57.6049 170.981 57.6049 170.981C57.6049 171.096 57.6049 171.268 57.5455 171.44C57.5455 171.497 57.4861 171.497 57.4861 171.497L55.7636 171.211L55.5854 172.3L57.6049 172.186V173.161L58.7334 172.874C58.7334 172.989 58.7928 173.046 58.8522 173.046C59.1492 173.276 59.4462 173.276 59.7431 173.161C59.8025 173.104 59.7431 173.046 59.6837 172.874C59.6243 172.759 59.565 172.587 59.4462 172.473L59.8619 171.899L64.1385 173.161L65.4452 172.874C65.7422 172.989 66.0986 173.161 66.3361 173.39C66.7519 173.677 67.1083 173.964 67.4647 174.365C67.7617 174.652 68.0587 174.939 68.2962 175.169C68.5932 175.455 68.7714 175.799 69.009 176.144C69.1872 176.545 69.3654 176.947 69.4842 177.406C69.5436 177.463 69.603 177.578 69.7217 177.692L69.8405 178.897L71.2661 177.52L71.9788 178.209C71.9788 178.151 71.9788 178.094 72.0382 178.094C72.0976 177.922 72.2164 177.864 72.3352 177.864C72.454 177.864 72.6322 177.864 72.8698 177.979L73.5825 177.807L73.8795 177.119L73.4043 176.832V176.144C73.4637 176.086 73.5231 176.029 73.5825 176.029C73.6419 175.972 73.7607 175.914 73.8795 175.914L73.1667 175.341L73.4043 174.652L71.4443 174.136C71.3255 173.849 71.3255 173.562 71.3849 173.39C71.4442 173.276 71.563 173.276 71.7412 173.161L70.1375 172.3L70.4345 173.161C70.1969 173.046 69.9593 172.989 69.7217 172.874L68.8902 169.834L70.1375 169.719L70.4345 168.572L69.7217 168.056L69.306 165.991L70.4345 165.589C70.4345 165.417 70.4939 165.303 70.5533 165.245C70.6721 165.13 70.9097 165.073 71.1473 165.016V164.327L71.563 164.041L71.2661 162.836C71.2067 162.664 71.1473 162.549 71.2067 162.492C71.3848 162.262 71.6818 162.033 71.9788 161.861L71.7412 161.287L71.9788 158.821L72.6916 157.444L73.1667 157.043C73.1073 156.985 73.048 156.928 73.048 156.871C72.9292 156.756 72.9292 156.641 72.9886 156.584C73.048 156.469 73.1074 156.354 73.2261 156.24C73.2855 156.125 73.3449 156.067 73.4043 156.067C73.6419 156.125 73.7607 156.067 73.8795 155.953C73.8795 155.895 73.9389 155.838 73.9983 155.781L74.1171 154.002L75.008 155.494L76.2554 155.953L77.2651 154.404L78.0967 155.264L79.2846 155.781L79.8192 155.264L81.1259 154.691L82.6702 154.404C82.7296 154.461 82.789 154.461 82.8484 154.519C82.9672 154.576 83.0266 154.576 83.0266 154.576C83.3829 154.404 83.5611 154.175 83.6799 153.888L83.5611 152.511L84.0957 151.364L83.8581 150.848L84.6897 149.586L87.1249 149.299C87.1249 149.471 87.1249 149.586 87.2437 149.643C87.4219 149.987 87.7189 150.045 88.1347 149.873L89.5602 150.159L90.3917 149.586L90.5105 148.783L91.1045 148.094L90.8075 146.144C90.5699 146.029 90.4511 145.915 90.2729 145.743L89.679 143.792L88.6692 144.366L87.8377 144.481L87.2437 143.276L88.2535 143.104L90.3917 141.899L89.2632 137.253L88.788 136.794L88.9662 134.443L89.2632 134.098V132.779L90.0947 133.238C90.4511 133.181 90.6887 133.009 90.8075 132.664C90.8669 132.607 90.8669 132.492 90.9263 132.378C90.9857 132.378 90.9857 132.263 90.9857 132.263C90.9857 132.033 91.1045 131.804 91.1639 131.575C91.1639 131.517 91.2827 131.46 91.3421 131.402C91.4015 131.345 91.4609 131.345 91.4609 131.288C91.4609 130.944 91.4015 130.542 91.3421 130.198C91.2827 130.083 91.2827 129.911 91.1639 129.796C91.1045 129.682 91.0451 129.567 90.9857 129.51C90.9857 129.452 90.9857 129.395 90.9857 129.337C90.9857 129.223 90.9857 129.108 90.9857 128.936L91.6984 128.42L91.8172 127.731L92.6488 127.215L92.4112 126.642L92.827 125.781L93.5397 125.38L94.2525 123.315L93.124 122.053L95.084 121.078C95.1434 121.078 95.2028 121.02 95.2622 120.963C95.4404 120.791 95.6186 120.619 95.7968 120.389L95.4998 119.873L95.975 119.185L96.5096 119.299L97.6381 118.898L97.1035 116.03L97.5193 112.99L96.8065 112.588L97.9351 111.728L97.1035 108.974L96.2126 107.77C95.975 107.483 95.6186 107.254 95.3216 107.139C95.2028 107.139 95.1434 107.139 95.0247 107.311H94.9653V107.254L91.2233 106.106L83.8581 109.548L83.9769 110.925L82.8484 111.9H81.9574L81.2447 111.441L64.3167 119.586Z" fill="#C4DFE9" stroke="white" stroke-miterlimit="10"/>
</svg>
