<svg width="313" height="188" viewBox="0 0 313 188" fill="none" xmlns="http://www.w3.org/2000/svg">
<path d="M97.4599 75.2453C97.2817 75.2453 97.2223 75.1879 97.1035 75.1306C96.9253 75.1306 96.6877 75.1879 96.4502 75.3026C96.3908 75.36 96.3314 75.4747 96.272 75.5321L95.7374 74.9585L94.3119 75.1306L94.0149 77.9986L93.1833 78.6869L93.0052 80.7519L91.2827 81.1534L90.4511 82.3006L90.8669 82.9889C91.2233 83.0463 91.5202 83.2184 91.7578 83.3905C91.7578 83.4478 91.7578 83.5052 91.6984 83.6773C91.639 83.6773 91.639 83.7346 91.5796 83.792L91.1639 85.857H92.1736L93.7179 87.9219L95.4404 86.9468L96.5689 87.8072V88.3235L97.6975 89.7001L98.8854 89.9869L98.7072 92.4534L99.0042 93.027L98.2914 93.5433L98.7072 97.4438L99.3012 98.1321L97.8757 99.222L98.1727 101.115L99.3012 102.778H100.311L99.0042 104.04L97.9945 104.442L97.6975 106.392L96.272 107.769L97.1629 108.973L97.9945 111.727L96.8659 112.587L97.5787 112.988L97.1629 116.029L97.6975 118.897L98.7072 118.782L102.271 116.545V117.635L102.865 118.208L105.003 119.183L105.419 118.323L106.251 118.495V119.585L106.845 117.405L107.439 117.921L107.26 118.897L107.676 119.872C107.617 119.986 107.557 120.101 107.617 120.216C107.676 120.503 107.795 120.732 108.032 120.962C108.151 121.019 108.27 121.134 108.448 121.191C108.686 121.363 108.983 121.478 109.28 121.593C109.399 121.65 109.458 121.65 109.577 121.65L111.121 121.076H111.24V119.986L113.675 118.782L114.388 120.388L115.695 121.248L116.526 121.65V121.765H116.407L117.12 124.002L117.239 124.977C117.239 125.034 117.298 125.092 117.298 125.092C117.417 125.149 117.536 125.149 117.655 125.092C117.892 125.034 118.13 124.977 118.367 124.977C118.605 124.919 118.843 124.862 119.08 124.747C119.496 124.575 119.912 124.289 120.268 123.83C120.446 123.6 120.625 123.371 120.803 123.141L121.812 122.74L121.1 120.962L122.822 119.986L124.782 119.872V118.782C125.079 118.495 125.317 118.38 125.673 118.38C125.733 118.323 125.851 118.266 125.911 118.208C126.148 118.036 126.327 117.864 126.564 117.692C126.861 117.463 127.218 117.233 127.515 116.946C127.871 116.66 128.108 116.315 128.227 115.857C128.227 115.799 128.227 115.742 128.287 115.742C128.584 115.627 128.643 115.455 128.346 115.226C128.227 115.111 128.168 115.053 128.108 115.053L129.772 114.193H129.95H130.96C131.019 113.792 131.138 113.39 131.375 113.046C131.613 112.587 131.85 112.128 132.147 111.727C132.326 111.497 132.385 111.268 132.504 111.038C132.563 110.809 132.563 110.579 132.623 110.35C132.623 110.12 132.623 109.891 132.682 109.662C132.682 109.604 132.682 109.489 132.682 109.432C132.682 108.801 132.563 108.228 132.326 107.654C132.088 106.966 132.029 106.277 132.088 105.532C132.147 105.417 132.147 105.302 132.207 105.13L132.92 104.04V103.065C132.682 102.778 132.444 102.434 132.207 102.09C132.088 101.918 131.969 101.746 131.791 101.574C131.613 101.344 131.435 101.172 131.197 101C130.96 100.885 130.722 100.713 130.544 100.541C130.366 100.427 130.247 100.312 130.128 100.14C129.95 99.9103 129.831 99.6235 129.772 99.3367C129.475 98.4189 129.296 97.5011 129.118 96.5834C129.059 96.4687 129.059 96.3539 128.999 96.2392C128.94 95.8377 128.821 95.4362 128.762 95.0346C128.702 94.9199 128.762 94.8052 128.762 94.6905C128.821 94.4037 128.881 94.1169 128.94 93.8301C128.999 93.658 128.999 93.4859 129.059 93.3138C129.059 93.027 129.059 92.7402 129.118 92.4534C129.118 92.2813 129.178 92.1093 129.237 91.9372C129.593 91.4209 129.89 90.9047 130.187 90.3884C130.366 90.1016 130.484 89.8148 130.484 89.5854C130.544 89.2412 130.603 88.9544 130.663 88.6103C130.781 88.3235 130.841 88.0367 130.9 87.8072C130.96 87.5778 131.019 87.4057 131.078 87.2336L129.059 86.4306L129.237 85.1686L128.227 84.8818L127.515 82.8169L125.97 81.6123L123.654 78.4001L125.257 77.0234L124.96 74.5569L123.951 73.5818L123.357 72.664C123.179 72.664 123 72.7214 122.822 72.7214C122.703 72.7214 122.644 72.664 122.585 72.6067C122.347 72.3772 122.169 72.0904 121.991 71.8036C121.634 71.1727 121.278 70.5417 120.981 69.9107L120.803 68.9356L121.218 68.0752L120.684 66.9854L117.655 67.6737L116.11 67.1574L114.566 67.559L113.378 68.362L111.418 68.5341L111.834 69.3371L112.131 70.8285L113.378 71.8036L113.972 73.0656L112.25 72.0904L111.121 72.664L110.824 73.5818L109.993 72.7788L109.102 72.664L107.439 74.9585L106.013 74.5569L105.122 75.9336L106.132 77.0234L104.112 77.1955L103.281 78.2854L101.439 76.5072L100.845 76.3351L100.133 75.5321V74.729L98.1727 73.1803C98.1133 73.3524 98.0539 73.5245 97.9945 73.7539L97.4599 75.2453Z" fill="#C4DFE9" stroke="white" stroke-miterlimit="10"/>
</svg>
