<svg width="313" height="188" viewBox="0 0 313 188" fill="none" xmlns="http://www.w3.org/2000/svg">
<path d="M64.3167 119.586H63.0099L62.4754 119.873L60.8717 119.586L58.6146 120.676L55.1696 120.389L53.9223 120.561L53.3283 123.315L51.487 124.519L50.7743 136.106L49.8833 136.508L49.4675 137.368L49.3488 140.236L47.2105 140.351C47.1511 140.81 47.0323 141.211 46.9729 141.613H46.9135C46.8541 141.67 46.7947 141.727 46.7947 141.727C46.6165 141.727 46.4977 141.727 46.3195 141.727L44.894 140.81L43.9437 141.899L42.5776 140.924L42.043 142.588L43.0527 145.857L42.5182 146.029L42.043 146.546L42.2212 147.406L40.7957 147.922L39.7859 147.406L39.3107 147.922L38.2416 148.611L37.3507 148.897L37.2319 147.406H35.3906L34.4996 146.832V147.808L34.9154 148.209V149.471L35.6282 149.873L36.1033 150.676L36.9349 151.134L38.0634 152.224C38.2416 152.167 38.4198 152.11 38.598 152.167C38.7168 152.224 38.8356 152.339 38.9544 152.511L39.192 153.429H40.3799L43.0527 155.092L43.7655 155.953H44.3594L45.0722 156.641L46.2007 157.157C46.2007 157.1 46.2601 157.043 46.3195 157.043C46.4977 157.043 46.6165 157.043 46.7947 157.043C47.3293 156.985 47.5075 157.157 47.2699 157.559C47.2699 157.616 47.2105 157.674 47.2105 157.731L48.339 158.419L48.4578 159.624L48.042 160.886C48.1608 161.058 48.2796 161.173 48.3984 161.173C48.5766 161.287 48.6954 161.23 48.8736 161.115C48.933 161.115 48.9924 161.058 49.0518 161C49.23 161.115 49.4082 161.173 49.5863 161.115C49.6457 161.115 49.7051 161.058 49.7645 160.886C49.8239 160.886 49.8239 160.886 49.8833 160.886L49.7645 161.976L50.4773 162.148L49.1706 163.238L50.5961 163.065L51.0713 164.327C51.0119 164.327 50.9525 164.327 50.9525 164.327C50.8337 164.213 50.7743 164.155 50.7149 164.098C50.5367 164.041 50.4773 164.155 50.4773 164.442L52.0216 164.729C52.1404 164.729 52.1998 164.729 52.1998 164.729C52.1404 164.958 52.0216 165.188 51.9028 165.417L51.6058 166.392L53.4471 166.794L51.6058 167.654L53.4471 168.343L53.3283 169.26C53.3283 169.375 53.3877 169.432 53.5065 169.547C53.6253 169.662 53.8035 169.662 53.9223 169.605C54.0411 169.547 54.1599 169.432 54.2193 169.318C54.3381 169.26 54.4569 169.146 54.635 169.146L54.4569 169.949C54.3975 170.006 54.3381 170.063 54.3381 170.121C54.0411 170.121 53.9223 170.235 53.9817 170.465C54.0411 170.522 54.1005 170.58 54.1599 170.694L55.1696 169.547C55.1102 169.547 55.0508 169.432 55.0508 169.432C54.8726 169.26 54.8726 169.146 55.1102 168.974C55.1696 168.974 55.2884 168.974 55.4666 169.031L55.8824 170.235L56.8921 169.26L56.4763 170.694C56.4169 170.809 56.4169 170.924 56.4169 171.039C56.4763 171.096 56.5357 171.153 56.5951 171.211C56.9515 171.153 57.1891 171.096 57.4861 170.981C57.5455 170.981 57.6049 170.981 57.6049 170.981C57.6049 171.096 57.6049 171.268 57.5455 171.44C57.5455 171.497 57.4861 171.497 57.4861 171.497L55.7636 171.211L55.5854 172.3L57.6049 172.186V173.161L58.7334 172.874C58.7334 172.989 58.7928 173.046 58.8522 173.046C59.1492 173.276 59.4462 173.276 59.7431 173.161C59.8025 173.104 59.7431 173.046 59.6837 172.874C59.6243 172.759 59.565 172.587 59.4462 172.473L59.8619 171.899L64.1385 173.161L65.4452 172.874C65.7422 172.989 66.0986 173.161 66.3361 173.39C66.7519 173.677 67.1083 173.964 67.4647 174.365C67.7617 174.652 68.0587 174.939 68.2962 175.169C68.5932 175.455 68.7714 175.799 69.009 176.144C69.1872 176.545 69.3654 176.947 69.4842 177.406C69.5436 177.463 69.603 177.578 69.7217 177.692L69.8405 178.897L71.2661 177.52L71.9788 178.209C71.9788 178.151 71.9788 178.094 72.0382 178.094C72.0976 177.922 72.2164 177.864 72.3352 177.864C72.454 177.864 72.6322 177.864 72.8698 177.979L73.5825 177.807L73.8795 177.119L73.4043 176.832V176.144C73.4637 176.086 73.5231 176.029 73.5825 176.029C73.6419 175.972 73.7607 175.914 73.8795 175.914L73.1667 175.341L73.4043 174.652L71.4443 174.136C71.3255 173.849 71.3255 173.562 71.3849 173.39C71.4442 173.276 71.563 173.276 71.7412 173.161L70.1375 172.3L70.4345 173.161C70.1969 173.046 69.9593 172.989 69.7217 172.874L68.8902 169.834L70.1375 169.719L70.4345 168.572L69.7217 168.056L69.306 165.991L70.4345 165.589C70.4345 165.417 70.4939 165.303 70.5533 165.245C70.6721 165.13 70.9097 165.073 71.1473 165.016V164.327L71.563 164.041L71.2661 162.836C71.2067 162.664 71.1473 162.549 71.2067 162.492C71.3848 162.262 71.6818 162.033 71.9788 161.861L71.7412 161.287L71.9788 158.821L72.6916 157.444L73.1667 157.043C73.1073 156.985 73.048 156.928 73.048 156.871C72.9292 156.756 72.9292 156.641 72.9886 156.584C73.048 156.469 73.1074 156.354 73.2261 156.24C73.2855 156.125 73.3449 156.067 73.4043 156.067C73.6419 156.125 73.7607 156.067 73.8795 155.953C73.8795 155.895 73.9389 155.838 73.9983 155.781L74.1171 154.002L75.008 155.494L76.2554 155.953L77.2651 154.404L78.0967 155.264L79.2846 155.781L79.8192 155.264L81.1259 154.691L82.6702 154.404C82.7296 154.461 82.789 154.461 82.8484 154.519C82.9672 154.576 83.0266 154.576 83.0266 154.576C83.3829 154.404 83.5611 154.175 83.6799 153.888L83.5611 152.511L84.0957 151.364L83.8581 150.848L84.6897 149.586L87.1249 149.299C87.1249 149.471 87.1249 149.586 87.2437 149.643C87.4219 149.987 87.7189 150.045 88.1347 149.873L89.5602 150.159L90.3917 149.586L90.5105 148.783L91.1045 148.094L90.8075 146.144C90.5699 146.029 90.4511 145.915 90.2729 145.743L89.679 143.792L88.6692 144.366L87.8377 144.481L87.2437 143.276L88.2535 143.104L90.3917 141.899L89.2632 137.253L88.788 136.794L88.9662 134.443L89.2632 134.098V132.779L90.0947 133.238C90.4511 133.181 90.6887 133.009 90.8075 132.664C90.8669 132.607 90.8669 132.492 90.9263 132.378C90.9857 132.378 90.9857 132.263 90.9857 132.263C90.9857 132.033 91.1045 131.804 91.1639 131.575C91.1639 131.517 91.2827 131.46 91.3421 131.402C91.4015 131.345 91.4609 131.345 91.4609 131.288C91.4609 130.944 91.4015 130.542 91.3421 130.198C91.2827 130.083 91.2827 129.911 91.1639 129.796C91.1045 129.682 91.0451 129.567 90.9857 129.51C90.9857 129.452 90.9857 129.395 90.9857 129.337C90.9857 129.223 90.9857 129.108 90.9857 128.936L91.6984 128.42L91.8172 127.731L92.6488 127.215L92.4112 126.642L92.827 125.781L93.5397 125.38L94.2525 123.315L93.124 122.053L95.084 121.078C95.1434 121.078 95.2028 121.02 95.2622 120.963C95.4404 120.791 95.6186 120.619 95.7968 120.389L95.4998 119.873L95.975 119.185L96.5096 119.299L97.6381 118.898L97.1035 116.03L97.5193 112.99L96.8065 112.588L97.9351 111.728L97.1035 108.974L96.2126 107.77C95.975 107.483 95.6186 107.254 95.3216 107.139C95.2028 107.139 95.1434 107.139 95.0247 107.311H94.9653V107.254L91.2233 106.106L83.8581 109.548L83.9769 110.925L82.8484 111.9H81.9574L81.2447 111.441L64.3167 119.586Z" fill="#C4DFE9" stroke="white" stroke-miterlimit="10"/>
</svg>
