<svg width="313" height="188" viewBox="0 0 313 188" fill="none" xmlns="http://www.w3.org/2000/svg">
<path d="M75.305 73.0099C75.1268 73.182 74.9486 73.182 74.711 73.0673H73.7013C73.7013 73.0673 73.7013 73.1246 73.7013 73.182C73.7013 73.2394 73.7013 73.2967 73.6419 73.2967C73.6419 73.3541 73.6419 73.4114 73.5825 73.4688C73.5231 73.813 73.1667 74.0424 72.5728 74.1571C72.5728 74.0424 72.5728 73.8703 72.5728 73.7556C72.5134 73.813 72.454 73.8703 72.3946 73.813C72.0976 73.6983 71.86 73.4688 71.7412 73.182L70.8503 73.8703L70.1375 72.8952L69.8405 74.1571L68.712 74.7307L67.8804 73.8703L67.4647 72.8952L66.2767 74.4439C66.2767 74.4439 66.2767 74.5013 66.3361 74.5587C66.3361 74.616 66.3361 74.6734 66.3361 74.6734C66.2767 74.7881 66.2173 74.9028 66.1579 74.9602L65.3264 75.8206L64.0197 75.5338L63.6039 75.1323V74.1571L62.4754 72.6658L61.2874 71.5186L60.8717 73.182L59.8619 74.1571L58.9116 74.5587L57.486 74.4439L56.5951 75.1323L55.5854 74.8455L54.0411 74.7307L53.3283 74.8455L52.4967 74.5587L52.0216 73.8703L51.0712 74.7307L52.0216 77.0252L52.6155 77.312L51.784 78.0003L56.4763 81.614L55.4666 82.4171L53.6253 82.5318L52.6155 83.5069L52.9125 84.5968L52.1998 84.8836L52.4967 89.415L52.1998 91.3653L51.487 92.1683L51.6058 92.8567L51.487 93.3156L52.0216 95.2085L52.6155 95.61L52.0216 95.8968L51.9028 97.847L50.7742 98.6501L49.8833 97.9617L49.4675 98.1338L45.7849 98.6501L45.6068 99.6252L47.9232 101.805L48.636 102.264C48.636 102.493 48.7548 102.665 48.933 102.723C49.2299 102.952 49.5863 103.124 50.0615 103.124C50.1209 103.124 50.2397 103.124 50.2991 103.124C50.4773 103.067 50.7742 103.067 51.3088 103.067C51.4276 103.009 51.487 102.895 51.5464 102.837L51.487 102.78C51.487 102.78 51.487 102.78 51.5464 102.78C51.5464 102.78 51.5464 102.78 51.5464 102.837L52.6155 103.64V104.329L53.2095 104.73L53.4471 105.935C53.3283 106.164 53.2095 106.336 53.0907 106.566C53.0907 106.623 53.0313 106.681 52.9719 106.738C52.9719 106.795 52.9125 106.853 52.9125 106.91L52.4967 108.287H53.4471L55.7635 109.147L56.5951 110.065L56.4763 111.614L57.0109 112.818L56.8921 114.482L58.3176 116.833L60.8717 119.587L62.4754 119.873L63.0099 119.587H64.3166L81.2446 111.441L81.9574 111.9H82.8484L83.9769 110.925L83.8581 109.549L91.2233 106.107L94.9652 107.254L95.0246 107.312C95.1434 107.139 95.2028 107.139 95.3216 107.139C95.6186 107.254 95.975 107.484 96.2126 107.77L97.6381 106.394L97.9351 104.443L98.9448 104.042L100.252 102.78H99.2418L98.1132 101.117L97.8163 99.2237L99.2418 98.1338L98.6478 97.4455L98.232 93.545L98.9448 93.0287L98.6478 92.4551L98.826 89.9886L97.6381 89.7018L96.5095 88.3252V87.8089L95.381 86.9485L93.6585 87.9237L92.1142 85.8587H91.1045L91.5202 83.7937C91.5796 83.7363 91.5796 83.679 91.639 83.679C91.6984 83.5069 91.6984 83.4495 91.6984 83.3922C91.4608 83.2201 91.1639 83.048 90.8075 82.9907L90.3917 82.3023L89.5602 81.8434L88.491 82.3023L87.5407 82.0155L86.9467 82.3023L87.1249 81.3272L86.4121 80.4668C86.0558 80.4094 85.8182 80.2947 85.6994 80.2374L85.8182 80.0653C86.1152 80.0079 86.3527 79.8358 86.4715 79.6637C86.5903 79.549 86.5903 79.4343 86.4715 79.2622C86.4121 79.2049 86.4121 79.1475 86.4121 79.0901L84.9272 78.5739L84.2739 78.9754L83.5611 78.5739L81.9574 79.3769L80.8289 80.2374L81.2446 81.0404L80.5319 82.7039H78.6906L78.5718 85.5719C78.5718 85.6292 78.5124 85.6292 78.5124 85.6292C78.3936 85.744 78.2748 85.8013 78.0966 85.8587C78.0966 85.916 78.0372 85.916 78.0372 85.9734C77.9778 85.744 77.859 85.5145 77.7996 85.3424C77.6809 84.8835 77.6809 84.4247 77.6809 83.7937C77.7403 83.3922 77.6215 83.1627 77.2651 83.1054L76.4335 82.7039L75.8396 81.4419L76.4335 80.4668L77.4433 80.2374L78.0966 78.6886L78.9876 78.1724C78.9282 78.115 78.9282 78.0577 78.8688 78.0003C78.6906 77.7709 78.75 77.5414 79.1064 77.312L76.7305 73.0673L76.2553 73.5835C76.4335 73.813 76.4929 74.0424 76.4335 74.2719C76.4335 74.4439 76.3147 74.3866 76.0178 74.1571L75.8396 74.2719V74.1571L75.6614 74.2145C75.6614 73.9851 75.7208 73.7556 75.8396 73.4688C75.8396 73.4114 75.8396 73.3541 75.8396 73.3541C75.7802 73.2394 75.6614 73.182 75.5426 73.1247C75.4832 73.0099 75.305 73.0099 75.305 73.0099Z" fill="#C4DFE9" stroke="white" stroke-miterlimit="10"/>
</svg>
