<svg width="313" height="188" viewBox="0 0 313 188" fill="none" xmlns="http://www.w3.org/2000/svg">

<path d="M275.234 17.0848C275.293 17.1995 275.293 17.3142 275.234 17.429L275.174 17.4863C275.115 17.429 275.115 17.3142 275.174 17.1995L274.283 18.4041H273.57C273.689 18.5762 273.749 18.7482 273.689 18.9203C273.689 19.2645 273.511 19.3792 273.155 19.2645L272.026 18.6909L271.729 18.2894L271.135 18.5762L268.047 21.731C268.047 21.7884 268.047 21.9031 268.047 21.9604L268.106 22.0752C267.868 22.1899 267.631 22.362 267.453 22.534C267.453 22.5914 267.453 22.6488 267.453 22.7061C267.393 22.8208 267.334 22.9356 267.274 23.0503C267.215 23.1076 267.215 23.165 267.156 23.165C267.096 23.2224 267.096 23.2224 267.037 23.2224C266.977 23.165 266.918 23.1076 266.859 23.1076C266.68 22.9356 266.502 22.8782 266.324 22.8208L265.196 23.3944H264.483L263.592 24.0828L263.651 24.1401C263.592 24.0828 263.473 24.0254 263.295 23.9107C263.414 23.8533 263.473 23.796 263.414 23.796C263.235 23.5092 263.117 23.2224 263.176 22.9356C263.117 22.9356 263.057 22.9356 263.057 22.9929C262.998 22.9929 262.938 23.0503 262.938 23.1076C262.938 23.3371 262.82 23.5092 262.76 23.5665L262.582 23.3944C262.582 23.3371 262.523 23.2797 262.463 23.2224V24.1975L261.751 24.4843V25.1726L260.206 26.2625L259.197 25.8609L258.306 25.9757C258.424 26.1477 258.484 26.2625 258.603 26.4346C258.662 26.4346 258.662 26.4346 258.721 26.4346C258.721 26.4919 258.721 26.5493 258.721 26.6066C258.603 26.7214 258.484 26.7214 258.306 26.7214C258.306 26.7214 258.246 26.7214 258.187 26.664L251.653 25.5741C251.653 25.7462 251.534 25.9183 251.297 26.033C251.059 26.2051 250.822 26.2625 250.465 26.2625C250.525 26.2625 250.525 26.3198 250.525 26.3772C250.525 26.3198 250.525 26.2625 250.465 26.2625L249.752 26.5493L249.04 27.2376C249.159 27.2376 249.218 27.295 249.218 27.4097C249.277 27.467 249.218 27.5244 249.159 27.5818C248.98 27.6965 248.802 27.8112 248.624 27.9259L247.377 27.5244L247.08 28.3274L246.367 27.6391L245.654 27.7538L244.941 28.9011L245.06 30.794L244.526 31.4823L246.189 33.2605C246.129 33.4325 246.01 33.4899 245.892 33.5473C245.714 33.6046 245.535 33.6046 245.357 33.5473C245.357 33.6046 245.357 33.662 245.357 33.662C245.476 33.8914 245.595 34.0061 245.714 34.0061C245.832 34.0635 245.951 34.1209 246.07 34.0635C246.129 34.0635 246.248 34.0635 246.367 34.1209C246.367 34.2356 246.426 34.3503 246.545 34.5224L246.604 34.5797C246.367 34.5797 246.07 34.6945 245.773 34.9239L245.654 36.1858C245.535 36.3006 245.417 36.4153 245.298 36.53C245.179 36.5874 245.06 36.5874 244.941 36.4726C244.941 36.4153 244.941 36.3579 244.882 36.3579C244.823 36.1858 244.704 36.0711 244.585 36.0138C244.526 35.9564 244.466 35.9564 244.466 36.0138C244.466 36.3006 244.526 36.5874 244.644 36.8742L243.338 36.9889C243.219 37.0462 243.159 37.1036 243.159 37.161C243.159 37.333 243.159 37.5051 243.219 37.6772C243.1 37.6772 243.041 37.6772 242.981 37.6772C242.862 37.5051 242.744 37.4478 242.566 37.3904C242.328 37.2757 242.09 37.2757 241.912 37.3904C241.734 37.4478 241.615 37.5625 241.496 37.8493L240.249 37.2757L239.239 37.5625C239.239 37.4478 239.239 37.3904 239.239 37.2757C239.239 37.1036 239.18 37.1036 239.18 37.1036C239.061 37.0462 238.942 37.1036 238.824 37.161C238.645 37.1036 238.408 37.0462 238.23 36.9889L237.517 35.4975L235.972 36.8742C235.972 37.0462 236.032 37.2183 236.032 37.3904C236.032 37.5625 235.972 37.7346 235.972 37.964L234.785 37.5625H233.656C233.597 37.4478 233.597 37.3904 233.597 37.2757C233.597 37.1036 233.537 36.9889 233.537 36.8742C233.418 36.6447 233.24 36.53 232.943 36.5874H231.755L230.33 38.0787L229.617 39.2259L230.746 40.7173C230.746 40.832 230.746 40.8894 230.686 41.0041C230.686 41.1188 230.686 41.2336 230.686 41.2909C230.746 41.4056 230.864 41.463 231.043 41.5204L231.577 41.9793L232.171 42.094L232.706 42.3808C232.765 42.1513 232.824 42.1513 232.884 42.2661C233.359 42.094 233.834 42.094 234.309 42.2661C234.547 42.3234 234.844 42.4381 235.141 42.5529C235.973 42.8397 236.566 43.2985 236.982 44.0442L237.873 44.5605L238.408 45.7077L241.853 44.4458C242.15 44.3884 242.328 44.4458 242.269 44.7326L245.12 44.4458L245.535 44.0442L248.683 43.8722L249.396 43.0691L251.713 43.7574L251.119 45.4209L251.534 46.5107L251 52.9925L254.088 54.8854L254.979 56.5488L257.118 56.9503L258.246 56.5488L259.078 58.0402L260.384 58.327L261.394 58.2123L261.097 59.3021L262.523 59.5889L262.82 60.2773L265.077 60.1052L265.374 59.4742L265.968 59.3021L266.502 58.6138L266.68 56.8356L268.344 56.5488L270.066 57.9255L271.195 58.0402L270.957 59.9904L272.204 60.6788V62.457L273.095 63.3174L275.055 60.1052L275.649 60.5641L276.659 60.9656L276.778 62.1702L276.659 62.7438L277.906 64.9235L279.926 65.0955L281.173 61.0803L281.886 60.6788L282.361 58.4991L283.49 58.2123L283.787 56.0326L284.737 56.1473L286.341 54.5986L286.044 53.6808H286.756L287.885 54.7706H291.152L292.043 51.0422L292.874 50.9275L293.468 50.4686L296.616 52.9925L300.299 52.5909C300.358 52.3041 300.477 52.1894 300.715 52.3041C300.833 52.3041 300.952 52.3615 301.012 52.4189L302.556 51.6158L303.447 49.6656C303.447 49.5508 303.506 49.4935 303.625 49.4361C303.684 49.4361 303.803 49.4361 303.863 49.4361V48.6904L305.823 48.5757L306.833 48.0021L306.714 46.9123L306.12 46.6255L305.823 44.7326L307.426 44.8473L309.565 43.7574L312 40.6026L311.822 39.7422L310.871 39.2259L309.268 38.8244C309.565 38.7671 309.624 38.595 309.387 38.4229C309.327 38.3082 309.208 38.2508 309.09 38.2508L309.565 37.3904L310.159 36.9889L310.396 36.1858L310.871 35.7843L310.574 33.9488L310.159 33.8341V32.8589L309.09 32.4574L308.852 31.8838L308.555 31.6544L308.436 30.1056L307.308 30.6792C307.486 30.2777 307.486 29.9909 307.248 29.7615C307.189 29.7615 307.189 29.7615 307.13 29.8188C307.011 29.9335 306.951 30.0483 306.833 30.1056C306.536 29.9909 306.239 29.9909 306.001 30.1056L306.12 30.3924C306.12 30.3924 306.12 30.4498 306.12 30.5072L305.288 29.9909H304.457L303.566 30.2777L301.724 31.8838L299.883 31.7691L299.17 31.1955H298.279C297.864 31.0234 297.745 30.8513 297.923 30.6792C297.982 30.5645 298.101 30.4498 298.161 30.3924L297.864 29.1305C297.507 28.9584 297.507 28.7863 297.745 28.6716C297.864 28.6143 297.923 28.6143 298.042 28.6143C297.923 28.1554 297.804 27.9833 297.567 28.2127L296.319 26.2625L296.735 25.2873L295.428 24.4843L294.716 24.3122L294.003 23.3944V22.8208L293.29 22.4193C293.587 22.2472 293.587 22.0752 293.409 21.9031C293.171 21.7884 292.993 21.6736 292.756 21.5589L291.449 22.4193L290.32 21.731C290.32 21.9031 290.261 21.9604 290.201 21.9604C290.023 21.9604 289.904 21.9604 289.726 21.8457L288.895 22.0178L288.301 22.8208L286.163 20.3543L285.925 19.3792L285.747 18.1173L284.737 17.1995L285.034 15.364H284.202L282.599 14.8477L281.47 13.299L282.183 12.7828L282.48 12.0944L281.173 11.6929L279.748 10.7178L278.797 11.5208L277.906 11.6929L276.659 12.7828C276.422 13.0696 276.422 13.299 276.6 13.5284L276.362 13.6432C276.243 13.7005 276.184 13.7579 276.065 13.8726L276.362 15.2493C276.303 15.2493 276.243 15.2493 276.243 15.1919C276.184 15.1919 276.184 15.1919 276.184 15.1345C276.065 15.0772 276.006 15.0198 275.946 14.9624H275.709C275.709 15.0198 275.768 15.0772 275.887 15.1919C276.006 15.3066 276.125 15.364 276.184 15.5361L275.352 16.3391C275.471 16.2817 275.531 16.2817 275.649 16.2817C275.649 16.2817 275.709 16.2817 275.709 16.3391L275.649 16.3965C275.412 16.5685 275.174 16.6833 274.937 16.9127C274.996 16.9127 275.115 16.9127 275.234 16.9127C275.174 16.9701 275.234 16.9701 275.234 17.0848Z" fill="#B4FF00" stroke="white" stroke-miterlimit="10"/>
</svg>
