<svg width="313" height="188" viewBox="0 0 313 188" fill="none" xmlns="http://www.w3.org/2000/svg">
<path d="M184.892 104.732L183.941 104.043L183.347 104.445L179.902 106.108L179.724 107.6L177.526 107.084L174.913 105.42L173.19 108.862L171.527 108.173L170.399 108.575C169.686 107.944 168.914 107.37 168.082 106.854C167.607 106.51 167.191 106.166 166.776 105.879C166.36 105.535 166.003 105.191 165.706 104.847C165.409 104.56 165.172 104.273 164.994 103.986C164.519 103.126 163.984 102.265 163.509 101.405C163.449 101.29 163.39 101.175 163.39 101.003C163.271 100.602 163.152 100.2 163.034 99.7988C162.796 99.2826 162.618 98.8237 162.321 98.4222C162.083 98.0206 161.786 97.6765 161.549 97.2749L160.836 98.1353L157.807 97.447L156.381 101.577L154.243 101.003L151.986 102.954L149.848 103.355L149.135 104.33L148.244 103.068L148.957 100.717L150.56 99.0531L146.997 96.2998L145.393 96.4719L144.146 99.2252L143.849 98.6516L142.007 98.8237L140.701 100.315L139.275 100.717L138.859 101.692L137.553 102.782L132.444 100.717L133.276 102.38L132.86 103.068V104.043L132.147 105.133C132.088 105.305 132.088 105.42 132.029 105.535C131.969 106.281 132.029 106.969 132.266 107.657C132.504 108.231 132.623 108.804 132.623 109.435C132.623 109.493 132.623 109.607 132.623 109.665C132.563 109.894 132.563 110.124 132.563 110.353C132.504 110.583 132.504 110.812 132.444 111.041C132.326 111.271 132.266 111.5 132.088 111.73C131.791 112.131 131.553 112.59 131.316 113.049C131.078 113.393 130.959 113.795 130.9 114.196V116.835L132.029 117.925L133.157 120.276C133.157 120.506 133.217 120.735 133.217 120.965C133.217 121.022 133.217 121.08 133.276 121.137C133.335 121.366 133.395 121.653 133.454 121.94C133.454 122.055 133.514 122.169 133.632 122.341C133.811 122.686 133.989 123.087 134.167 123.489C134.286 123.948 134.286 124.349 134.226 124.808C134.108 125.152 133.989 125.496 133.751 125.783C133.573 126.07 133.395 126.357 133.276 126.586C133.038 126.93 132.801 127.217 132.504 127.504C132.385 127.676 132.207 127.848 132.029 127.963L130.306 128.651L128.881 128.536L127.871 129.798L127.455 130.659C127.633 130.946 127.752 131.232 127.93 131.519C127.99 131.634 128.049 131.806 128.168 131.863C128.287 132.15 128.465 132.38 128.643 132.666C128.821 133.011 128.999 133.412 128.999 133.814C129.118 134.674 129.237 135.534 129.415 136.337C129.475 136.796 129.653 137.313 129.89 137.714C130.009 137.886 130.069 138.058 130.069 138.23C130.247 138.804 130.306 139.378 130.306 139.951C130.306 140.295 130.247 140.639 130.128 140.926C130.128 141.098 130.069 141.213 130.009 141.328C129.772 141.729 129.534 142.073 129.296 142.418C129.118 142.762 128.94 143.106 128.821 143.45C128.643 143.737 128.584 144.081 128.643 144.368C128.643 144.999 128.702 145.572 128.821 146.146C128.94 146.548 128.94 146.949 128.999 147.408C128.999 147.637 128.999 147.924 128.999 148.211L130.187 149.875L129.593 153.316H128.584L128.168 152.915C127.93 152.456 127.693 152.513 127.514 152.972C127.455 153.144 127.515 153.374 127.574 153.603C127.752 153.89 127.811 154.234 127.93 154.578C127.93 154.635 127.93 154.75 127.871 154.808H126.861L126.445 155.496L125.911 155.783L125.436 156.758L127.752 155.783L127.574 157.331C127.336 157.446 127.039 157.561 126.742 157.733C126.624 157.905 126.445 158.077 126.327 158.249L126.148 160.773L125.02 163.067H124.307L122.882 164.043L121.04 167.197L121.456 168.173H122.169L123.06 168.574L123.594 168.345L124.604 168.746L126.327 167.886L127.336 168.861L125.911 171.499L126.03 171.901L125.317 172.876L126.03 173.278L126.624 174.138L125.911 173.851L125.436 174.253L124.307 174.941L125.02 175.744C125.198 175.974 125.317 176.088 125.376 175.974C125.97 176.146 126.564 176.146 127.158 176.031C127.336 175.974 127.336 175.916 127.158 175.916C127.039 175.629 127.039 175.457 127.158 175.343C127.218 175.4 127.277 175.515 127.396 175.572C127.455 175.629 127.574 175.687 127.752 175.744L128.999 174.54L132.86 174.769C132.979 174.998 133.098 175.171 133.335 175.285C133.514 175.285 133.573 175.343 133.573 175.285C133.632 174.826 133.573 174.31 133.454 173.851L133.989 172.991L136.84 172.876L136.602 170.41L138.265 168.058H139.869L140.404 170.41C140.701 170.467 140.998 170.582 141.235 170.696C141.294 170.696 141.294 170.754 141.294 170.811C141.888 170.811 142.245 170.811 142.245 170.696C142.423 170.18 143.195 170.123 144.621 170.41C145.274 170.524 145.987 170.582 146.7 170.696C146.818 170.696 146.878 170.696 146.997 170.696L147.531 171.327L146.818 169.549L150.679 167.083L151.392 168.173L153.114 167.484L155.55 165.132V164.329L156.262 163.756L158.222 162.838L157.51 161.576C157.629 161.347 157.688 161.117 157.747 160.888C157.807 160.83 157.807 160.773 157.807 160.773L159.945 159.224L163.093 159.511L164.815 158.249L165.944 158.823L166.538 158.249L163.687 153.316L166.063 150.563L164.519 147.924L167.667 147.007L168.676 147.695L172.24 145.171L173.963 146.318L174.794 145.745L175.21 144.368L175.923 143.278L175.388 141.901L175.923 140.525C175.923 140.353 175.923 140.238 175.863 140.123C175.863 139.836 175.804 139.55 175.685 139.32C175.566 139.091 175.507 138.919 175.329 138.747C175.15 138.575 174.913 138.402 174.675 138.23C174.26 137.944 173.903 137.599 173.487 137.255L172.062 137.542L170.399 135.821L175.626 132.781L177.942 134.731L179.902 132.265C180.021 132.15 180.14 132.093 180.14 131.978C180.199 131.691 180.14 131.404 180.021 131.175L180.199 129.339L179.724 128.938L181.09 124.808L179.189 123.145L183.466 117.925C183.466 117.81 183.466 117.695 183.407 117.638C183.228 117.466 183.11 117.351 182.931 117.236C182.813 117.064 182.694 116.95 182.516 116.835C182.397 116.778 182.337 116.778 182.219 116.835L182.337 118.498L180.674 117.236L182.694 116.261L183.525 115.573H185.961L184.951 114.368L184.713 113.393L186.139 112.303L186.673 111.328L187.98 110.64L187.386 109.149L185.664 109.263L185.545 108.173L186.852 107.313V106.395L184.892 104.732Z" fill="#B4FF00" stroke="white" stroke-miterlimit="10"/>
</svg>
