<svg width="313" height="188" viewBox="0 0 313 188" fill="none" xmlns="http://www.w3.org/2000/svg">
<path d="M84.6896 55.5729L83.3829 55.1714L79.5815 55.4582C79.2845 55.1714 78.9875 54.9993 78.6905 54.8846C78.2748 54.7125 77.7996 54.5978 77.265 54.5978C77.0274 54.5405 76.7899 54.4257 76.5523 54.3684C76.4929 54.3684 76.4929 54.3684 76.4335 54.311C76.1959 54.1389 75.9583 53.8521 75.7207 53.508C75.4237 53.1064 75.0674 52.7049 74.711 52.4181C74.0576 51.9592 73.4043 51.443 72.8103 50.9267C72.4539 50.6399 72.0975 50.2958 71.8599 49.9516L70.1374 50.3531L69.0089 47.7146L68.4149 47.0262L66.8706 46.7968L65.0294 45.5349L63.0099 42.0932L62.8911 41.4049L59.7431 38.2501L56.0605 37.6765L55.5853 36.2998H53.9222C53.744 36.4145 53.5064 36.5292 53.3282 36.4719C53.0907 36.5292 52.8531 36.644 52.6155 36.7013C52.3185 36.8734 52.0809 37.0455 51.8433 37.2176C51.7839 37.2176 51.7245 37.2749 51.6057 37.2749C51.5463 37.2749 51.487 37.3323 51.4276 37.3897C51.0712 37.5044 50.7742 37.7338 50.5366 38.0206C50.3584 38.2501 50.2396 38.3648 50.002 38.5369C49.6457 38.8237 49.3487 39.1105 49.1111 39.4546C49.1111 39.4546 49.2299 39.512 49.3487 39.5694C49.4675 39.6841 49.5269 39.6841 49.6457 39.7414L49.0517 41.4049C49.2299 41.6917 49.4081 41.9785 49.6457 42.2653L48.3389 45.7069H46.6164L46.2007 46.1085H45.0721L46.6164 47.8866L46.4976 48.575L47.6262 49.9516L46.6164 50.6399L47.2104 55.1714L48.2201 56.5481L38.2415 57.3511L37.9446 55.1714L36.6378 56.3186L36.2221 57.3511L32.3613 57.81L31.3515 54.0816L27.669 53.1064C27.6096 52.7623 27.5502 52.5902 27.4314 52.4755C27.2532 52.4181 27.075 52.3608 26.8374 52.3608C26.5998 52.3608 26.3622 52.3608 26.1247 52.3608C26.0653 52.3608 26.0059 52.3608 25.9465 52.4181C25.8871 52.4181 25.8871 52.4755 25.8277 52.4755C25.7683 52.4181 25.7089 52.3608 25.6495 52.3034L23.5112 52.9917L23.0954 53.508L23.2736 54.8846L21.1353 55.745L19.9474 56.6628C20.0662 56.6628 20.0068 56.7775 19.7692 56.9496C19.7098 57.007 19.591 57.007 19.4128 56.9496L18.8189 56.1465L17.8091 57.9247L21.3729 59.9897C21.4917 59.8176 21.5511 59.7603 21.7293 59.7603C21.8481 59.7603 21.9669 59.7603 22.0857 59.875C22.3827 59.8176 22.5609 59.875 22.7391 60.0471C22.7391 60.1618 22.8578 60.2191 22.9766 60.2765C23.036 60.3339 23.1548 60.3339 23.2142 60.4486C23.2736 60.5059 23.333 60.5633 23.4518 60.6207C23.5706 60.7928 23.7488 60.9648 23.9864 61.0796C24.0458 61.1943 24.1646 61.2516 24.224 61.3664L25.4119 61.4811L27.2532 60.9648L27.9659 61.3664L28.6787 62.6283L28.7975 63.8329L28.3817 65.0948L29.5103 65.611L30.52 66.873L30.1042 67.9628L28.3817 69.0527C28.2035 69.11 28.0253 69.0527 27.9659 68.9379C27.9065 68.9379 27.7878 68.9953 27.669 69.11C27.669 69.11 27.669 69.1674 27.669 69.2247L28.2629 71.1176L27.7878 71.5192L27.075 72.7811L27.372 73.7562L28.3817 74.5593L29.8072 74.8461L30.1042 75.4197L30.52 74.5593L33.668 73.7562L34.2026 73.3547L34.7965 73.8709L36.1033 73.0679L37.0536 74.8461L38.2415 75.4197C38.1227 75.0755 38.3603 74.9608 38.7761 74.9608C38.8949 74.9034 38.9543 75.0182 39.0137 75.4197V75.477C39.0137 75.477 39.1325 75.4197 39.1919 75.4197L40.0828 75.6491L40.4986 76.6243L41.0926 76.108L42.2211 75.4197L42.5181 74.9608L43.3496 74.7313L45.6067 72.8958L46.4976 73.7562L45.9037 74.9608L46.0819 75.1329H45.9037L45.7849 75.5344V75.6491L45.6067 75.9359L45.4879 76.108L45.3691 76.5095V76.6243L47.745 76.108L48.9329 74.9608L49.4675 74.8461L49.7645 74.4445L51.0712 74.7313L52.0215 73.8709L52.4967 74.5593L53.3282 74.8461L54.041 74.7313L55.5853 74.8461L56.5951 75.1329L57.486 74.4445L58.9115 74.5593L59.8619 74.1577L60.8716 73.1826L61.2874 71.5192L62.4753 72.6664L63.6038 74.1577V75.1329L64.0196 75.5344L65.3263 75.8212L66.1579 74.9608C66.2173 74.9034 66.2767 74.7887 66.3361 74.674C66.3361 74.674 66.3361 74.6166 66.3361 74.5593C66.2767 74.5019 66.2767 74.4445 66.2767 74.4445L67.4646 72.8958L67.8804 73.8709L68.7119 74.7313L69.8405 74.1577L70.1374 72.8958L70.8502 73.8709L71.7412 73.1826C71.8599 73.4694 72.0975 73.6989 72.3945 73.8136C72.4539 73.8709 72.5133 73.8136 72.5727 73.7562C72.5727 73.8709 72.5727 74.043 72.5727 74.1577C73.1667 74.043 73.523 73.8136 73.5824 73.4694C73.6418 73.4121 73.6418 73.3547 73.6418 73.2973C73.7012 73.2973 73.7012 73.24 73.7012 73.1826C73.7012 73.1253 73.7012 73.0679 73.7012 73.0679H74.711C74.9486 73.1826 75.1268 73.1826 75.3049 73.0105C75.3049 73.0105 75.4237 73.0105 75.5425 73.1253C75.6613 73.1826 75.7801 73.24 75.8395 73.3547C75.8395 73.3547 75.8395 73.4121 75.8395 73.4694C75.7207 73.7562 75.6613 73.9857 75.6613 74.2151L75.8395 74.1577H76.0177C76.3147 74.3872 76.4335 74.4446 76.4335 74.2725C76.4929 74.043 76.4335 73.8136 76.2553 73.5841L76.7305 73.0679L79.1063 77.3126C78.7499 77.542 78.6905 77.7715 78.8687 78.0009C78.9281 78.0583 78.9281 78.1156 78.9875 78.173L78.0966 78.6892L77.4432 80.238L76.4335 80.4674L75.8395 81.4425L76.4335 82.7045L77.265 83.106C77.6214 83.1634 77.7402 83.3928 77.6808 83.7943C77.6808 84.4253 77.6808 84.8842 77.7996 85.343C77.859 85.5151 77.9778 85.7446 78.0372 85.974C78.0372 85.9167 78.0966 85.9167 78.0966 85.8593C78.2748 85.8019 78.3936 85.7446 78.5124 85.6298C78.5124 85.6298 78.5718 85.6299 78.5718 85.5725L78.6905 82.7045H80.5318L81.2446 81.041L80.8288 80.238L81.9574 79.3776L83.5611 78.5745L83.9768 76.5095L83.6798 74.4445L83.1453 74.043L83.858 73.5841C83.6205 73.4694 83.4423 73.2973 83.3829 73.1253C83.3829 73.0679 83.3829 72.9532 83.3829 72.7811C83.4423 72.7237 83.6204 72.6664 83.6798 72.6664H83.858C83.858 72.4943 83.7986 72.3796 83.7392 72.2075C83.7392 72.2075 83.7986 72.2075 83.858 72.2075L84.8084 71.5192L83.9768 69.2247V67.9628L84.9272 68.6511L86.2339 68.0775L85.1054 67.676L85.2242 65.7831L85.9963 63.5461L84.5708 63.0298L84.8084 59.875L84.3926 59.3014L84.6896 55.5729Z" fill="#B4FF00" stroke="white" stroke-miterlimit="10"/>
</svg>
