<svg width="313" height="188" viewBox="0 0 313 188" fill="none" xmlns="http://www.w3.org/2000/svg">
<path d="M179.189 60.9639L176.457 62.4552L174.913 61.6522L174.675 63.5451L172.359 66.4705L168.676 64.6923L167.013 65.6101L167.132 66.9867L166.3 66.5852L165.469 66.6999L164.875 69.2238L167.013 71.4035L167.726 70.7152L168.736 70.0268C168.795 70.1416 168.973 70.1989 169.092 70.3136C169.092 70.371 169.211 70.3136 169.27 70.3136C169.389 70.2563 169.508 70.1989 169.567 70.1415L169.983 70.6004L170.458 70.0268L170.993 70.4284L169.092 73.1817C169.27 73.3537 169.448 73.5258 169.627 73.6979C170.28 74.1568 170.993 74.673 171.646 75.1893C171.765 75.304 171.884 75.4187 172.003 75.5334C172.24 75.9923 172.418 76.4512 172.596 76.9675C172.656 77.0248 172.596 77.0822 172.596 77.1969C173.725 77.8852 174.854 78.6309 175.982 79.3766C176.041 79.434 176.101 79.434 176.16 79.4913C176.517 79.6634 176.932 79.9502 177.289 80.3517C177.348 80.3517 177.348 80.3517 177.408 80.3517C177.586 80.4091 177.705 80.4664 177.823 80.4664C178.417 80.6959 178.893 81.0401 179.249 81.4416C179.486 81.671 179.665 81.9005 179.783 82.0725C179.902 82.2446 180.08 82.4167 180.199 82.5888C180.259 82.6461 180.259 82.7609 180.259 82.8182L181.387 85.2847L180.08 88.7264L184.238 90.7913L185.248 93.4299L182.813 96.9863L183.11 98.2482L184.951 102.378L185.664 102.665L184.951 104.73L186.852 106.393V107.311L185.545 108.172L185.664 109.261L187.386 109.147L187.98 110.638L186.673 111.326L186.139 112.302L184.713 113.391L184.951 114.367L185.961 115.571H183.525L182.694 116.259L180.674 117.235L182.397 118.496L182.278 116.833C182.397 116.776 182.456 116.776 182.575 116.833C182.753 116.948 182.872 117.062 182.991 117.235C183.169 117.349 183.288 117.464 183.466 117.636C183.525 117.693 183.525 117.808 183.525 117.923L183.822 119.013L184.832 120.389C185.01 120.504 185.189 120.561 185.426 120.561C185.426 120.561 185.486 120.504 185.545 120.389V119.3L189.109 120.963L190.118 119.3C190.178 119.357 190.297 119.414 190.415 119.472C190.415 119.472 190.475 119.529 190.534 119.529C190.653 119.529 190.772 119.472 190.772 119.357C190.831 119.3 190.891 119.185 190.891 119.07C190.95 118.955 191.009 118.841 191.069 118.726C191.069 118.669 191.128 118.554 191.128 118.496L192.969 118.783L194.098 120.389L196.533 120.676L196.949 119.3L200.394 118.095L199.681 114.194L201.82 111.613C201.82 111.613 201.879 111.613 201.938 111.613C202.176 111.671 202.414 111.785 202.592 111.957C202.651 111.957 202.711 112.015 202.829 112.072C203.067 112.187 203.304 112.129 203.601 112.072C204.374 111.9 205.146 111.613 205.799 111.154C205.977 111.04 206.096 110.868 206.215 110.638L207.759 110.925L208.65 110.638L210.373 111.613L212.333 110.925L214.352 108.975V108.172L213.224 107.77L214.174 107.885L213.936 106.623V105.131L213.461 104.328C213.342 104.214 213.283 104.099 213.283 104.042C213.283 103.64 213.402 103.353 213.639 103.066C213.639 103.009 213.758 103.009 213.936 103.066L214.174 102.263L215.6 101.575L215.778 102.78L218.035 102.665C217.975 102.436 217.916 102.263 217.916 102.149C217.975 102.034 218.035 101.977 218.213 101.977L219.46 101.116L219.639 100.428L220.351 100.887L219.639 99.6249C219.698 99.5101 219.757 99.3381 219.757 99.2233C219.757 99.1086 219.757 99.0513 219.698 98.9365C219.698 98.8218 219.698 98.6497 219.698 98.535C219.698 98.3056 219.698 98.1335 219.698 97.9614C219.757 97.732 219.817 97.5599 219.995 97.4452C220.173 97.2731 220.351 97.1584 220.589 97.1584L220.351 96.298L219.757 95.3802L221.777 93.5446H222.608L224.034 92.8563L225.578 89.8736L226.053 90.2751L226.291 89.7015L227.301 88.6116C227.36 88.6116 227.36 88.6116 227.36 88.6116C227.598 86.2599 227.598 83.9654 227.36 81.6137C227.122 79.0898 226.766 76.5659 226.172 73.9847C226.172 73.9274 226.172 73.8126 226.172 73.7553C226.232 73.6405 226.232 73.5832 226.291 73.4685L226.766 72.8949L226.053 72.4933L225.756 71.002L226.172 67.8471L225.162 66.6999L224.034 66.1837L220.173 66.6999L219.163 66.069L218.451 61.939C218.391 61.308 218.213 60.9065 217.975 60.6197C217.678 60.2755 217.322 60.1608 217.025 60.2182C216.669 60.3329 216.372 60.6197 216.194 61.0212C215.956 61.4801 215.897 61.8816 215.897 62.3405L215.362 63.0288L213.758 63.3157L213.342 65.4954C213.105 65.4954 212.986 65.6101 212.867 65.7248C212.689 65.8969 212.57 66.069 212.57 66.3558C212.57 66.3558 212.57 66.4131 212.63 66.4705C212.749 66.4705 212.808 66.5278 212.808 66.5852C212.749 66.9867 212.57 67.3882 212.273 67.7898C212.214 67.7898 212.155 67.8471 212.036 67.8471H210.907L211.085 68.937L204.492 72.3786L204.195 73.87L203.364 74.8451L201.938 74.9598L201.226 76.5086L200.513 77.1969L198.078 77.4837V76.6233L196.117 76.2218L193.979 73.5832L194.514 71.9771L193.801 69.74L192.673 69.4532L191.247 68.5355L190.95 67.6751C190.772 67.503 190.594 67.3309 190.415 67.1588L190.237 65.4954L185.426 66.6999L186.852 68.2487L185.842 69.0517L182.694 67.9619L181.565 67.2735L181.15 66.5852L181.565 64.9217L180.674 61.6522L179.189 60.9639Z" fill="#C4DFE9" stroke="white" stroke-miterlimit="10"/>
</svg>
