<svg width="313" height="188" viewBox="0 0 313 188" fill="none" xmlns="http://www.w3.org/2000/svg">
<path d="M193.682 32.0539C193.682 32.0539 193.682 32.1113 193.682 32.1687L193.385 33.1438C193.326 33.3159 193.326 33.4306 193.266 33.4306C193.148 33.5453 193.029 33.5453 192.91 33.4879C192.732 33.6027 192.554 33.6027 192.375 33.5453L191.663 33.9468L189.821 33.2585L188.396 32.3407L187.683 31.0788L186.376 30.3905L184.832 30.5052L184.238 30.792L184.001 31.8818L182.813 31.7671L182.694 32.5702C182.634 32.6275 182.575 32.6275 182.516 32.6275C182.337 32.7423 182.1 32.7996 181.862 32.857L181.565 33.1438H180.971L179.962 33.7174L179.249 33.8321L180.08 35.3235L180.852 35.8971L181.268 36.4707L181.387 38.5357L181.981 39.1093L180.556 39.4534L180.259 39.9123L179.546 40.4286L179.962 41.289L179.011 41.6905L179.13 43.1819L177.823 43.5834L177.408 44.8453L176.695 45.4189C176.635 45.3042 176.576 45.2469 176.517 45.2469C176.338 45.1895 176.101 45.1895 175.863 45.2469L175.269 44.4438L172.002 44.8453L172.121 46.222L173.25 46.3367L173.844 47.025L173.547 47.8854L172.656 48.0002L170.577 46.1073L169.686 47.1971V48.6885L168.142 50.2372L167.845 51.4418L166.597 51.6139L165.528 52.8758L164.994 52.4169L164.281 52.3022L164.459 54.3672C164.34 54.5393 164.281 54.7113 164.281 54.8834C164.281 54.9408 164.34 54.9981 164.459 55.0555C164.34 55.1702 164.221 55.2276 164.162 55.2849C163.984 55.457 163.865 55.5717 163.687 55.5717C163.568 55.6291 163.449 55.5717 163.331 55.457L161.133 57.1205L162.737 58.6119L162.558 59.3002L162.143 60.5621L163.449 62.7418C163.509 62.7418 163.628 62.7418 163.746 62.7418C163.984 62.7992 164.103 62.9139 164.162 63.0286C164.281 63.2007 164.221 63.3154 164.162 63.5449L164.994 66.2982L165.469 66.6997L166.3 66.585L167.132 66.9865L167.013 65.6098L168.736 64.6921L172.418 66.4702L174.735 63.5449L174.972 61.652L176.517 62.455L179.249 60.9636L180.674 61.652L181.565 64.9215L181.149 66.585L181.565 67.2733L182.694 67.9616L185.842 69.0515L186.852 68.2484L185.426 66.6997L190.237 65.4951L190.415 67.1586C190.594 67.3307 190.772 67.5027 190.95 67.6748L191.247 68.5352L192.672 69.453L193.801 69.7398L194.514 71.9769L193.979 73.5829L196.117 76.2215L198.077 76.6231V77.4835L200.513 77.1967L201.226 76.5083L201.938 74.9596L203.364 74.8449L204.195 73.8697L204.492 72.3784L211.085 68.9367L210.907 67.8469H212.036C212.154 67.8469 212.214 67.7895 212.273 67.7895C212.57 67.388 212.748 66.9865 212.808 66.585C212.808 66.5276 212.748 66.4702 212.63 66.4702C212.57 66.4129 212.57 66.3555 212.57 66.3555C212.57 66.0687 212.689 65.8966 212.867 65.7246C212.986 65.6098 213.105 65.4951 213.342 65.4951L213.758 63.3154L215.362 63.0286L215.896 62.3403L214.649 61.4799L213.045 59.9885L212.036 60.2753C211.917 60.1606 211.798 60.1032 211.62 60.1032C211.56 60.1032 211.442 60.1606 211.323 60.2753H209.779L206.809 58.4971L207.759 56.8337L206.215 55.7438L205.918 55.1702L204.789 54.3672L203.483 51.6139L203.958 51.0403L203.245 48.4017L201.819 48.0002L201.107 47.025L201.226 46.222L202.235 45.7057C202.235 45.7057 202.295 45.7631 202.295 45.8205C202.413 46.1073 202.592 46.1073 202.77 45.9925C202.889 45.8778 202.948 45.8778 203.007 45.9925C203.245 45.9925 203.304 45.9352 203.245 45.7057C203.186 45.5337 203.126 45.4189 203.067 45.2469L203.958 44.5585L203.78 43.5834L201.226 41.6905L202.532 40.1418L202.354 39.3387L202.948 38.0768L202.354 36.1839L203.364 35.3235L203.067 34.4057L202.532 33.5453V32.1687L202.235 31.3656L201.522 30.5052L199.087 29.7021L198.256 30.1037V31.1935L197.246 32.1687L196.949 32.857L196.83 33.8321L195.226 31.8818L194.217 32.0539C193.801 31.7098 193.682 31.7098 193.682 32.0539Z" fill="#B4FF00" stroke="white" stroke-miterlimit="10"/>
</svg>
