<svg width="313" height="188" viewBox="0 0 313 188" fill="none" xmlns="http://www.w3.org/2000/svg">
<path d="M183.763 119.012L183.466 117.922L179.189 123.142L181.09 124.805L179.724 128.935L180.199 129.337L180.021 131.172C180.14 131.402 180.199 131.689 180.14 131.975C180.14 132.09 180.021 132.147 179.902 132.262L177.942 134.729L175.626 132.778L170.399 135.819L172.062 137.539L173.487 137.253C173.903 137.597 174.26 137.941 174.675 138.228C174.913 138.4 175.151 138.572 175.329 138.744C175.507 138.916 175.566 139.088 175.685 139.318C175.804 139.547 175.863 139.834 175.863 140.121C175.923 140.235 175.923 140.35 175.923 140.522L175.388 141.899L175.923 143.275L175.21 144.365L174.794 145.742L173.963 146.315L172.24 145.168L168.676 147.692L167.667 147.004L164.519 147.922L166.063 150.56L163.687 153.313L166.538 158.246L168.082 159.508L169.627 161.172H170.399L172.062 162.262L173.784 160.885L177.526 159.107L181.625 159.394L182.338 161.172L183.763 160.885L185.486 159.394L187.03 161.172L189.049 160.197L191.603 162.549C191.841 162.376 192.079 162.262 192.316 162.204L192.376 162.262C192.376 162.319 192.376 162.376 192.376 162.376C192.376 162.549 192.376 162.663 192.316 162.835L197.305 159.508L198.018 160.484L199.325 160.311L201.463 161.287L202.176 161.172L203.72 159.222L203.898 158.246L206.452 158.935L206.749 159.394L207.284 159.623L208.175 160.311L208.413 160.77L209.422 161.172L210.729 162.262L211.264 160.77L212.689 161L213.58 159.91L214.59 158.246C214.649 158.246 214.768 158.189 214.827 158.132C214.887 158.074 214.946 158.017 214.946 158.017C215.006 157.96 215.006 157.902 214.946 157.845C214.946 157.788 214.887 157.73 214.827 157.73C214.768 157.673 214.649 157.616 214.59 157.558C214.59 157.386 214.649 157.214 214.709 157.042V156.927C215.184 156.927 215.718 156.985 216.253 157.042L215.718 154.117L216.847 152.338L215.718 151.535C215.897 150.331 215.956 149.126 215.956 147.922C215.897 147.463 215.778 146.946 215.481 146.488C215.243 146.201 215.184 145.799 215.124 145.34L212.986 145.627L212.57 147.52L207.284 146.717L207.581 146.315L206.452 144.365L207.878 143.792L207.7 140.924L208.888 140.637L208.71 139.834L208.65 139.891C208.472 139.719 208.353 139.604 208.294 139.432L208.71 137.367L209.304 135.991L209.125 135.417L207.581 133.639L207.284 126.182L207.997 125.895L208.294 120.847L206.749 119.872L203.72 119.7L201.463 117.521L200.335 118.094L196.89 119.299L196.474 120.675L194.039 120.389L192.91 118.782L191.069 118.496C191.069 118.553 191.009 118.668 191.009 118.725C190.95 118.84 190.891 118.955 190.831 119.069C190.831 119.184 190.772 119.299 190.712 119.356C190.712 119.471 190.594 119.528 190.475 119.528C190.415 119.528 190.356 119.471 190.356 119.471C190.237 119.413 190.118 119.356 190.059 119.299L189.049 120.962L185.486 119.299V120.389C185.426 120.503 185.367 120.561 185.367 120.561C185.129 120.561 184.951 120.503 184.773 120.389L183.763 119.012Z" fill="#B4FF00" stroke="white" stroke-miterlimit="10"/>
</svg>
