<svg width="313" height="188" viewBox="0 0 313 188" fill="none" xmlns="http://www.w3.org/2000/svg">
<path d="M169.27 70.3152C169.211 70.3152 169.092 70.3726 169.092 70.3152C168.973 70.2005 168.795 70.1431 168.736 70.0284L167.726 70.7167L167.013 71.4051L164.875 69.2254L165.469 66.7015L164.994 66.3L164.162 63.5467C164.222 63.3172 164.281 63.2025 164.162 63.0304C164.103 62.9157 163.984 62.801 163.746 62.7436C163.628 62.7436 163.509 62.7436 163.449 62.7436L162.143 60.5639L162.558 59.302L162.737 58.6137L161.133 57.1223L159.47 56.6634L158.698 57.9253L157.45 58.6137L158.282 59.4741L156.856 60.2771L155.728 58.499L154.837 56.1472L155.431 55.4588L154.005 54.7705L154.599 53.2218L155.312 52.7055L154.48 51.7304L151.332 51.6157L149.907 50.6406L145.63 51.1568L145.215 50.4685L144.205 49.7801L142.067 49.5507H140.641L139.334 50.0669C139.275 50.1243 139.216 50.1243 139.156 50.1243C139.156 50.1243 139.097 50.1243 138.978 50.0096L138.206 48.9771L137.196 48.1741L136.483 46.7974L134.642 45.1339L133.811 44.7324L132.623 43.1837L135.058 40.8319L134.761 40.3157L135.474 40.1436L135.652 39.1111C135.355 38.8816 135.355 38.7096 135.652 38.5375L135.058 37.8492L134.226 37.9639L133.514 37.6771L133.098 36.9888L132.088 35.7842L130.247 36.1857L128.346 36.0136L126.921 38.2507L127.218 39.1111L127.099 39.6273L126.089 40.4304L124.248 40.8319L125.257 42.5527L124.96 43.872L124.248 44.5603L124.545 45.7076L124.248 46.2238L124.366 47.0268L124.782 47.8873L125.97 48.6903L127.099 49.2639L127.811 50.6406C127.99 50.6406 128.168 50.6406 128.346 50.7553C128.643 50.7553 128.643 50.9847 128.227 51.3289L130.663 52.4187L131.197 54.5984C131.375 54.7705 131.494 54.9426 131.672 55.172V56.8355L132.207 57.5238L131.91 58.3269L130.663 57.8106H129.95L128.821 58.0401L128.227 59.8756L128.821 60.9654L128.524 62.17H127.218L125.079 61.2522L123.654 61.7685L124.545 62.17L125.079 63.0304L123.238 64.1203L123.119 64.6939L122.228 64.9233L122.109 66.0705L120.684 66.9883L121.218 68.0782L120.803 68.9386L120.981 69.9137C121.278 70.5447 121.634 71.1756 121.991 71.8066C122.169 72.0934 122.347 72.3802 122.585 72.6096C122.644 72.667 122.703 72.7244 122.822 72.7244C123 72.7244 123.179 72.667 123.357 72.667L123.951 73.5848L124.96 74.5599L125.257 77.0264L123.654 78.403L125.97 81.6152L127.514 82.8198L128.227 84.8848L129.237 85.1716L129.059 86.4335L131.078 87.2366C131.019 87.4086 130.959 87.5807 130.9 87.8102C130.841 88.0396 130.781 88.3264 130.663 88.6132C130.603 88.9574 130.544 89.2442 130.484 89.5884C130.484 89.8178 130.366 90.1046 130.187 90.3914C129.89 90.9076 129.593 91.4239 129.237 91.9401C129.178 92.1122 129.118 92.2843 129.118 92.4564C129.059 92.7432 129.059 93.03 129.059 93.3168C128.999 93.4889 128.999 93.6609 128.94 93.833C128.881 94.1198 128.821 94.4066 128.762 94.6934C128.762 94.8082 128.702 94.9229 128.762 95.0376C128.821 95.4391 128.94 95.8406 128.999 96.2422C129.059 96.3569 129.059 96.4716 129.118 96.5863C129.296 97.5041 129.475 98.4219 129.772 99.3396C129.831 99.6264 129.95 99.9133 130.128 100.143C130.247 100.315 130.366 100.429 130.544 100.544C130.722 100.716 130.959 100.888 131.197 101.003C131.435 101.175 131.613 101.347 131.791 101.577C131.969 101.749 132.088 101.921 132.207 102.093C132.444 102.437 132.682 102.781 132.92 103.068L133.335 102.38L132.504 100.716L137.612 102.781L138.919 101.691L139.334 100.716L140.76 100.315L142.067 98.8234L143.908 98.6513L144.205 99.2249L145.452 96.4716L147.056 96.2995L150.62 99.0528L149.016 100.716L148.303 103.068L149.194 104.33L149.907 103.355L152.045 102.953L154.302 101.003L156.441 101.577L157.866 97.4467L160.895 98.1351L161.608 97.2747C161.846 97.6762 162.143 98.0204 162.38 98.4219C162.677 98.8234 162.855 99.2823 163.093 99.7985C163.212 100.2 163.331 100.602 163.449 101.003C163.449 101.175 163.509 101.29 163.568 101.405C164.043 102.265 164.578 103.125 165.053 103.986C165.231 104.273 165.469 104.559 165.766 104.846C166.063 105.19 166.419 105.535 166.835 105.879C167.251 106.166 167.667 106.51 168.142 106.854C168.973 107.37 169.745 107.944 170.458 108.575L171.587 108.173L173.25 108.861L174.972 105.42L177.586 107.083L179.783 107.6L179.962 106.108L183.407 104.445L184.001 104.043L184.951 104.732L185.664 102.667L184.951 102.38L183.11 98.2498L182.813 96.9879L185.248 93.4315L184.238 90.7929L180.08 88.7279L181.387 85.2863L180.259 82.8198C180.259 82.7624 180.259 82.6477 180.199 82.5904C180.08 82.4183 179.902 82.2462 179.783 82.0741C179.665 81.902 179.486 81.6726 179.249 81.4432C178.892 81.0416 178.417 80.6975 177.823 80.468C177.705 80.468 177.586 80.4107 177.408 80.3533C177.348 80.3533 177.348 80.3533 177.289 80.3533C176.932 79.9518 176.517 79.665 176.16 79.4929C176.101 79.4355 176.041 79.4355 175.982 79.3782C174.854 78.6325 173.725 77.8868 172.596 77.1985C172.596 77.0838 172.656 77.0264 172.596 76.969C172.418 76.4528 172.24 75.9939 172.002 75.535C171.884 75.4203 171.765 75.3056 171.646 75.1909C170.993 74.6746 170.28 74.1584 169.627 73.6995C169.448 73.5274 169.27 73.3553 169.092 73.1832L170.993 70.4299L170.458 70.0284L169.983 70.602L169.567 70.1431C169.448 70.2005 169.389 70.2579 169.27 70.3152ZM141.354 65.7837L142.067 66.7015C142.007 66.9883 141.948 67.2751 141.888 67.5619L142.898 68.0782L142.364 68.537L143.908 69.9137L144.502 69.7416L145.036 70.1431L146.462 70.4299L146.878 71.8066L149.61 71.6919L149.313 72.8964L150.026 73.8716L150.204 74.8467L148.184 75.6497L147.769 76.6249L147.056 76.5102L146.759 77.1985C146.581 77.3132 146.343 77.4279 146.165 77.5426C145.927 77.6574 145.809 77.6 145.749 77.3132L144.739 78.0015L145.215 78.403L143.076 81.4432L141.651 81.73C141.413 81.73 141.176 81.73 140.938 81.73L139.334 80.2386L139.631 79.665L139.037 79.3782L138.206 78.5751L137.79 79.2635L136.186 79.7797L135.652 79.5503L133.929 79.7797L132.801 80.3533L133.098 78.8619L132.92 77.6L133.811 76.797V75.8218L134.048 74.8467L132.207 73.0685L132.385 71.9787L131.91 70.7167C131.791 70.7167 131.732 70.7741 131.732 70.7741C131.732 70.5447 131.85 70.5447 131.91 70.7167V69.6269L131.969 69.4548C131.672 69.5695 131.553 69.5122 131.672 69.3401L132.207 67.2751H133.514C133.87 67.5045 134.108 67.3898 134.226 66.9883C134.226 66.9309 134.226 66.8736 134.226 66.8736C134.226 66.7015 134.226 66.6441 134.286 66.5868C134.345 66.5868 134.523 66.6441 134.642 66.7015C134.761 66.6441 134.939 66.7015 135.058 66.8736L136.483 66.5868L136.365 65.3822H138.503L138.087 66.5868L139.631 65.0954L141.354 65.7837Z" fill="#C4DFE9" stroke="white" stroke-miterlimit="10"/>
</svg>
