<svg width="313" height="188" viewBox="0 0 313 188" fill="none" xmlns="http://www.w3.org/2000/svg">
<path d="M240.071 97.9621L240.784 97.5605L240.487 94.922L238.348 95.2088L237.22 94.922L236.685 94.4057C235.26 94.0615 233.834 93.7174 232.409 93.3159C232.231 93.3159 231.993 93.2585 231.815 93.0864C231.696 93.0291 231.518 92.9143 231.399 92.7423C230.805 92.2834 230.211 91.8245 229.677 91.3656L229.38 92.3407L226.232 89.7021L225.994 90.2758L225.519 89.8742L223.974 92.857L222.549 93.5453H221.717L219.698 95.3808L220.292 96.2986L220.529 97.159C220.292 97.159 220.114 97.2737 219.935 97.4458C219.757 97.5605 219.698 97.7326 219.639 97.9621C219.639 98.1341 219.639 98.3062 219.639 98.5357C219.639 98.6504 219.639 98.8225 219.639 98.9372C219.698 99.0519 219.698 99.1093 219.698 99.224C219.698 99.3387 219.639 99.5108 219.579 99.6255L220.292 100.887L219.579 100.429L219.401 101.117L218.154 101.977C217.975 101.977 217.916 102.035 217.857 102.149C217.857 102.264 217.916 102.436 217.975 102.666L215.718 102.78L215.54 101.576L214.115 102.264L213.877 103.067C213.699 103.01 213.58 103.01 213.58 103.067C213.342 103.354 213.224 103.641 213.224 104.042C213.224 104.1 213.283 104.214 213.402 104.329L213.877 105.132V106.624L214.115 107.885L213.164 107.771L214.293 108.172V108.975L212.273 110.926L210.313 111.614L208.591 110.639L207.7 110.926L206.156 110.639C206.037 110.868 205.918 111.04 205.74 111.155C205.086 111.614 204.314 111.901 203.542 112.073C203.245 112.13 203.007 112.187 202.77 112.073C202.651 112.015 202.592 111.958 202.532 111.958C202.354 111.786 202.117 111.671 201.879 111.614C201.82 111.614 201.76 111.614 201.76 111.614L199.622 114.195L200.335 118.096L201.463 117.522L203.72 119.702L206.749 119.874L208.294 120.849L207.997 125.897L207.284 126.183L207.581 133.64L209.125 135.418L209.304 135.992L208.71 137.369L208.294 139.434C208.353 139.606 208.472 139.721 208.65 139.893L208.71 139.835L208.888 140.638L207.7 140.925L207.878 143.793L206.452 144.367L207.581 146.317L207.284 146.718L212.57 147.522L212.986 145.629L215.124 145.342C215.184 145.801 215.243 146.202 215.481 146.489C215.778 146.948 215.897 147.464 215.956 147.923C215.956 149.128 215.897 150.332 215.718 151.537L216.847 152.34L217.263 152.627L221.717 151.824L223.856 153.315L223.974 152.34L224.984 152.053L225.281 153.028L228.132 153.2C228.37 153.372 228.667 153.544 228.904 153.774C228.964 153.889 229.023 154.003 229.083 154.118L230.27 154.29C230.449 154.061 230.627 153.889 230.805 153.716C230.983 153.659 231.102 153.602 231.221 153.602C231.34 153.602 231.458 153.602 231.518 153.602L231.934 153.2L232.825 150.562L234.25 150.275L234.547 150.848L235.379 150.676L235.794 150.275L235.676 148.611L236.685 147.407L236.923 143.793C237.101 143.793 237.16 143.793 237.279 143.678C237.398 143.564 237.457 143.449 237.517 143.277L241.081 143.564L241.912 140.638L241.081 138.975H240.071L239.536 137.598L240.249 134.443L241.378 133.526V133.067L241.793 131.977C241.615 131.919 241.556 131.862 241.496 131.805C241.437 131.518 241.378 131.289 241.378 131.002C241.378 130.944 241.378 130.83 241.378 130.772C241.496 130.485 241.556 130.199 241.734 129.969C241.972 129.568 242.209 129.224 242.506 128.822L243.516 128.937L244.05 128.42L246.189 129.338L246.486 127.962L247.614 127.445L248.089 126.47L247.08 125.782L246.901 124.979C247.02 124.807 247.139 124.749 247.198 124.749C247.436 124.749 247.674 124.807 247.911 124.979L249.218 124.52L250.05 125.094L250.762 123.43L251.475 122.914V121.939L249.515 120.275L249.634 119.3L250.643 118.784L251.178 116.834L250.94 116.26V115.342L251.772 114.482L254.623 113.507L255.336 111.901L254.623 110.639L254.504 109.836L254.92 108.861H256.346L257.177 107.312C257.415 107.369 257.652 107.369 257.83 107.254C257.949 107.254 258.009 107.197 258.068 107.082C258.127 107.082 258.127 107.082 258.187 107.025C258.246 106.968 258.246 106.853 258.246 106.796C258.246 106.681 258.246 106.623 258.187 106.509C257.89 106.509 257.712 106.394 257.712 106.222C257.652 106.107 257.712 106.05 257.712 105.935C257.771 105.82 257.771 105.763 257.771 105.706C257.83 105.648 257.83 105.591 257.89 105.534C257.949 105.476 257.949 105.419 258.009 105.362C258.009 105.247 258.068 105.132 258.127 105.017C258.127 104.845 258.187 104.731 258.306 104.559C258.306 104.559 258.306 104.501 258.365 104.501C258.424 104.386 258.543 104.329 258.603 104.329L258.068 103.182L257.177 103.067L255.93 102.952L255.633 103.87L254.623 104.559L253.079 104.444L252.366 105.935C252.366 106.337 252.366 106.681 252.307 107.025C252.247 107.082 252.188 107.14 252.069 107.197L251.653 107.599L250.94 107.484L249.515 108.287C249.396 108.344 249.277 108.402 249.218 108.459C249.099 108.459 249.04 108.402 248.98 108.344C248.862 108.23 248.743 108.058 248.624 107.885L247.377 107.484L246.367 108.459L247.08 106.91L246.07 106.222L238.23 104.329L237.517 103.354L237.814 102.494L237.517 101.289L240.368 99.0519L240.071 97.9621Z" fill="#C4DFE9" stroke="white" stroke-miterlimit="10"/>

</svg>
