<svg width="313" height="188" viewBox="0 0 313 188" fill="none" xmlns="http://www.w3.org/2000/svg">
<path d="M90.8669 54.5983L89.6195 55.2867L88.4316 54.4836L87.3031 55.2867L84.749 55.5735L84.452 59.3019L84.8678 59.8755L84.6302 63.0303L86.0557 63.5466L85.2836 65.7836L85.1648 67.6765L86.2933 68.0781L84.9866 68.6517L84.0363 67.9633V69.2253L84.8678 71.5197L83.9175 72.208C83.8581 72.208 83.7987 72.208 83.7987 72.208C83.8581 72.3801 83.9175 72.4948 83.9175 72.6669H83.7393C83.6799 72.6669 83.5017 72.7243 83.4423 72.7816C83.4423 72.9537 83.4423 73.0684 83.4423 73.1258C83.5017 73.2979 83.6799 73.4699 83.9175 73.5847L83.2047 74.0436L83.7393 74.4451L84.0363 76.5101L83.6205 78.575L84.3333 78.9766L84.9866 78.575L86.4715 79.0913C86.4715 79.1486 86.4715 79.206 86.5309 79.2634C86.6497 79.4354 86.6497 79.5502 86.5309 79.6649C86.4121 79.837 86.1745 80.009 85.8776 80.0664L85.7588 80.2385C85.8776 80.2959 86.1151 80.4106 86.4715 80.4679L87.1843 81.3283L87.0061 82.3035L87.6001 82.0167L88.5504 82.3035L89.6195 81.8446L90.4511 82.3035L91.2826 81.1563L93.0051 80.7547L93.1833 78.6898L94.0149 78.0014L94.3119 75.1334L95.7374 74.9613L96.2719 75.5349C96.3313 75.4776 96.3907 75.3628 96.4501 75.3055C96.6877 75.1908 96.9253 75.1334 97.1035 75.1334C97.2223 75.1908 97.2817 75.2481 97.4599 75.2481L97.9944 73.7568C98.0538 73.5273 98.1132 73.3552 98.1726 73.1831L100.133 74.7319V75.5349L100.845 76.338L101.439 76.5101L103.281 78.2882L104.112 77.1984L106.132 77.0263L105.122 75.9365L106.013 74.5598L107.438 74.9613L109.102 72.6669L109.993 72.7816L110.824 73.5847L111.121 72.6669L112.25 72.0933L113.972 73.0684L113.378 71.8065L112.131 70.8314L111.834 69.34L111.418 68.537L113.378 68.3649L114.566 67.5618L116.11 67.1603L117.655 67.6765L120.684 66.9882L122.109 66.0704L122.228 64.9232L123.119 64.6938L123.238 64.1202L125.079 63.0303L124.545 62.1699L123.654 61.7684L125.079 61.2522L127.218 62.1699H128.524L128.821 60.9654L128.227 59.8755L128.821 58.04L129.95 57.8105H130.663L131.91 58.3268L132.207 57.5237L131.672 56.8354V55.1719C131.494 54.9425 131.375 54.7704 131.197 54.5983L130.663 52.4186L128.227 51.3288C128.108 51.5009 127.811 51.5582 127.336 51.4435C127.039 51.2714 126.683 51.1567 126.386 51.042C125.911 51.042 125.436 51.0993 124.96 51.2141C124.842 51.1567 124.663 51.2141 124.485 51.2141C124.248 51.3288 123.951 51.4435 123.713 51.5009C123.535 51.6156 123.357 51.673 123.238 51.7303L122.941 52.8775C122.703 53.2217 122.288 53.5085 121.872 53.7379C121.634 53.8527 121.397 54.0247 121.218 54.1968C120.921 54.3115 120.684 54.4836 120.387 54.5983C120.031 54.7131 119.734 54.8278 119.377 54.8851C118.783 55.0572 118.249 55.1146 117.655 55.1146C117.476 55.1146 117.298 55.0572 117.12 55.0572C117.001 54.9999 116.942 54.9425 116.823 54.8851C116.704 54.8851 116.526 54.7704 116.407 54.7704C116.17 54.7131 115.992 54.6557 115.813 54.5983C115.516 54.5983 115.219 54.5983 114.982 54.5983C114.625 54.5983 114.328 54.5983 113.972 54.5983L111.834 55.2867L110.408 54.4836L102.568 56.5486L97.4599 55.8603L90.8669 54.5983Z" fill="#C4DFE9" stroke="white" stroke-miterlimit="10"/>
</svg>
