<svg width="313" height="188" viewBox="0 0 313 188" fill="none" xmlns="http://www.w3.org/2000/svg">
<path d="M184.238 30.7936L184.832 30.5068L182.991 28.9007L181.981 28.2124L179.783 29.0154L179.011 29.8184L178.417 29.9905L177.705 31.1951L175.982 31.654L176.814 30.2773L176.16 29.1301L175.151 28.6139C175.091 28.786 174.972 28.786 174.735 28.7286C174.675 28.6712 174.557 28.7286 174.438 28.786C174.141 28.7286 174.081 28.5565 174.26 28.3271L173.547 29.0154L172.834 29.1301C172.893 29.0728 172.953 28.958 172.893 28.9007C172.893 28.8433 172.775 28.786 172.656 28.786C172.537 28.8433 172.359 28.9007 172.121 29.0154C172.062 29.0154 172.003 29.0728 171.943 29.1875C171.943 29.3022 171.943 29.4169 171.943 29.589C171.943 29.589 171.884 29.6464 171.884 29.7037C171.409 29.8184 171.171 29.7037 170.993 29.3022L171.29 28.3271C171.468 28.155 171.587 28.0403 171.706 27.8682C171.765 27.6961 171.765 27.524 171.706 27.3519L169.686 25.8606L168.736 25.6885L167.845 26.5489L166.419 26.1474L165.706 24.1971L163.865 23.5088L163.034 24.0824L161.965 25.287L160.004 26.1474C159.648 26.2047 159.41 26.3194 159.232 26.4342C159.113 26.5489 159.113 26.6636 159.292 26.721C159.292 26.7783 159.351 26.8357 159.41 26.9504C159.41 27.0651 159.47 27.2372 159.47 27.3519L158.579 27.9255V28.9007L158.401 29.9905V30.1052H158.282L157.866 31.654L157.747 32.5717L156.322 34.4073L156.025 33.4322L155.312 33.2601L154.837 33.719L153.887 33.9484C153.708 34.1205 153.59 34.1778 153.471 34.1778C153.352 34.1778 153.293 34.1205 153.174 33.9484L153.055 34.1205V33.9484V33.8337H152.877L151.867 33.9484H151.748V33.8337L148.303 34.2352L148.066 34.8088L147.056 34.9235L146.343 36.1855L145.333 35.6119L144.027 35.7839L141.77 34.8088L140.047 35.2103L139.216 34.8088L138.206 35.7839L137.077 35.3251H136.899V35.2103L136.186 34.522L136.068 34.6367V34.522L135.949 34.6367V34.8088H135.771L134.939 35.7839H132.088L133.098 36.9885L133.514 37.6768L134.226 37.9636L135.058 37.8489L135.652 38.5372C135.355 38.7093 135.355 38.8814 135.652 39.1108L135.474 40.1433L134.761 40.3154L135.058 40.8317L132.623 43.1834L133.811 44.7322L134.642 45.1337L136.483 46.7972L137.196 48.1738L138.206 48.9769L138.978 50.0093L139.334 50.0667L140.641 49.5505H142.067L144.205 49.7799L145.215 50.4682L145.63 51.1566L149.907 50.6403L151.333 51.6154L154.481 51.7302L155.312 52.7053L154.599 53.2215L154.005 54.7703L155.431 55.4586L154.837 56.1469L155.728 58.4987L156.856 60.2769L158.282 59.4738L157.45 58.6134L158.698 57.9251L159.47 56.6632L161.133 57.1221L163.331 55.4586C163.449 55.5733 163.568 55.6307 163.687 55.5733C163.865 55.5733 163.984 55.4586 164.162 55.2865C164.222 55.2292 164.34 55.1718 164.459 55.0571C164.34 54.9997 164.281 54.9424 164.281 54.885C164.281 54.7129 164.34 54.5408 164.459 54.3687L164.281 52.3038L164.994 52.4185L165.528 52.8774L166.597 51.6154L167.845 51.4434L168.142 50.2388L169.686 48.6901V47.1987L170.577 46.1088L172.656 48.0017L173.547 47.887L173.844 47.0266L173.25 46.3383L172.121 46.2236L172.003 44.8469L175.269 44.4454L175.863 45.2484C176.101 45.1911 176.338 45.1911 176.517 45.2484C176.576 45.2484 176.635 45.3058 176.695 45.4205L177.408 44.8469L177.823 43.585L179.13 43.1834L179.011 41.6921L179.962 41.2906L179.546 40.4301L180.259 39.9139L180.556 39.455L181.981 39.1108L181.387 38.5372L181.268 36.4723L180.853 35.8987L180.08 35.3251L179.249 33.8337L179.962 33.719L180.971 33.1454H181.565L181.862 32.8585C182.1 32.8012 182.338 32.7438 182.516 32.6291C182.575 32.6291 182.634 32.6291 182.694 32.5717L182.813 31.7687L184.001 31.8834L184.238 30.7936Z" fill="#B4FF00" stroke="white" stroke-miterlimit="10"/>
</svg>
