<svg width="313" height="188" viewBox="0 0 313 188" fill="none" xmlns="http://www.w3.org/2000/svg">
<path d="M142.067 66.6989L141.354 65.7811L139.631 65.0928L138.087 66.5841L138.503 65.3796H136.365L136.483 66.5841L135.058 66.8709C134.939 66.6989 134.761 66.6415 134.642 66.6989C134.523 66.6415 134.345 66.5841 134.286 66.5841C134.226 66.6415 134.226 66.6989 134.226 66.8709C134.226 66.8709 134.226 66.9283 134.226 66.9857C134.107 67.3872 133.87 67.5019 133.514 67.2725H132.207L131.672 69.3374C131.553 69.5095 131.672 69.5669 131.969 69.4522L131.91 69.6243V70.7141L132.385 71.976L132.207 73.0659L134.048 74.8441L133.811 75.8192V76.7943L132.92 77.5974L133.098 78.8593L132.801 80.3507L133.929 79.7771L135.652 79.5476L136.186 79.7771L137.79 79.2608L138.206 78.5725L139.037 79.3755L139.631 79.6623L139.334 80.2359L140.938 81.7273C141.176 81.7273 141.413 81.7273 141.651 81.7273L143.076 81.4405L145.215 78.4004L144.739 77.9989L145.749 77.3106C145.809 77.5974 145.927 77.6547 146.165 77.54C146.343 77.4253 146.581 77.3106 146.759 77.1958L147.056 76.5075L147.769 76.6222L148.184 75.6471L150.204 74.8441L150.026 73.8689L149.313 72.8938L149.61 71.6892L146.878 71.804L146.462 70.4273L145.036 70.1405L144.502 69.739L143.908 69.9111L142.364 68.5344L142.898 68.0755L141.888 67.5593C141.948 67.2725 142.007 66.9857 142.067 66.6989Z" fill="#C4DFE9" stroke="#002340" stroke-miterlimit="10"/>
</svg>
