<svg width="313" height="188" viewBox="0 0 313 188" fill="none" xmlns="http://www.w3.org/2000/svg">
<path d="M276.6 60.9639L275.59 60.5623L274.996 60.1035L273.036 63.3157L272.145 62.4552V60.6771L270.898 59.9887L271.135 58.0385L270.007 57.9238L268.284 56.5471L266.621 56.8339L266.443 58.6121L265.908 59.3004L265.314 59.4725L265.017 60.1035L262.76 60.2755L262.463 59.5872L261.038 59.3004L261.335 58.2106L260.325 58.3253L259.018 58.0385L258.187 56.5471L257.058 56.9486L254.92 56.5471L254.029 54.8837L250.94 52.9908L251.475 46.509L251.059 45.4192L251.653 43.7557L249.337 43.0674L248.624 43.8704L245.476 44.0425L245.06 44.444L242.209 44.7308C242.269 44.444 242.09 44.3867 241.793 44.444L238.348 45.706L237.814 44.5588L236.923 44.0425C236.507 43.2968 235.913 42.8379 235.082 42.5511C234.785 42.4364 234.488 42.3217 234.25 42.2643C233.775 42.0923 233.3 42.0923 232.825 42.2643C232.765 42.1496 232.706 42.1496 232.646 42.3791L232.112 42.0923L231.518 41.9775L231.102 43.7557L230.27 44.444L231.696 44.8456L231.221 45.706L229.795 46.7958V48.4019L228.548 49.1476L229.558 50.3522L229.676 51.1552L227.598 55.8588L226.291 55.572V56.4324L226.172 57.809L224.45 58.0385L223.202 58.8989L223.321 59.5872H222.49L221.777 60.1035C221.599 59.874 221.42 59.7593 221.183 59.5872C221.005 59.4725 220.945 59.5299 220.886 59.874L221.599 61.0786L219.46 61.3654L220.767 62.4552C220.767 62.6273 220.708 62.742 220.589 62.8568C220.411 63.0288 220.173 63.0289 219.876 62.9141L219.638 62.0537L218.451 61.939L219.163 66.069L220.173 66.6999L224.034 66.1837L225.162 66.6999L226.172 67.8471L225.756 71.002L226.053 72.4933L226.766 72.8949L226.291 73.4685C226.231 73.5832 226.232 73.6405 226.172 73.7553C226.172 73.8126 226.172 73.9274 226.172 73.9847C226.766 76.5659 227.122 79.0898 227.36 81.6137C227.598 83.9654 227.598 86.2599 227.36 88.6116C227.36 88.6116 227.36 88.6116 227.301 88.6116L226.291 89.7015L229.439 92.3401L229.736 91.3649C230.27 91.8238 230.864 92.2827 231.458 92.7416C231.577 92.9137 231.755 93.0284 231.874 93.0858C232.052 93.2578 232.29 93.3152 232.468 93.3152C233.894 93.7167 235.319 94.0609 236.745 94.4051L237.279 94.9213L238.408 95.2081L240.546 94.9213L240.843 97.5599L240.13 97.9614L240.427 99.0513L237.576 101.288L237.873 102.493L237.576 103.353L238.289 104.328L246.129 106.221L247.139 106.91L246.426 108.458L247.436 107.483L248.683 107.885C248.802 108.057 248.921 108.229 249.04 108.344C249.099 108.401 249.159 108.458 249.277 108.458C249.337 108.401 249.456 108.344 249.574 108.286L251 107.483L251.713 107.598L252.128 107.196C252.247 107.139 252.307 107.082 252.366 107.024C252.425 106.68 252.425 106.336 252.425 105.935L253.138 104.443L254.682 104.558L255.692 103.87L255.989 102.952L257.236 103.066L256.821 102.091L258.246 101.575L260.088 98.2482L263.236 97.4452V96.0685L263.651 95.6096L264.364 93.0284L265.077 92.7416L266.087 92.0533L265.611 89.7015L267.037 86.9482L266.859 85.4568L268.878 81.7284V81.0401L269.472 79.7781L270.422 79.2619L272.739 79.5487L273.867 77.0248V76.1071L273.452 75.2466L273.749 74.5583L272.442 73.0669L273.986 68.937L274.877 69.4532L275.293 68.937L274.58 68.2487L276.006 67.3883L277.847 65.4954V64.9217L276.6 62.742L276.719 62.1684L276.6 60.9639Z" fill="#B4FF00" stroke="white" stroke-miterlimit="10"/>
</svg>
